<svg xmlns="http://www.w3.org/2000/svg" viewBox="0 0 2800 2158" font-family="'PingFang SC','Microsoft YaHei','Helvetica Neue',Arial,sans-serif">
<defs>
<marker id="arr" viewBox="0 0 10 10" refX="10" refY="5" markerWidth="7" markerHeight="7" orient="auto-start-reverse"><path d="M0 0L10 5L0 10z" fill="#475569"/></marker>
<marker id="arr-r" viewBox="0 0 10 10" refX="10" refY="5" markerWidth="7" markerHeight="7" orient="auto-start-reverse"><path d="M0 0L10 5L0 10z" fill="#DC2626"/></marker>
</defs>
<rect width="2800" height="2158" fill="#F8FAFC"/>
<rect width="2800" height="46" fill="#1E1F2E"/>
<text x="1400" y="30" text-anchor="middle" fill="#fff" font-size="18" font-weight="600">Looply &#183; 登录注册模块系统流程图</text>
<text x="2760" y="30" text-anchor="end" fill="rgba(255,255,255,0.5)" font-size="10">V1.0 &#183; 2026.03</text>
<rect x="0" y="46" width="2800" height="32" fill="#DBEAFE"/>
<text x="1400" y="68" text-anchor="middle" fill="#1E40AF" font-size="13" font-weight="700">&#9312; 注册流程（邮箱注册 + Google 快捷注册）</text>
<rect x="80" y="78" width="2720" height="110" fill="rgba(16,185,129,0.04)"/>
<rect x="0" y="78" width="80" height="110" fill="#10B981" opacity="0.15"/>
<text x="40" y="138" text-anchor="middle" fill="#059669" font-size="11" font-weight="600">用户</text>
<rect x="80" y="188" width="2720" height="130" fill="rgba(74,108,247,0.04)"/>
<line x1="80" y1="188" x2="2800" y2="188" stroke="#E2E8F0" stroke-width="0.7"/>
<rect x="0" y="188" width="80" height="130" fill="#4A6CF7" opacity="0.15"/>
<text x="40" y="258" text-anchor="middle" fill="#3B5BDB" font-size="11" font-weight="600">前端</text>
<rect x="80" y="318" width="2720" height="130" fill="rgba(245,158,11,0.04)"/>
<line x1="80" y1="318" x2="2800" y2="318" stroke="#E2E8F0" stroke-width="0.7"/>
<rect x="0" y="318" width="80" height="130" fill="#F59E0B" opacity="0.15"/>
<text x="40" y="388" text-anchor="middle" fill="#B45309" font-size="11" font-weight="600">后端</text>
<rect x="80" y="448" width="2720" height="90" fill="rgba(239,68,68,0.04)"/>
<line x1="80" y1="448" x2="2800" y2="448" stroke="#E2E8F0" stroke-width="0.7"/>
<rect x="0" y="448" width="80" height="90" fill="#EF4444" opacity="0.15"/>
<text x="40" y="498" text-anchor="middle" fill="#DC2626" font-size="11" font-weight="600">外部服务</text>
<rect x="0" y="554" width="2800" height="32" fill="#DBEAFE"/>
<text x="1400" y="576" text-anchor="middle" fill="#1E40AF" font-size="13" font-weight="700">&#9313; 登录流程（邮箱密码 + Google 登录 + 回访登录）</text>
<rect x="80" y="586" width="2720" height="110" fill="rgba(16,185,129,0.04)"/>
<rect x="0" y="586" width="80" height="110" fill="#10B981" opacity="0.15"/>
<text x="40" y="646" text-anchor="middle" fill="#059669" font-size="11" font-weight="600">用户</text>
<rect x="80" y="696" width="2720" height="130" fill="rgba(74,108,247,0.04)"/>
<line x1="80" y1="696" x2="2800" y2="696" stroke="#E2E8F0" stroke-width="0.7"/>
<rect x="0" y="696" width="80" height="130" fill="#4A6CF7" opacity="0.15"/>
<text x="40" y="766" text-anchor="middle" fill="#3B5BDB" font-size="11" font-weight="600">前端</text>
<rect x="80" y="826" width="2720" height="130" fill="rgba(245,158,11,0.04)"/>
<line x1="80" y1="826" x2="2800" y2="826" stroke="#E2E8F0" stroke-width="0.7"/>
<rect x="0" y="826" width="80" height="130" fill="#F59E0B" opacity="0.15"/>
<text x="40" y="896" text-anchor="middle" fill="#B45309" font-size="11" font-weight="600">后端</text>
<rect x="80" y="956" width="2720" height="90" fill="rgba(239,68,68,0.04)"/>
<line x1="80" y1="956" x2="2800" y2="956" stroke="#E2E8F0" stroke-width="0.7"/>
<rect x="0" y="956" width="80" height="90" fill="#EF4444" opacity="0.15"/>
<text x="40" y="1006" text-anchor="middle" fill="#DC2626" font-size="11" font-weight="600">外部服务</text>
<rect x="0" y="1062" width="2800" height="32" fill="#DBEAFE"/>
<text x="1400" y="1084" text-anchor="middle" fill="#1E40AF" font-size="13" font-weight="700">&#9314; 忘记密码 / 重置密码流程</text>
<rect x="80" y="1094" width="2720" height="110" fill="rgba(16,185,129,0.04)"/>
<rect x="0" y="1094" width="80" height="110" fill="#10B981" opacity="0.15"/>
<text x="40" y="1154" text-anchor="middle" fill="#059669" font-size="11" font-weight="600">用户</text>
<rect x="80" y="1204" width="2720" height="130" fill="rgba(74,108,247,0.04)"/>
<line x1="80" y1="1204" x2="2800" y2="1204" stroke="#E2E8F0" stroke-width="0.7"/>
<rect x="0" y="1204" width="80" height="130" fill="#4A6CF7" opacity="0.15"/>
<text x="40" y="1274" text-anchor="middle" fill="#3B5BDB" font-size="11" font-weight="600">前端</text>
<rect x="80" y="1334" width="2720" height="130" fill="rgba(245,158,11,0.04)"/>
<line x1="80" y1="1334" x2="2800" y2="1334" stroke="#E2E8F0" stroke-width="0.7"/>
<rect x="0" y="1334" width="80" height="130" fill="#F59E0B" opacity="0.15"/>
<text x="40" y="1404" text-anchor="middle" fill="#B45309" font-size="11" font-weight="600">后端</text>
<rect x="80" y="1464" width="2720" height="90" fill="rgba(239,68,68,0.04)"/>
<line x1="80" y1="1464" x2="2800" y2="1464" stroke="#E2E8F0" stroke-width="0.7"/>
<rect x="0" y="1464" width="80" height="90" fill="#EF4444" opacity="0.15"/>
<text x="40" y="1514" text-anchor="middle" fill="#DC2626" font-size="11" font-weight="600">外部服务</text>
<rect x="0" y="1570" width="2800" height="32" fill="#DBEAFE"/>
<text x="1400" y="1592" text-anchor="middle" fill="#1E40AF" font-size="13" font-weight="700">&#9315; 退出流程（主动退出 + 会话失效）</text>
<rect x="80" y="1602" width="2720" height="110" fill="rgba(16,185,129,0.04)"/>
<rect x="0" y="1602" width="80" height="110" fill="#10B981" opacity="0.15"/>
<text x="40" y="1662" text-anchor="middle" fill="#059669" font-size="11" font-weight="600">用户</text>
<rect x="80" y="1712" width="2720" height="130" fill="rgba(74,108,247,0.04)"/>
<line x1="80" y1="1712" x2="2800" y2="1712" stroke="#E2E8F0" stroke-width="0.7"/>
<rect x="0" y="1712" width="80" height="130" fill="#4A6CF7" opacity="0.15"/>
<text x="40" y="1782" text-anchor="middle" fill="#3B5BDB" font-size="11" font-weight="600">前端</text>
<rect x="80" y="1842" width="2720" height="130" fill="rgba(245,158,11,0.04)"/>
<line x1="80" y1="1842" x2="2800" y2="1842" stroke="#E2E8F0" stroke-width="0.7"/>
<rect x="0" y="1842" width="80" height="130" fill="#F59E0B" opacity="0.15"/>
<text x="40" y="1912" text-anchor="middle" fill="#B45309" font-size="11" font-weight="600">后端</text>
<rect x="80" y="1972" width="2720" height="90" fill="rgba(239,68,68,0.04)"/>
<line x1="80" y1="1972" x2="2800" y2="1972" stroke="#E2E8F0" stroke-width="0.7"/>
<rect x="0" y="1972" width="80" height="90" fill="#EF4444" opacity="0.15"/>
<text x="40" y="2022" text-anchor="middle" fill="#DC2626" font-size="11" font-weight="600">外部服务</text>
<rect x="0" y="2078" width="2800" height="70" fill="#fff" stroke="#E2E8F0" stroke-width="1"/>
<line x1="185" y1="133" x2="225" y2="133" stroke="#475569" stroke-width="1.2" marker-end="url(#arr)"/>
<line x1="280" y1="149" x2="280" y2="237" stroke="#475569" stroke-width="1.2" marker-end="url(#arr)"/>
<polyline points="340,253 380,253 380,133 380,133" fill="none" stroke="#475569" stroke-width="1.2" marker-end="url(#arr)"/>
<line x1="340" y1="253" x2="375" y2="253" stroke="#475569" stroke-width="1.2" marker-end="url(#arr)"/>
<line x1="185" y1="133" x2="218" y2="133" stroke="#475569" stroke-width="1.2" marker-end="url(#arr)"/>
<line x1="280" y1="148" x2="280" y2="237" stroke="#475569" stroke-width="1.2" marker-end="url(#arr)"/>
<polyline points="340,253 370,253 370,133 374,133" fill="none" stroke="#475569" stroke-width="1.2" marker-end="url(#arr)"/>
<line x1="440" y1="148" x2="440" y2="229" stroke="#475569" stroke-width="1.2" marker-end="url(#arr)"/>
<line x1="505" y1="253" x2="538" y2="253" stroke="#475569" stroke-width="1.2" marker-end="url(#arr)"/>
<text x="520" y="247" text-anchor="middle" fill="#64748B" font-size="8">是</text>
<line x1="440" y1="277" x2="440" y2="297" stroke="#DC2626" stroke-width="1.1" stroke-dasharray="5,3" marker-end="url(#arr-r)"/>
<text x="450" y="289" text-anchor="middle" fill="#DC2626" font-size="8">否</text>
<line x1="660" y1="253" x2="674" y2="253" stroke="#475569" stroke-width="1.2" marker-end="url(#arr)"/>
<text x="668" y="247" text-anchor="middle" fill="#64748B" font-size="8">是</text>
<line x1="600" y1="277" x2="600" y2="297" stroke="#DC2626" stroke-width="1.1" stroke-dasharray="5,3" marker-end="url(#arr-r)"/>
<text x="610" y="289" text-anchor="middle" fill="#DC2626" font-size="8">否</text>
<line x1="740" y1="269" x2="740" y2="359" stroke="#475569" stroke-width="1.2" marker-end="url(#arr)"/>
<line x1="805" y1="383" x2="838" y2="383" stroke="#475569" stroke-width="1.2" marker-end="url(#arr)"/>
<text x="820" y="377" text-anchor="middle" fill="#64748B" font-size="8">否</text>
<line x1="740" y1="407" x2="740" y2="427" stroke="#DC2626" stroke-width="1.1" stroke-dasharray="5,3" marker-end="url(#arr-r)"/>
<text x="750" y="419" text-anchor="middle" fill="#DC2626" font-size="8">是</text>
<line x1="960" y1="383" x2="998" y2="383" stroke="#475569" stroke-width="1.2" marker-end="url(#arr)"/>
<text x="980" y="377" text-anchor="middle" fill="#64748B" font-size="8">否</text>
<line x1="900" y1="407" x2="900" y2="427" stroke="#DC2626" stroke-width="1.1" stroke-dasharray="5,3" marker-end="url(#arr-r)"/>
<text x="910" y="419" text-anchor="middle" fill="#DC2626" font-size="8">是</text>
<line x1="1060" y1="399" x2="1060" y2="477" stroke="#475569" stroke-width="1.2" marker-end="url(#arr)"/>
<polyline points="1125,493 1200,493 1200,269" fill="none" stroke="#475569" stroke-width="1.2" marker-end="url(#arr)"/>
<line x1="1200" y1="237" x2="1200" y2="148" stroke="#475569" stroke-width="1.2" marker-end="url(#arr)"/>
<polyline points="1260,133 1360,133 1360,237" fill="none" stroke="#475569" stroke-width="1.2" marker-end="url(#arr)"/>
<line x1="1360" y1="269" x2="1360" y2="359" stroke="#475569" stroke-width="1.2" marker-end="url(#arr)"/>
<line x1="1425" y1="383" x2="1458" y2="383" stroke="#475569" stroke-width="1.2" marker-end="url(#arr)"/>
<text x="1440" y="377" text-anchor="middle" fill="#64748B" font-size="8">是</text>
<line x1="1360" y1="407" x2="1360" y2="427" stroke="#DC2626" stroke-width="1.1" stroke-dasharray="5,3" marker-end="url(#arr-r)"/>
<text x="1370" y="419" text-anchor="middle" fill="#DC2626" font-size="8">否</text>
<line x1="1580" y1="383" x2="1578" y2="383" stroke="#475569" stroke-width="1.2" marker-end="url(#arr)"/>
<line x1="1575" y1="383" x2="1578" y2="383" stroke="#475569" stroke-width="1.2" marker-end="url(#arr)"/>
<line x1="1580" y1="383" x2="1618" y2="383" stroke="#475569" stroke-width="1.2" marker-end="url(#arr)"/>
<text x="1600" y="377" text-anchor="middle" fill="#64748B" font-size="8">否</text>
<line x1="1520" y1="407" x2="1520" y2="427" stroke="#DC2626" stroke-width="1.1" stroke-dasharray="5,3" marker-end="url(#arr-r)"/>
<text x="1530" y="419" text-anchor="middle" fill="#DC2626" font-size="8">是</text>
<line x1="1660" y1="367" x2="1660" y2="269" stroke="#475569" stroke-width="1.2" marker-end="url(#arr)"/>
<line x1="1660" y1="237" x2="1660" y2="146" stroke="#475569" stroke-width="1.2" marker-end="url(#arr)"/>
<line x1="1905" y1="133" x2="1893" y2="133" stroke="#475569" stroke-width="1.2" marker-end="url(#arr)"/>
<line x1="1905" y1="133" x2="1930" y2="133" stroke="#475569" stroke-width="1.2" marker-end="url(#arr)"/>
<line x1="1990" y1="148" x2="1990" y2="237" stroke="#475569" stroke-width="1.2" marker-end="url(#arr)"/>
<line x1="1990" y1="269" x2="1990" y2="477" stroke="#475569" stroke-width="1.2" marker-end="url(#arr)"/>
<polyline points="2050,493 2180,493 2180,148" fill="none" stroke="#475569" stroke-width="1.2" marker-end="url(#arr)"/>
<line x1="2180" y1="118" x2="2180" y2="237" stroke="#475569" stroke-width="1.2" marker-end="url(#arr)"/>
<polyline points="2245,133 2280,133 2280,237" fill="none" stroke="#475569" stroke-width="1.2" marker-end="url(#arr)"/>
<line x1="2240" y1="253" x2="2253" y2="253" stroke="#475569" stroke-width="1.2" marker-end="url(#arr)"/>
<line x1="2340" y1="269" x2="2340" y2="359" stroke="#475569" stroke-width="1.2" marker-end="url(#arr)"/>
<polyline points="2415,383 2450,383 2450,343 2448,343" fill="none" stroke="#475569" stroke-width="1.2" marker-end="url(#arr)"/>
<text x="2430" y="375" text-anchor="middle" fill="#64748B" font-size="8">否</text>
<polyline points="2415,383 2450,383 2450,413 2443,413" fill="none" stroke="#475569" stroke-width="1.2" marker-end="url(#arr)"/>
<text x="2430" y="405" text-anchor="middle" fill="#64748B" font-size="8">是</text>
<line x1="2340" y1="407" x2="2340" y2="427" stroke="#DC2626" stroke-width="1.1" stroke-dasharray="5,3" marker-end="url(#arr-r)"/>
<polyline points="2520,359 2520,269" fill="none" stroke="#475569" stroke-width="1.2" marker-end="url(#arr)"/>
<polyline points="2520,397 2520,269" fill="none" stroke="#475569" stroke-width="1.2" marker-end="url(#arr)"/>
<line x1="2520" y1="237" x2="2520" y2="146" stroke="#475569" stroke-width="1.2" marker-end="url(#arr)"/>
<line x1="185" y1="641" x2="213" y2="641" stroke="#475569" stroke-width="1.2" marker-end="url(#arr)"/>
<line x1="280" y1="656" x2="280" y2="665" stroke="#475569" stroke-width="1.2" marker-end="url(#arr)"/>
<line x1="280" y1="694" x2="280" y2="745" stroke="#475569" stroke-width="1.2" marker-end="url(#arr)"/>
<line x1="280" y1="777" x2="375" y2="761" stroke="#475569" stroke-width="1.2" marker-end="url(#arr)"/>
<line x1="505" y1="761" x2="534" y2="761" stroke="#475569" stroke-width="1.2" marker-end="url(#arr)"/>
<text x="520" y="755" text-anchor="middle" fill="#64748B" font-size="8">是</text>
<line x1="440" y1="785" x2="440" y2="805" stroke="#DC2626" stroke-width="1.1" stroke-dasharray="5,3" marker-end="url(#arr-r)"/>
<text x="450" y="797" text-anchor="middle" fill="#DC2626" font-size="8">否</text>
<line x1="600" y1="777" x2="600" y2="867" stroke="#475569" stroke-width="1.2" marker-end="url(#arr)"/>
<line x1="660" y1="891" x2="698" y2="891" stroke="#475569" stroke-width="1.2" marker-end="url(#arr)"/>
<text x="680" y="885" text-anchor="middle" fill="#64748B" font-size="8">是</text>
<line x1="600" y1="915" x2="600" y2="935" stroke="#DC2626" stroke-width="1.1" stroke-dasharray="5,3" marker-end="url(#arr-r)"/>
<text x="610" y="927" text-anchor="middle" fill="#DC2626" font-size="8">否</text>
<line x1="820" y1="891" x2="858" y2="891" stroke="#475569" stroke-width="1.2" marker-end="url(#arr)"/>
<text x="840" y="885" text-anchor="middle" fill="#64748B" font-size="8">是</text>
<line x1="760" y1="915" x2="760" y2="935" stroke="#DC2626" stroke-width="1.1" stroke-dasharray="5,3" marker-end="url(#arr-r)"/>
<text x="770" y="927" text-anchor="middle" fill="#DC2626" font-size="8">否</text>
<line x1="980" y1="891" x2="978" y2="891" stroke="#475569" stroke-width="1.2" marker-end="url(#arr)"/>
<line x1="975" y1="891" x2="1018" y2="891" stroke="#475569" stroke-width="1.2" marker-end="url(#arr)"/>
<text x="998" y="885" text-anchor="middle" fill="#64748B" font-size="8">否</text>
<line x1="920" y1="915" x2="920" y2="935" stroke="#DC2626" stroke-width="1.1" stroke-dasharray="5,3" marker-end="url(#arr-r)"/>
<text x="930" y="927" text-anchor="middle" fill="#DC2626" font-size="8">是</text>
<line x1="1060" y1="875" x2="1060" y2="777" stroke="#475569" stroke-width="1.2" marker-end="url(#arr)"/>
<line x1="1060" y1="745" x2="1060" y2="654" stroke="#475569" stroke-width="1.2" marker-end="url(#arr)"/>
<line x1="1285" y1="641" x2="1283" y2="641" stroke="#475569" stroke-width="1.2" marker-end="url(#arr)"/>
<line x1="1285" y1="641" x2="1310" y2="641" stroke="#475569" stroke-width="1.2" marker-end="url(#arr)"/>
<line x1="1380" y1="656" x2="1380" y2="745" stroke="#475569" stroke-width="1.2" marker-end="url(#arr)"/>
<line x1="1380" y1="777" x2="1380" y2="985" stroke="#475569" stroke-width="1.2" marker-end="url(#arr)"/>
<polyline points="1440,1001 1550,1001 1550,656" fill="none" stroke="#475569" stroke-width="1.2" marker-end="url(#arr)"/>
<line x1="1550" y1="626" x2="1550" y2="745" stroke="#475569" stroke-width="1.2" marker-end="url(#arr)"/>
<line x1="1550" y1="777" x2="1550" y2="867" stroke="#475569" stroke-width="1.2" marker-end="url(#arr)"/>
<polyline points="1615,891 1640,891 1640,861 1638,861" fill="none" stroke="#475569" stroke-width="1.2" marker-end="url(#arr)"/>
<text x="1630" y="883" text-anchor="middle" fill="#64748B" font-size="8">否</text>
<polyline points="1615,891 1640,891 1640,921 1643,921" fill="none" stroke="#475569" stroke-width="1.2" marker-end="url(#arr)"/>
<text x="1630" y="913" text-anchor="middle" fill="#64748B" font-size="8">是</text>
<polyline points="1700,877 1700,777" fill="none" stroke="#475569" stroke-width="1.2" marker-end="url(#arr)"/>
<polyline points="1700,905 1700,777" fill="none" stroke="#475569" stroke-width="1.2" marker-end="url(#arr)"/>
<line x1="1700" y1="745" x2="1700" y2="654" stroke="#475569" stroke-width="1.2" marker-end="url(#arr)"/>
<line x1="1985" y1="641" x2="2013" y2="641" stroke="#475569" stroke-width="1.2" marker-end="url(#arr)"/>
<line x1="2080" y1="656" x2="2080" y2="737" stroke="#475569" stroke-width="1.2" marker-end="url(#arr)"/>
<polyline points="2145,761 2170,761 2170,726 2178,726" fill="none" stroke="#475569" stroke-width="1.2" marker-end="url(#arr)"/>
<text x="2160" y="749" text-anchor="middle" fill="#64748B" font-size="8">是</text>
<polyline points="2145,761 2170,761 2170,796 2178,796" fill="none" stroke="#475569" stroke-width="1.2" marker-end="url(#arr)"/>
<text x="2160" y="789" text-anchor="middle" fill="#64748B" font-size="8">否</text>
<polyline points="2315,726 2370,726 2370,761 2368,761" fill="none" stroke="#475569" stroke-width="1.2" marker-end="url(#arr)"/>
<polyline points="2315,796 2370,796 2370,761" fill="none" stroke="#475569" stroke-width="1.2" marker-end="url(#arr)"/>
<line x1="185" y1="1149" x2="198" y2="1149" stroke="#475569" stroke-width="1.2" marker-end="url(#arr)"/>
<line x1="280" y1="1164" x2="280" y2="1253" stroke="#475569" stroke-width="1.2" marker-end="url(#arr)"/>
<polyline points="345,1269 380,1269 380,1149 374,1149" fill="none" stroke="#475569" stroke-width="1.2" marker-end="url(#arr)"/>
<line x1="440" y1="1164" x2="440" y2="1253" stroke="#475569" stroke-width="1.2" marker-end="url(#arr)"/>
<line x1="440" y1="1285" x2="440" y2="1375" stroke="#475569" stroke-width="1.2" marker-end="url(#arr)"/>
<line x1="500" y1="1399" x2="538" y2="1399" stroke="#475569" stroke-width="1.2" marker-end="url(#arr)"/>
<text x="520" y="1393" text-anchor="middle" fill="#64748B" font-size="8">否</text>
<line x1="440" y1="1423" x2="440" y2="1438" stroke="#DC2626" stroke-width="1.1" stroke-dasharray="5,3" marker-end="url(#arr-r)"/>
<text x="450" y="1435" text-anchor="middle" fill="#DC2626" font-size="8">是</text>
<line x1="600" y1="1415" x2="600" y2="1493" stroke="#475569" stroke-width="1.2" marker-end="url(#arr)"/>
<polyline points="665,1509 760,1509 760,1285" fill="none" stroke="#475569" stroke-width="1.2" marker-end="url(#arr)"/>
<line x1="760" y1="1253" x2="760" y2="1164" stroke="#475569" stroke-width="1.2" marker-end="url(#arr)"/>
<polyline points="820,1149 900,1149 900,1253" fill="none" stroke="#475569" stroke-width="1.2" marker-end="url(#arr)"/>
<line x1="900" y1="1285" x2="900" y2="1375" stroke="#475569" stroke-width="1.2" marker-end="url(#arr)"/>
<line x1="965" y1="1399" x2="998" y2="1399" stroke="#475569" stroke-width="1.2" marker-end="url(#arr)"/>
<text x="980" y="1393" text-anchor="middle" fill="#64748B" font-size="8">是</text>
<line x1="900" y1="1423" x2="900" y2="1438" stroke="#DC2626" stroke-width="1.1" stroke-dasharray="5,3" marker-end="url(#arr-r)"/>
<text x="910" y="1435" text-anchor="middle" fill="#DC2626" font-size="8">否</text>
<line x1="1120" y1="1399" x2="1118" y2="1399" stroke="#475569" stroke-width="1.2" marker-end="url(#arr)"/>
<line x1="1115" y1="1399" x2="1118" y2="1399" stroke="#475569" stroke-width="1.2" marker-end="url(#arr)"/>
<polyline points="1120,1399 1140,1399 1140,1269 1128,1269" fill="none" stroke="#475569" stroke-width="1.2" marker-end="url(#arr)"/>
<text x="1130" y="1393" text-anchor="middle" fill="#64748B" font-size="8">否</text>
<line x1="1060" y1="1423" x2="1060" y2="1438" stroke="#DC2626" stroke-width="1.1" stroke-dasharray="5,3" marker-end="url(#arr-r)"/>
<text x="1070" y="1435" text-anchor="middle" fill="#DC2626" font-size="8">是</text>
<line x1="1200" y1="1253" x2="1200" y2="1164" stroke="#475569" stroke-width="1.2" marker-end="url(#arr)"/>
<polyline points="1270,1149 1360,1149 1360,1245" fill="none" stroke="#475569" stroke-width="1.2" marker-end="url(#arr)"/>
<line x1="1425" y1="1269" x2="1438" y2="1269" stroke="#475569" stroke-width="1.2" marker-end="url(#arr)"/>
<text x="1430" y="1263" text-anchor="middle" fill="#64748B" font-size="8">是</text>
<line x1="1360" y1="1293" x2="1360" y2="1308" stroke="#DC2626" stroke-width="1.1" stroke-dasharray="5,3" marker-end="url(#arr-r)"/>
<text x="1370" y="1305" text-anchor="middle" fill="#DC2626" font-size="8">否</text>
<line x1="1500" y1="1285" x2="1500" y2="1375" stroke="#475569" stroke-width="1.2" marker-end="url(#arr)"/>
<line x1="1570" y1="1399" x2="1578" y2="1399" stroke="#475569" stroke-width="1.2" marker-end="url(#arr)"/>
<text x="1575" y="1393" text-anchor="middle" fill="#64748B" font-size="8">否</text>
<line x1="1500" y1="1423" x2="1500" y2="1438" stroke="#DC2626" stroke-width="1.1" stroke-dasharray="5,3" marker-end="url(#arr-r)"/>
<text x="1510" y="1435" text-anchor="middle" fill="#DC2626" font-size="8">是</text>
<line x1="1660" y1="1383" x2="1660" y2="1285" stroke="#475569" stroke-width="1.2" marker-end="url(#arr)"/>
<line x1="1720" y1="1269" x2="1758" y2="1269" stroke="#475569" stroke-width="1.2" marker-end="url(#arr)"/>
<line x1="1820" y1="1253" x2="1820" y2="1162" stroke="#475569" stroke-width="1.2" marker-end="url(#arr)"/>
<line x1="185" y1="1657" x2="213" y2="1657" stroke="#475569" stroke-width="1.2" marker-end="url(#arr)"/>
<line x1="280" y1="1672" x2="280" y2="1761" stroke="#475569" stroke-width="1.2" marker-end="url(#arr)"/>
<line x1="340" y1="1777" x2="378" y2="1777" stroke="#475569" stroke-width="1.2" marker-end="url(#arr)"/>
<line x1="500" y1="1777" x2="534" y2="1777" stroke="#475569" stroke-width="1.2" marker-end="url(#arr)"/>
<text x="518" y="1771" text-anchor="middle" fill="#64748B" font-size="8">是</text>
<line x1="440" y1="1801" x2="440" y2="1816" stroke="#DC2626" stroke-width="1.1" stroke-dasharray="5,3" marker-end="url(#arr-r)"/>
<text x="450" y="1813" text-anchor="middle" fill="#DC2626" font-size="8">否</text>
<line x1="600" y1="1793" x2="600" y2="1891" stroke="#475569" stroke-width="1.2" marker-end="url(#arr)"/>
<line x1="600" y1="1923" x2="600" y2="1937" stroke="#475569" stroke-width="1.2" marker-end="url(#arr)"/>
<polyline points="600,1937 600,1952 760,1952 760,1793" fill="none" stroke="#475569" stroke-width="1.2" marker-end="url(#arr)"/>
<line x1="825" y1="1777" x2="843" y2="1777" stroke="#475569" stroke-width="1.2" marker-end="url(#arr)"/>
<line x1="900" y1="1761" x2="900" y2="1670" stroke="#475569" stroke-width="1.2" marker-end="url(#arr)"/>
<line x1="1150" y1="1891" x2="1150" y2="1877" stroke="#475569" stroke-width="1.2" marker-end="url(#arr)"/>
<polyline points="1150,1877 1150,1857 1300,1857 1300,1793" fill="none" stroke="#475569" stroke-width="1.2" marker-end="url(#arr)"/>
<line x1="1365" y1="1777" x2="1378" y2="1777" stroke="#475569" stroke-width="1.2" marker-end="url(#arr)"/>
<line x1="1515" y1="1777" x2="1518" y2="1777" stroke="#475569" stroke-width="1.2" marker-end="url(#arr)"/>
<line x1="1600" y1="1761" x2="1600" y2="1670" stroke="#475569" stroke-width="1.2" marker-end="url(#arr)"/>
<rect x="115" y="120" width="70" height="26" rx="15" fill="#fff" stroke="#10B981" stroke-width="1.5"/><text x="150" y="137" text-anchor="middle" fill="#10B981" font-size="10" font-weight="600">开始</text>
<rect x="225" y="117" width="110" height="32" rx="4" fill="#fff" stroke="#475569" stroke-width="1.4"/><text x="280" y="137" text-anchor="middle" fill="#1E293B" font-size="9">点击 Sign Up</text>
<rect x="220" y="237" width="120" height="32" rx="4" fill="#fff" stroke="#475569" stroke-width="1.4"/><text x="280" y="257" text-anchor="middle" fill="#1E293B" font-size="9">展示注册页面</text>
<rect x="380" y="117" width="120" height="32" rx="4" fill="#fff" stroke="#475569" stroke-width="1.4"/><text x="440" y="137" text-anchor="middle" fill="#1E293B" font-size="9">填写邮箱+密码</text>
<polygon points="440,229 500,253 440,277 380,253" fill="#FEF3C7" stroke="#D97706" stroke-width="1.4"/><text x="440" y="257" text-anchor="middle" fill="#92400E" font-size="8" font-weight="600">格式校验通过?</text>
<rect x="390" y="300" width="100" height="26" rx="4" fill="#fff" stroke="#475569" stroke-width="1.4"/><text x="440" y="317" text-anchor="middle" fill="#1E293B" font-size="9">提示格式错误</text>
<polygon points="600,229 655,253 600,277 545,253" fill="#FEF3C7" stroke="#D97706" stroke-width="1.4"/><text x="600" y="257" text-anchor="middle" fill="#92400E" font-size="8" font-weight="600">已勾选协议?</text>
<rect x="560" y="300" width="80" height="26" rx="4" fill="#fff" stroke="#475569" stroke-width="1.4"/><text x="600" y="317" text-anchor="middle" fill="#1E293B" font-size="9">按钮置灰</text>
<rect x="680" y="237" width="120" height="32" rx="4" fill="#fff" stroke="#475569" stroke-width="1.4"/><text x="740" y="257" text-anchor="middle" fill="#1E293B" font-size="9">提交注册请求</text>
<polygon points="740,359 800,383 740,407 680,383" fill="#FEF3C7" stroke="#D97706" stroke-width="1.4"/><text x="740" y="387" text-anchor="middle" fill="#92400E" font-size="8" font-weight="600">邮箱已注册?</text>
<rect x="690" y="430" width="100" height="26" rx="4" fill="#fff" stroke="#475569" stroke-width="1.4"/><text x="740" y="447" text-anchor="middle" fill="#1E293B" font-size="9">提示已注册</text>
<polygon points="900,359 955,383 900,407 845,383" fill="#FEF3C7" stroke="#D97706" stroke-width="1.4"/><text x="900" y="387" text-anchor="middle" fill="#92400E" font-size="8" font-weight="600">注册限频?</text>
<rect x="850" y="430" width="100" height="26" rx="4" fill="#fff" stroke="#475569" stroke-width="1.4"/><text x="900" y="447" text-anchor="middle" fill="#1E293B" font-size="9">提示请求过多</text>
<rect x="1005" y="367" width="110" height="32" rx="4" fill="#fff" stroke="#475569" stroke-width="1.4"/><text x="1060" y="387" text-anchor="middle" fill="#1E293B" font-size="9">生成验证码</text>
<rect x="995" y="477" width="130" height="32" rx="4" fill="#fff" stroke="#475569" stroke-width="1.4"/><text x="1060" y="497" text-anchor="middle" fill="#1E293B" font-size="9">发送验证码邮件</text>
<rect x="1135" y="237" width="130" height="32" rx="4" fill="#fff" stroke="#475569" stroke-width="1.4"/><text x="1200" y="257" text-anchor="middle" fill="#1E293B" font-size="9">展示验证码页面</text>
<rect x="1140" y="117" width="120" height="32" rx="4" fill="#fff" stroke="#475569" stroke-width="1.4"/><text x="1200" y="137" text-anchor="middle" fill="#1E293B" font-size="9">输入6位验证码</text>
<rect x="1305" y="237" width="110" height="32" rx="4" fill="#fff" stroke="#475569" stroke-width="1.4"/><text x="1360" y="257" text-anchor="middle" fill="#1E293B" font-size="9">提交验证码</text>
<polygon points="1360,359 1420,383 1360,407 1300,383" fill="#FEF3C7" stroke="#D97706" stroke-width="1.4"/><text x="1360" y="387" text-anchor="middle" fill="#92400E" font-size="8" font-weight="600">验证码正确?</text>
<rect x="1305" y="430" width="110" height="26" rx="4" fill="#fff" stroke="#475569" stroke-width="1.4"/><text x="1360" y="447" text-anchor="middle" fill="#1E293B" font-size="9">提示验证码错误</text>
<polygon points="1520,359 1575,383 1520,407 1465,383" fill="#FEF3C7" stroke="#D97706" stroke-width="1.4"/><text x="1520" y="387" text-anchor="middle" fill="#92400E" font-size="8" font-weight="600">是否过期?</text>
<rect x="1470" y="430" width="100" height="26" rx="4" fill="#fff" stroke="#475569" stroke-width="1.4"/><text x="1520" y="447" text-anchor="middle" fill="#1E293B" font-size="9">提示已过期</text>
<rect x="1585" y="367" width="150" height="32" rx="4" fill="#fff" stroke="#475569" stroke-width="1.4"/><text x="1660" y="387" text-anchor="middle" fill="#1E293B" font-size="9">创建账号签发Token</text>
<rect x="1590" y="237" width="140" height="32" rx="4" fill="#fff" stroke="#475569" stroke-width="1.4"/><text x="1660" y="257" text-anchor="middle" fill="#1E293B" font-size="9">自动登录跳转首页</text>
<rect x="1615" y="120" width="90" height="26" rx="15" fill="#fff" stroke="#10B981" stroke-width="1.5"/><text x="1660" y="137" text-anchor="middle" fill="#10B981" font-size="10" font-weight="600">注册完成</text>
<rect x="1795" y="120" width="110" height="26" rx="15" fill="#fff" stroke="#10B981" stroke-width="1.5"/><text x="1850" y="137" text-anchor="middle" fill="#10B981" font-size="10" font-weight="600">开始(Google)</text>
<rect x="1900" y="117" width="180" height="32" rx="4" fill="#fff" stroke="#475569" stroke-width="1.4"/><text x="1990" y="137" text-anchor="middle" fill="#1E293B" font-size="9">点击Continue with Google</text>
<rect x="1925" y="237" width="130" height="32" rx="4" fill="#fff" stroke="#475569" stroke-width="1.4"/><text x="1990" y="257" text-anchor="middle" fill="#1E293B" font-size="9">发起OAuth跳转</text>
<rect x="1930" y="477" width="120" height="32" rx="4" fill="#fff" stroke="#475569" stroke-width="1.4"/><text x="1990" y="497" text-anchor="middle" fill="#1E293B" font-size="9">Google授权页</text>
<rect x="2115" y="117" width="130" height="32" rx="4" fill="#fff" stroke="#475569" stroke-width="1.4"/><text x="2180" y="137" text-anchor="middle" fill="#1E293B" font-size="9">选择账号并授权</text>
<rect x="2120" y="237" width="120" height="32" rx="4" fill="#fff" stroke="#475569" stroke-width="1.4"/><text x="2180" y="257" text-anchor="middle" fill="#1E293B" font-size="9">接收回调code</text>
<rect x="2260" y="237" width="160" height="32" rx="4" fill="#fff" stroke="#475569" stroke-width="1.4"/><text x="2340" y="257" text-anchor="middle" fill="#1E293B" font-size="9">code换Token获取信息</text>
<polygon points="2340,359 2415,383 2340,407 2265,383" fill="#FEF3C7" stroke="#D97706" stroke-width="1.4"/><text x="2340" y="387" text-anchor="middle" fill="#92400E" font-size="8" font-weight="600">已关联Looply账号?</text>
<rect x="2285" y="430" width="110" height="26" rx="4" fill="#fff" stroke="#475569" stroke-width="1.4"/><text x="2340" y="447" text-anchor="middle" fill="#1E293B" font-size="9">提示邮箱冲突</text>
<rect x="2455" y="327" width="130" height="32" rx="4" fill="#fff" stroke="#475569" stroke-width="1.4"/><text x="2520" y="347" text-anchor="middle" fill="#1E293B" font-size="9">创建新账号绑定</text>
<rect x="2450" y="397" width="140" height="32" rx="4" fill="#fff" stroke="#475569" stroke-width="1.4"/><text x="2520" y="417" text-anchor="middle" fill="#1E293B" font-size="9">直接登录已有账号</text>
<rect x="2450" y="237" width="140" height="32" rx="4" fill="#fff" stroke="#475569" stroke-width="1.4"/><text x="2520" y="257" text-anchor="middle" fill="#1E293B" font-size="9">登录成功跳转首页</text>
<rect x="2460" y="120" width="120" height="26" rx="15" fill="#fff" stroke="#10B981" stroke-width="1.5"/><text x="2520" y="137" text-anchor="middle" fill="#10B981" font-size="10" font-weight="600">注册/登录完成</text>
<line x1="1770" y1="78" x2="1770" y2="538" stroke="#CBD5E1" stroke-width="1" stroke-dasharray="8,4"/>
<text x="950" y="70" text-anchor="middle" fill="#94A3B8" font-size="8">邮箱注册</text>
<text x="2200" y="70" text-anchor="middle" fill="#94A3B8" font-size="8">Google 快捷注册</text>
<rect x="115" y="628" width="70" height="26" rx="15" fill="#fff" stroke="#10B981" stroke-width="1.5"/><text x="150" y="645" text-anchor="middle" fill="#10B981" font-size="10" font-weight="600">开始</text>
<rect x="220" y="625" width="120" height="32" rx="4" fill="#fff" stroke="#475569" stroke-width="1.4"/><text x="280" y="645" text-anchor="middle" fill="#1E293B" font-size="9">输入邮箱+密码</text>
<rect x="215" y="668" width="130" height="26" rx="4" fill="#fff" stroke="#475569" stroke-width="1.4"/><text x="280" y="685" text-anchor="middle" fill="#1E293B" font-size="9">勾选Remember me</text>
<rect x="220" y="745" width="120" height="32" rx="4" fill="#fff" stroke="#475569" stroke-width="1.4"/><text x="280" y="765" text-anchor="middle" fill="#1E293B" font-size="9">展示登录页面</text>
<polygon points="440,737 500,761 440,785 380,761" fill="#FEF3C7" stroke="#D97706" stroke-width="1.4"/><text x="440" y="765" text-anchor="middle" fill="#92400E" font-size="8" font-weight="600">前端格式校验?</text>
<rect x="390" y="808" width="100" height="26" rx="4" fill="#fff" stroke="#475569" stroke-width="1.4"/><text x="440" y="825" text-anchor="middle" fill="#1E293B" font-size="9">提示格式错误</text>
<rect x="540" y="745" width="120" height="32" rx="4" fill="#fff" stroke="#475569" stroke-width="1.4"/><text x="600" y="765" text-anchor="middle" fill="#1E293B" font-size="9">提交登录请求</text>
<polygon points="600,867 655,891 600,915 545,891" fill="#FEF3C7" stroke="#D97706" stroke-width="1.4"/><text x="600" y="895" text-anchor="middle" fill="#92400E" font-size="8" font-weight="600">邮箱存在?</text>
<rect x="545" y="938" width="110" height="26" rx="4" fill="#fff" stroke="#475569" stroke-width="1.4"/><text x="600" y="955" text-anchor="middle" fill="#1E293B" font-size="9">提示账号不存在</text>
<polygon points="760,867 815,891 760,915 705,891" fill="#FEF3C7" stroke="#D97706" stroke-width="1.4"/><text x="760" y="895" text-anchor="middle" fill="#92400E" font-size="8" font-weight="600">密码正确?</text>
<rect x="710" y="938" width="100" height="26" rx="4" fill="#fff" stroke="#475569" stroke-width="1.4"/><text x="760" y="955" text-anchor="middle" fill="#1E293B" font-size="9">提示密码错误</text>
<polygon points="920,867 975,891 920,915 865,891" fill="#FEF3C7" stroke="#D97706" stroke-width="1.4"/><text x="920" y="895" text-anchor="middle" fill="#92400E" font-size="8" font-weight="600">错误>=5次?</text>
<rect x="860" y="938" width="120" height="26" rx="4" fill="#fff" stroke="#475569" stroke-width="1.4"/><text x="920" y="955" text-anchor="middle" fill="#1E293B" font-size="9">锁定账号30分钟</text>
<rect x="985" y="875" width="150" height="32" rx="4" fill="#fff" stroke="#475569" stroke-width="1.4"/><text x="1060" y="895" text-anchor="middle" fill="#1E293B" font-size="9">签发Token设Cookie</text>
<rect x="990" y="745" width="140" height="32" rx="4" fill="#fff" stroke="#475569" stroke-width="1.4"/><text x="1060" y="765" text-anchor="middle" fill="#1E293B" font-size="9">登录成功跳转首页</text>
<rect x="1015" y="628" width="90" height="26" rx="15" fill="#fff" stroke="#10B981" stroke-width="1.5"/><text x="1060" y="645" text-anchor="middle" fill="#10B981" font-size="10" font-weight="600">登录完成</text>
<rect x="1215" y="628" width="70" height="26" rx="15" fill="#fff" stroke="#10B981" stroke-width="1.5"/><text x="1250" y="645" text-anchor="middle" fill="#10B981" font-size="10" font-weight="600">开始</text>
<rect x="1290" y="625" width="180" height="32" rx="4" fill="#fff" stroke="#475569" stroke-width="1.4"/><text x="1380" y="645" text-anchor="middle" fill="#1E293B" font-size="9">点击Continue with Google</text>
<rect x="1315" y="745" width="130" height="32" rx="4" fill="#fff" stroke="#475569" stroke-width="1.4"/><text x="1380" y="765" text-anchor="middle" fill="#1E293B" font-size="9">发起OAuth跳转</text>
<rect x="1320" y="985" width="120" height="32" rx="4" fill="#fff" stroke="#475569" stroke-width="1.4"/><text x="1380" y="1005" text-anchor="middle" fill="#1E293B" font-size="9">Google授权页</text>
<rect x="1490" y="625" width="120" height="32" rx="4" fill="#fff" stroke="#475569" stroke-width="1.4"/><text x="1550" y="645" text-anchor="middle" fill="#1E293B" font-size="9">选择账号授权</text>
<rect x="1480" y="745" width="140" height="32" rx="4" fill="#fff" stroke="#475569" stroke-width="1.4"/><text x="1550" y="765" text-anchor="middle" fill="#1E293B" font-size="9">接收回调+换Token</text>
<polygon points="1550,867 1610,891 1550,915 1490,891" fill="#FEF3C7" stroke="#D97706" stroke-width="1.4"/><text x="1550" y="895" text-anchor="middle" fill="#92400E" font-size="8" font-weight="600">已关联账号?</text>
<rect x="1645" y="845" width="110" height="32" rx="4" fill="#fff" stroke="#475569" stroke-width="1.4"/><text x="1700" y="865" text-anchor="middle" fill="#1E293B" font-size="9">创建新账号</text>
<rect x="1650" y="905" width="100" height="32" rx="4" fill="#fff" stroke="#475569" stroke-width="1.4"/><text x="1700" y="925" text-anchor="middle" fill="#1E293B" font-size="9">直接登录</text>
<rect x="1630" y="745" width="140" height="32" rx="4" fill="#fff" stroke="#475569" stroke-width="1.4"/><text x="1700" y="765" text-anchor="middle" fill="#1E293B" font-size="9">登录成功跳转首页</text>
<rect x="1655" y="628" width="90" height="26" rx="15" fill="#fff" stroke="#10B981" stroke-width="1.5"/><text x="1700" y="645" text-anchor="middle" fill="#10B981" font-size="10" font-weight="600">登录完成</text>
<rect x="1915" y="628" width="70" height="26" rx="15" fill="#fff" stroke="#10B981" stroke-width="1.5"/><text x="1950" y="645" text-anchor="middle" fill="#10B981" font-size="10" font-weight="600">开始</text>
<rect x="2020" y="625" width="120" height="32" rx="4" fill="#fff" stroke="#475569" stroke-width="1.4"/><text x="2080" y="645" text-anchor="middle" fill="#1E293B" font-size="9">回访用户访问</text>
<polygon points="2080,737 2140,761 2080,785 2020,761" fill="#FEF3C7" stroke="#D97706" stroke-width="1.4"/><text x="2080" y="765" text-anchor="middle" fill="#92400E" font-size="8" font-weight="600">有记住信息?</text>
<rect x="2185" y="710" width="130" height="32" rx="4" fill="#fff" stroke="#475569" stroke-width="1.4"/><text x="2250" y="730" text-anchor="middle" fill="#1E293B" font-size="9">展示回访登录页</text>
<rect x="2185" y="780" width="130" height="32" rx="4" fill="#fff" stroke="#475569" stroke-width="1.4"/><text x="2250" y="800" text-anchor="middle" fill="#1E293B" font-size="9">展示标准登录页</text>
<rect x="2375" y="745" width="150" height="32" rx="4" fill="#fff" stroke="#475569" stroke-width="1.4"/><text x="2450" y="765" text-anchor="middle" fill="#1E293B" font-size="9">预填邮箱+聚焦密码</text>
<text x="2450" y="791" text-anchor="middle" fill="#94A3B8" font-size="8">(后续同邮箱登录)</text>
<line x1="1150" y1="586" x2="1150" y2="1046" stroke="#CBD5E1" stroke-width="1" stroke-dasharray="8,4"/>
<line x1="1850" y1="586" x2="1850" y2="1046" stroke="#CBD5E1" stroke-width="1" stroke-dasharray="8,4"/>
<text x="600" y="578" text-anchor="middle" fill="#94A3B8" font-size="8">邮箱密码登录</text>
<text x="1500" y="578" text-anchor="middle" fill="#94A3B8" font-size="8">Google 登录</text>
<text x="2150" y="578" text-anchor="middle" fill="#94A3B8" font-size="8">回访登录</text>
<rect x="115" y="1136" width="70" height="26" rx="15" fill="#fff" stroke="#10B981" stroke-width="1.5"/><text x="150" y="1153" text-anchor="middle" fill="#10B981" font-size="10" font-weight="600">开始</text>
<rect x="205" y="1133" width="150" height="32" rx="4" fill="#fff" stroke="#475569" stroke-width="1.4"/><text x="280" y="1153" text-anchor="middle" fill="#1E293B" font-size="9">点击Forgot password</text>
<rect x="215" y="1253" width="130" height="32" rx="4" fill="#fff" stroke="#475569" stroke-width="1.4"/><text x="280" y="1273" text-anchor="middle" fill="#1E293B" font-size="9">展示忘记密码页</text>
<rect x="380" y="1133" width="120" height="32" rx="4" fill="#fff" stroke="#475569" stroke-width="1.4"/><text x="440" y="1153" text-anchor="middle" fill="#1E293B" font-size="9">输入注册邮箱</text>
<rect x="395" y="1253" width="90" height="32" rx="4" fill="#fff" stroke="#475569" stroke-width="1.4"/><text x="440" y="1273" text-anchor="middle" fill="#1E293B" font-size="9">提交邮箱</text>
<polygon points="440,1375 495,1399 440,1423 385,1399" fill="#FEF3C7" stroke="#D97706" stroke-width="1.4"/><text x="440" y="1403" text-anchor="middle" fill="#92400E" font-size="8" font-weight="600">发信限频?</text>
<rect x="390" y="1441" width="100" height="26" rx="4" fill="#fff" stroke="#475569" stroke-width="1.4"/><text x="440" y="1458" text-anchor="middle" fill="#1E293B" font-size="9">提示请求过多</text>
<rect x="545" y="1383" width="110" height="32" rx="4" fill="#fff" stroke="#475569" stroke-width="1.4"/><text x="600" y="1403" text-anchor="middle" fill="#1E293B" font-size="9">生成验证码</text>
<rect x="535" y="1493" width="130" height="32" rx="4" fill="#fff" stroke="#475569" stroke-width="1.4"/><text x="600" y="1513" text-anchor="middle" fill="#1E293B" font-size="9">发送验证码邮件</text>
<rect x="695" y="1253" width="130" height="32" rx="4" fill="#fff" stroke="#475569" stroke-width="1.4"/><text x="760" y="1273" text-anchor="middle" fill="#1E293B" font-size="9">展示验证码页面</text>
<rect x="700" y="1133" width="120" height="32" rx="4" fill="#fff" stroke="#475569" stroke-width="1.4"/><text x="760" y="1153" text-anchor="middle" fill="#1E293B" font-size="9">输入6位验证码</text>
<rect x="845" y="1253" width="110" height="32" rx="4" fill="#fff" stroke="#475569" stroke-width="1.4"/><text x="900" y="1273" text-anchor="middle" fill="#1E293B" font-size="9">提交验证码</text>
<polygon points="900,1375 960,1399 900,1423 840,1399" fill="#FEF3C7" stroke="#D97706" stroke-width="1.4"/><text x="900" y="1403" text-anchor="middle" fill="#92400E" font-size="8" font-weight="600">验证码正确?</text>
<rect x="845" y="1441" width="110" height="26" rx="4" fill="#fff" stroke="#475569" stroke-width="1.4"/><text x="900" y="1458" text-anchor="middle" fill="#1E293B" font-size="9">提示验证码错误</text>
<polygon points="1060,1375 1115,1399 1060,1423 1005,1399" fill="#FEF3C7" stroke="#D97706" stroke-width="1.4"/><text x="1060" y="1403" text-anchor="middle" fill="#92400E" font-size="8" font-weight="600">是否过期?</text>
<rect x="1010" y="1441" width="100" height="26" rx="4" fill="#fff" stroke="#475569" stroke-width="1.4"/><text x="1060" y="1458" text-anchor="middle" fill="#1E293B" font-size="9">提示已过期</text>
<rect x="1135" y="1253" width="130" height="32" rx="4" fill="#fff" stroke="#475569" stroke-width="1.4"/><text x="1200" y="1273" text-anchor="middle" fill="#1E293B" font-size="9">展示重置密码页</text>
<rect x="1130" y="1133" width="140" height="32" rx="4" fill="#fff" stroke="#475569" stroke-width="1.4"/><text x="1200" y="1153" text-anchor="middle" fill="#1E293B" font-size="9">输入新密码(两次)</text>
<polygon points="1360,1245 1420,1269 1360,1293 1300,1269" fill="#FEF3C7" stroke="#D97706" stroke-width="1.4"/><text x="1360" y="1273" text-anchor="middle" fill="#92400E" font-size="8" font-weight="600">密码规则校验?</text>
<rect x="1310" y="1311" width="100" height="26" rx="4" fill="#fff" stroke="#475569" stroke-width="1.4"/><text x="1360" y="1328" text-anchor="middle" fill="#1E293B" font-size="9">提示格式错误</text>
<rect x="1445" y="1253" width="110" height="32" rx="4" fill="#fff" stroke="#475569" stroke-width="1.4"/><text x="1500" y="1273" text-anchor="middle" fill="#1E293B" font-size="9">提交新密码</text>
<polygon points="1500,1375 1565,1399 1500,1423 1435,1399" fill="#FEF3C7" stroke="#D97706" stroke-width="1.4"/><text x="1500" y="1403" text-anchor="middle" fill="#92400E" font-size="8" font-weight="600">与旧密码相同?</text>
<rect x="1445" y="1441" width="110" height="26" rx="4" fill="#fff" stroke="#475569" stroke-width="1.4"/><text x="1500" y="1458" text-anchor="middle" fill="#1E293B" font-size="9">提示不能相同</text>
<rect x="1585" y="1383" width="150" height="32" rx="4" fill="#fff" stroke="#475569" stroke-width="1.4"/><text x="1660" y="1403" text-anchor="middle" fill="#1E293B" font-size="9">更新密码失效Token</text>
<rect x="1600" y="1253" width="120" height="32" rx="4" fill="#fff" stroke="#475569" stroke-width="1.4"/><text x="1660" y="1273" text-anchor="middle" fill="#1E293B" font-size="9">提示重置成功</text>
<rect x="1765" y="1253" width="110" height="32" rx="4" fill="#fff" stroke="#475569" stroke-width="1.4"/><text x="1820" y="1273" text-anchor="middle" fill="#1E293B" font-size="9">跳转登录页</text>
<rect x="1775" y="1136" width="90" height="26" rx="15" fill="#fff" stroke="#10B981" stroke-width="1.5"/><text x="1820" y="1153" text-anchor="middle" fill="#10B981" font-size="10" font-weight="600">流程结束</text>
<rect x="115" y="1644" width="70" height="26" rx="15" fill="#fff" stroke="#10B981" stroke-width="1.5"/><text x="150" y="1661" text-anchor="middle" fill="#10B981" font-size="10" font-weight="600">开始</text>
<rect x="220" y="1641" width="120" height="32" rx="4" fill="#fff" stroke="#475569" stroke-width="1.4"/><text x="280" y="1661" text-anchor="middle" fill="#1E293B" font-size="9">点击 Sign Out</text>
<rect x="220" y="1761" width="120" height="32" rx="4" fill="#fff" stroke="#475569" stroke-width="1.4"/><text x="280" y="1781" text-anchor="middle" fill="#1E293B" font-size="9">弹出确认弹窗</text>
<polygon points="440,1753 495,1777 440,1801 385,1777" fill="#FEF3C7" stroke="#D97706" stroke-width="1.4"/><text x="440" y="1781" text-anchor="middle" fill="#92400E" font-size="8" font-weight="600">用户确认?</text>
<rect x="400" y="1819" width="80" height="26" rx="4" fill="#fff" stroke="#475569" stroke-width="1.4"/><text x="440" y="1836" text-anchor="middle" fill="#1E293B" font-size="9">关闭弹窗</text>
<rect x="540" y="1761" width="120" height="32" rx="4" fill="#fff" stroke="#475569" stroke-width="1.4"/><text x="600" y="1781" text-anchor="middle" fill="#1E293B" font-size="9">发送退出请求</text>
<rect x="530" y="1891" width="140" height="32" rx="4" fill="#fff" stroke="#475569" stroke-width="1.4"/><text x="600" y="1911" text-anchor="middle" fill="#1E293B" font-size="9">清除Session/Token</text>
<rect x="695" y="1761" width="130" height="32" rx="4" fill="#fff" stroke="#475569" stroke-width="1.4"/><text x="760" y="1781" text-anchor="middle" fill="#1E293B" font-size="9">清除本地Cookie</text>
<rect x="850" y="1761" width="100" height="32" rx="4" fill="#fff" stroke="#475569" stroke-width="1.4"/><text x="900" y="1781" text-anchor="middle" fill="#1E293B" font-size="9">跳转首页</text>
<rect x="855" y="1644" width="90" height="26" rx="15" fill="#fff" stroke="#10B981" stroke-width="1.5"/><text x="900" y="1661" text-anchor="middle" fill="#10B981" font-size="10" font-weight="600">退出完成</text>
<rect x="1090" y="1891" width="120" height="32" rx="4" fill="#fff" stroke="#475569" stroke-width="1.4"/><text x="1150" y="1911" text-anchor="middle" fill="#1E293B" font-size="9">接口返回401</text>
<rect x="1235" y="1761" width="130" height="32" rx="4" fill="#fff" stroke="#475569" stroke-width="1.4"/><text x="1300" y="1781" text-anchor="middle" fill="#1E293B" font-size="9">检测Token失效</text>
<rect x="1385" y="1761" width="130" height="32" rx="4" fill="#fff" stroke="#475569" stroke-width="1.4"/><text x="1450" y="1781" text-anchor="middle" fill="#1E293B" font-size="9">清除本地Token</text>
<rect x="1525" y="1761" width="150" height="32" rx="4" fill="#fff" stroke="#475569" stroke-width="1.4"/><text x="1600" y="1781" text-anchor="middle" fill="#1E293B" font-size="9">跳转首页+提示过期</text>
<rect x="1545" y="1644" width="110" height="26" rx="15" fill="#fff" stroke="#EF4444" stroke-width="1.5"/><text x="1600" y="1661" text-anchor="middle" fill="#EF4444" font-size="10" font-weight="600">被动退出完成</text>
<line x1="1030" y1="1602" x2="1030" y2="2062" stroke="#CBD5E1" stroke-width="1" stroke-dasharray="8,4"/>
<text x="550" y="1594" text-anchor="middle" fill="#94A3B8" font-size="8">主动退出</text>
<text x="1350" y="1594" text-anchor="middle" fill="#94A3B8" font-size="8">会话失效（被动退出）</text>
<text x="30" y="2103" fill="#1E293B" font-size="12" font-weight="600">图例：</text>
<rect x="90" y="2090" width="50" height="20" rx="10" fill="#fff" stroke="#64748B" stroke-width="1.2"/>
<text x="115" y="2104" text-anchor="middle" fill="#64748B" font-size="8">开始/结束</text>
<rect x="160" y="2090" width="50" height="20" rx="3" fill="#fff" stroke="#475569" stroke-width="1.2"/>
<text x="185" y="2104" text-anchor="middle" fill="#475569" font-size="8">操作步骤</text>
<polygon points="250,2090 275,2100 250,2110 225,2100" fill="#FEF3C7" stroke="#D97706" stroke-width="1.2"/>
<text x="250" y="2104" text-anchor="middle" fill="#92400E" font-size="7">判断</text>
<line x1="300" y1="2100" x2="355" y2="2100" stroke="#475569" stroke-width="1.3" marker-end="url(#arr)"/>
<text x="328" y="2095" text-anchor="middle" fill="#475569" font-size="8">正常流向</text>
<line x1="375" y1="2100" x2="430" y2="2100" stroke="#DC2626" stroke-width="1.2" stroke-dasharray="5,3" marker-end="url(#arr-r)"/>
<text x="403" y="2095" text-anchor="middle" fill="#DC2626" font-size="8">异常/回退</text>
<rect x="460" y="2092" width="12" height="12" rx="2" fill="#10B981" opacity="0.3"/>
<text x="478" y="2103" fill="#059669" font-size="9">用户</text>
<rect x="530" y="2092" width="12" height="12" rx="2" fill="#4A6CF7" opacity="0.3"/>
<text x="548" y="2103" fill="#3B5BDB" font-size="9">前端</text>
<rect x="600" y="2092" width="12" height="12" rx="2" fill="#F59E0B" opacity="0.3"/>
<text x="618" y="2103" fill="#B45309" font-size="9">后端</text>
<rect x="670" y="2092" width="12" height="12" rx="2" fill="#EF4444" opacity="0.3"/>
<text x="688" y="2103" fill="#DC2626" font-size="9">外部服务</text>
</svg>