<svg xmlns="http://www.w3.org/2000/svg" viewBox="0 0 1200 1334">
<!-- STRUCTURED DATA
module: 商品系统
version: v1.0
title: looply 商品系统产品架构图 v1.0
layers:
  - name: 用户层
    type: user
    - group: C端
      - 商品搜索与筛选
      - 商品详情
      - 商品列表
    - group: 商家端
      - 商品发布与编辑
      - 商品数据查看
      - 批量操作
    - group: 运营端
      - 商品审核
      - 质检管理
      - 上下架管控
  - name: 商品销售层
    type: core
    - sub: 渠道分发
      - group: 渠道管理
        - 线上商城
        - 线下门店
        - 三方平台(亚马逊等)
      - group: 选货管理
        - 选货规则配置
        - 自动/人工选货
      - group: 渠道商品控制
        - 按国家/渠道上下架
        - 按国家/渠道可见
        - 售出全渠道自动下架
      - group: 渠道定价
        - 渠道加价/折扣规则
        - 渠道价格覆盖
        - 国家币种定价
    - sub: 库存
      - group: 库存管理
        - SKU库存数量管理(一物一码数量=1)
        - 安全库存/预警
        - 库存扣减与释放
      - group: 渠道库存
        - 渠道库存分配
        - 多渠道占用与释放
  - name: 商品实物层
    type: core
    - sub: 商品管理
      - group: 商品信息
        - 关联标品SKU
        - 一物一码单品(数量=1)
        - 深库存商品(数量≥1)
        - 商家定价与图片
      - group: 商品发布与状态
        - 商品发布/编辑流程
        - 审核机制
        - 上架/下架控制
        - 商品状态流转
    - sub: 质检能力
      - group: 质检标准管理
        - 按品类定义质检模板
        - 质检维度(外观/功能/拆修等)
        - 维度选项与评分规则
      - group: 质检等级
        - 等级定义与命名
        - 等级判定规则(维度→等级)
      - group: 质检执行
        - 单品质检记录
        - 质检图片/视频
        - 质检结果绑定商品
  - name: 标准数据层
    type: core
    - group: 基础数据
      - 品类管理
      - 品牌管理
      - 系列管理
    - group: 属性体系
      - 属性模板管理
      - 关键属性定义
      - 销售属性定义
      - 描述属性定义
    - group: 标品(SPU)管理
      - SPU创建与维护
      - 标品参数维护
      - 标品图片库
    - group: 标品SKU
      - 销售属性组合→SKU矩阵
      - 标品规格参数
      - 官方参考价/条形码
    - group: 数据接入
      - 人工录入
      - 外部数据导入
      - 数据清洗与去重
  - name: 外围系统
    type: infra
    items: [图片/视频存储服务, 翻译服务, 汇率服务]
-->
<defs>
  <filter id="shadow" x="-4%" y="-4%" width="108%" height="116%">
    <feDropShadow dx="0" dy="1" stdDeviation="3" flood-color="#000" flood-opacity="0.06"/>
  </filter>
</defs>
<style>
  text { font-family: "PingFang SC","Microsoft YaHei","Helvetica Neue",Arial,sans-serif; }
</style>
<rect width="1200" height="1334" fill="#F9FAFB"/>
<rect x="40" y="40" width="1120" height="44" rx="8" fill="#1E1F2E"/>
<text x="600.0" y="68" text-anchor="middle" font-size="16" font-weight="700" fill="#FFFFFF" letter-spacing="2">looply 商品系统产品架构图 v1.0</text>
<rect x="40" y="106" width="1120" height="198" rx="8" fill="#FFFFFF" stroke="#E5E7EB" stroke-width="1.5"/>
<rect x="40" y="106" width="4" height="198" rx="2" fill="#10B981"/>
<text x="60" y="130" font-size="14" font-weight="700" fill="#10B981" letter-spacing="2">用户层</text>
<text x="235.33333333333334" y="172" text-anchor="middle" font-size="13" font-weight="600" fill="#059669">C端</text>
<rect x="60.0" y="184" width="350.6666666666667" height="104" rx="6" fill="#ECFDF5" stroke="#6EE7B7" stroke-width="1" stroke-dasharray="6,3"/>
<rect x="68.0" y="192" width="334.6666666666667" height="26" rx="4" fill="#fff" stroke="#6EE7B7" stroke-width="1"/>
<text x="235.33333333333334" y="209" text-anchor="middle" font-size="12" fill="#047857">商品搜索与筛选</text>
<rect x="68.0" y="223" width="334.6666666666667" height="26" rx="4" fill="#fff" stroke="#6EE7B7" stroke-width="1"/>
<text x="235.33333333333334" y="240" text-anchor="middle" font-size="12" fill="#047857">商品详情</text>
<rect x="68.0" y="254" width="334.6666666666667" height="26" rx="4" fill="#fff" stroke="#6EE7B7" stroke-width="1"/>
<text x="235.33333333333334" y="271" text-anchor="middle" font-size="12" fill="#047857">商品列表</text>
<text x="600.0" y="172" text-anchor="middle" font-size="13" font-weight="600" fill="#059669">商家端</text>
<rect x="424.6666666666667" y="184" width="350.6666666666667" height="104" rx="6" fill="#ECFDF5" stroke="#6EE7B7" stroke-width="1"/>
<rect x="432.6666666666667" y="192" width="334.6666666666667" height="26" rx="4" fill="#fff" stroke="#6EE7B7" stroke-width="1"/>
<text x="600.0" y="209" text-anchor="middle" font-size="12" fill="#047857">商品发布与编辑</text>
<rect x="432.6666666666667" y="223" width="334.6666666666667" height="26" rx="4" fill="#fff" stroke="#6EE7B7" stroke-width="1"/>
<text x="600.0" y="240" text-anchor="middle" font-size="12" fill="#047857">商品数据查看</text>
<rect x="432.6666666666667" y="254" width="334.6666666666667" height="26" rx="4" fill="#fff" stroke="#6EE7B7" stroke-width="1"/>
<text x="600.0" y="271" text-anchor="middle" font-size="12" fill="#047857">批量操作</text>
<text x="964.6666666666667" y="172" text-anchor="middle" font-size="13" font-weight="600" fill="#059669">运营端</text>
<rect x="789.3333333333334" y="184" width="350.6666666666667" height="104" rx="6" fill="#ECFDF5" stroke="#6EE7B7" stroke-width="1"/>
<rect x="797.3333333333334" y="192" width="334.6666666666667" height="26" rx="4" fill="#fff" stroke="#6EE7B7" stroke-width="1"/>
<text x="964.6666666666667" y="209" text-anchor="middle" font-size="12" fill="#047857">商品审核</text>
<rect x="797.3333333333334" y="223" width="334.6666666666667" height="26" rx="4" fill="#fff" stroke="#6EE7B7" stroke-width="1"/>
<text x="964.6666666666667" y="240" text-anchor="middle" font-size="12" fill="#047857">质检管理</text>
<rect x="797.3333333333334" y="254" width="334.6666666666667" height="26" rx="4" fill="#fff" stroke="#6EE7B7" stroke-width="1"/>
<text x="964.6666666666667" y="271" text-anchor="middle" font-size="12" fill="#047857">上下架管控</text>
<rect x="40" y="324" width="1120" height="252" rx="8" fill="#FFFFFF" stroke="#E5E7EB" stroke-width="1.5"/>
<rect x="40" y="324" width="4" height="252" rx="2" fill="#4A6CF7"/>
<text x="60" y="348" font-size="14" font-weight="700" fill="#4A6CF7" letter-spacing="2">商品销售层</text>
<rect x="60" y="376" width="533.0" height="184" rx="6" fill="#FFFFFF" stroke="#E5E7EB" stroke-width="1"/>
<text x="326.5" y="396" text-anchor="middle" font-size="13" font-weight="600" fill="#4A6CF7">渠道分发</text>
<rect x="70.0" y="422" width="122.25" height="122" rx="6" fill="#EFF6FF" stroke="#60A5FA" stroke-width="1"/>
<text x="131.125" y="437" text-anchor="middle" font-size="11" font-weight="600" fill="#2563EB">渠道管理</text>
<rect x="78.0" y="448" width="106.25" height="26" rx="4" fill="#fff" stroke="#60A5FA" stroke-width="1"/>
<text x="131.125" y="465" text-anchor="middle" font-size="10" fill="#1D4ED8">线上商城</text>
<rect x="78.0" y="479" width="106.25" height="26" rx="4" fill="#fff" stroke="#60A5FA" stroke-width="1"/>
<text x="131.125" y="496" text-anchor="middle" font-size="10" fill="#1D4ED8">线下门店</text>
<rect x="78.0" y="510" width="106.25" height="26" rx="4" fill="#fff" stroke="#60A5FA" stroke-width="1"/>
<text x="131.125" y="527" text-anchor="middle" font-size="10" fill="#1D4ED8">三方平台(亚马逊等)</text>
<rect x="200.25" y="422" width="122.25" height="122" rx="6" fill="#EFF6FF" stroke="#60A5FA" stroke-width="1"/>
<text x="261.375" y="437" text-anchor="middle" font-size="11" font-weight="600" fill="#2563EB">选货管理</text>
<rect x="208.25" y="448" width="106.25" height="26" rx="4" fill="#fff" stroke="#60A5FA" stroke-width="1"/>
<text x="261.375" y="465" text-anchor="middle" font-size="10" fill="#1D4ED8">选货规则配置</text>
<rect x="208.25" y="479" width="106.25" height="26" rx="4" fill="#fff" stroke="#60A5FA" stroke-width="1"/>
<text x="261.375" y="496" text-anchor="middle" font-size="10" fill="#1D4ED8">自动/人工选货</text>
<rect x="330.5" y="422" width="122.25" height="122" rx="6" fill="#EFF6FF" stroke="#60A5FA" stroke-width="1"/>
<text x="391.625" y="437" text-anchor="middle" font-size="11" font-weight="600" fill="#2563EB">渠道商品控制</text>
<rect x="338.5" y="448" width="106.25" height="26" rx="4" fill="#fff" stroke="#60A5FA" stroke-width="1"/>
<text x="391.625" y="465" text-anchor="middle" font-size="10" fill="#1D4ED8">按国家/渠道上下架</text>
<rect x="338.5" y="479" width="106.25" height="26" rx="4" fill="#fff" stroke="#60A5FA" stroke-width="1"/>
<text x="391.625" y="496" text-anchor="middle" font-size="10" fill="#1D4ED8">按国家/渠道可见</text>
<rect x="338.5" y="510" width="106.25" height="26" rx="4" fill="#fff" stroke="#60A5FA" stroke-width="1"/>
<text x="391.625" y="527" text-anchor="middle" font-size="10" fill="#1D4ED8">售出全渠道自动下架</text>
<rect x="460.75" y="422" width="122.25" height="122" rx="6" fill="#EFF6FF" stroke="#60A5FA" stroke-width="1"/>
<text x="521.875" y="437" text-anchor="middle" font-size="11" font-weight="600" fill="#2563EB">渠道定价</text>
<rect x="468.75" y="448" width="106.25" height="26" rx="4" fill="#fff" stroke="#60A5FA" stroke-width="1"/>
<text x="521.875" y="465" text-anchor="middle" font-size="10" fill="#1D4ED8">渠道加价/折扣规则</text>
<rect x="468.75" y="479" width="106.25" height="26" rx="4" fill="#fff" stroke="#60A5FA" stroke-width="1"/>
<text x="521.875" y="496" text-anchor="middle" font-size="10" fill="#1D4ED8">渠道价格覆盖</text>
<rect x="468.75" y="510" width="106.25" height="26" rx="4" fill="#fff" stroke="#60A5FA" stroke-width="1"/>
<text x="521.875" y="527" text-anchor="middle" font-size="10" fill="#1D4ED8">国家币种定价</text>
<rect x="607.0" y="376" width="533.0" height="184" rx="6" fill="#FFFFFF" stroke="#E5E7EB" stroke-width="1"/>
<text x="873.5" y="396" text-anchor="middle" font-size="13" font-weight="600" fill="#4A6CF7">库存</text>
<rect x="617.0" y="422" width="252.5" height="122" rx="6" fill="#EFF6FF" stroke="#60A5FA" stroke-width="1"/>
<text x="743.25" y="437" text-anchor="middle" font-size="11" font-weight="600" fill="#2563EB">库存管理</text>
<rect x="625.0" y="448" width="236.5" height="26" rx="4" fill="#fff" stroke="#60A5FA" stroke-width="1"/>
<text x="743.25" y="465" text-anchor="middle" font-size="10" fill="#1D4ED8">SKU库存数量管理(一物一码数量=1)</text>
<rect x="625.0" y="479" width="236.5" height="26" rx="4" fill="#fff" stroke="#60A5FA" stroke-width="1"/>
<text x="743.25" y="496" text-anchor="middle" font-size="10" fill="#1D4ED8">安全库存/预警</text>
<rect x="625.0" y="510" width="236.5" height="26" rx="4" fill="#fff" stroke="#60A5FA" stroke-width="1"/>
<text x="743.25" y="527" text-anchor="middle" font-size="10" fill="#1D4ED8">库存扣减与释放</text>
<rect x="877.5" y="422" width="252.5" height="122" rx="6" fill="#EFF6FF" stroke="#60A5FA" stroke-width="1"/>
<text x="1003.75" y="437" text-anchor="middle" font-size="11" font-weight="600" fill="#2563EB">渠道库存</text>
<rect x="885.5" y="448" width="236.5" height="26" rx="4" fill="#fff" stroke="#60A5FA" stroke-width="1"/>
<text x="1003.75" y="465" text-anchor="middle" font-size="10" fill="#1D4ED8">渠道库存分配</text>
<rect x="885.5" y="479" width="236.5" height="26" rx="4" fill="#fff" stroke="#60A5FA" stroke-width="1"/>
<text x="1003.75" y="496" text-anchor="middle" font-size="10" fill="#1D4ED8">多渠道占用与释放</text>
<rect x="40" y="596" width="1120" height="283" rx="8" fill="#FFFFFF" stroke="#E5E7EB" stroke-width="1.5"/>
<rect x="40" y="596" width="4" height="283" rx="2" fill="#4A6CF7"/>
<text x="60" y="620" font-size="14" font-weight="700" fill="#4A6CF7" letter-spacing="2">商品实物层</text>
<rect x="60" y="648" width="533.0" height="215" rx="6" fill="#FFFFFF" stroke="#E5E7EB" stroke-width="1"/>
<text x="326.5" y="668" text-anchor="middle" font-size="13" font-weight="600" fill="#4A6CF7">商品管理</text>
<rect x="70.0" y="694" width="252.5" height="153" rx="6" fill="#EFF6FF" stroke="#60A5FA" stroke-width="1"/>
<text x="196.25" y="709" text-anchor="middle" font-size="11" font-weight="600" fill="#2563EB">商品信息</text>
<rect x="78.0" y="720" width="236.5" height="26" rx="4" fill="#fff" stroke="#60A5FA" stroke-width="1"/>
<text x="196.25" y="737" text-anchor="middle" font-size="10" fill="#1D4ED8">关联标品SKU</text>
<rect x="78.0" y="751" width="236.5" height="26" rx="4" fill="#fff" stroke="#60A5FA" stroke-width="1"/>
<text x="196.25" y="768" text-anchor="middle" font-size="10" fill="#1D4ED8">一物一码单品(数量=1)</text>
<rect x="78.0" y="782" width="236.5" height="26" rx="4" fill="#fff" stroke="#60A5FA" stroke-width="1"/>
<text x="196.25" y="799" text-anchor="middle" font-size="10" fill="#1D4ED8">深库存商品(数量≥1)</text>
<rect x="78.0" y="813" width="236.5" height="26" rx="4" fill="#fff" stroke="#60A5FA" stroke-width="1"/>
<text x="196.25" y="830" text-anchor="middle" font-size="10" fill="#1D4ED8">商家定价与图片</text>
<rect x="330.5" y="694" width="252.5" height="153" rx="6" fill="#EFF6FF" stroke="#60A5FA" stroke-width="1"/>
<text x="456.75" y="709" text-anchor="middle" font-size="11" font-weight="600" fill="#2563EB">商品发布与状态</text>
<rect x="338.5" y="720" width="236.5" height="26" rx="4" fill="#fff" stroke="#60A5FA" stroke-width="1"/>
<text x="456.75" y="737" text-anchor="middle" font-size="10" fill="#1D4ED8">商品发布/编辑流程</text>
<rect x="338.5" y="751" width="236.5" height="26" rx="4" fill="#fff" stroke="#60A5FA" stroke-width="1"/>
<text x="456.75" y="768" text-anchor="middle" font-size="10" fill="#1D4ED8">审核机制</text>
<rect x="338.5" y="782" width="236.5" height="26" rx="4" fill="#fff" stroke="#60A5FA" stroke-width="1"/>
<text x="456.75" y="799" text-anchor="middle" font-size="10" fill="#1D4ED8">上架/下架控制</text>
<rect x="338.5" y="813" width="236.5" height="26" rx="4" fill="#fff" stroke="#60A5FA" stroke-width="1"/>
<text x="456.75" y="830" text-anchor="middle" font-size="10" fill="#1D4ED8">商品状态流转</text>
<rect x="607.0" y="648" width="533.0" height="215" rx="6" fill="#FFFFFF" stroke="#E5E7EB" stroke-width="1"/>
<text x="873.5" y="668" text-anchor="middle" font-size="13" font-weight="600" fill="#4A6CF7">质检能力</text>
<rect x="617.0" y="694" width="165.66666666666666" height="122" rx="6" fill="#EFF6FF" stroke="#60A5FA" stroke-width="1"/>
<text x="699.8333333333334" y="709" text-anchor="middle" font-size="11" font-weight="600" fill="#2563EB">质检标准管理</text>
<rect x="625.0" y="720" width="149.66666666666666" height="26" rx="4" fill="#fff" stroke="#60A5FA" stroke-width="1"/>
<text x="699.8333333333334" y="737" text-anchor="middle" font-size="10" fill="#1D4ED8">按品类定义质检模板</text>
<rect x="625.0" y="751" width="149.66666666666666" height="26" rx="4" fill="#fff" stroke="#60A5FA" stroke-width="1"/>
<text x="699.8333333333334" y="768" text-anchor="middle" font-size="10" fill="#1D4ED8">质检维度(外观/功能/拆修等)</text>
<rect x="625.0" y="782" width="149.66666666666666" height="26" rx="4" fill="#fff" stroke="#60A5FA" stroke-width="1"/>
<text x="699.8333333333334" y="799" text-anchor="middle" font-size="10" fill="#1D4ED8">维度选项与评分规则</text>
<rect x="790.6666666666666" y="694" width="165.66666666666666" height="122" rx="6" fill="#EFF6FF" stroke="#60A5FA" stroke-width="1"/>
<text x="873.5" y="709" text-anchor="middle" font-size="11" font-weight="600" fill="#2563EB">质检等级</text>
<rect x="798.6666666666666" y="720" width="149.66666666666666" height="26" rx="4" fill="#fff" stroke="#60A5FA" stroke-width="1"/>
<text x="873.5" y="737" text-anchor="middle" font-size="10" fill="#1D4ED8">等级定义与命名</text>
<rect x="798.6666666666666" y="751" width="149.66666666666666" height="26" rx="4" fill="#fff" stroke="#60A5FA" stroke-width="1"/>
<text x="873.5" y="768" text-anchor="middle" font-size="10" fill="#1D4ED8">等级判定规则(维度→等级)</text>
<rect x="964.3333333333333" y="694" width="165.66666666666666" height="122" rx="6" fill="#EFF6FF" stroke="#60A5FA" stroke-width="1"/>
<text x="1047.1666666666665" y="709" text-anchor="middle" font-size="11" font-weight="600" fill="#2563EB">质检执行</text>
<rect x="972.3333333333333" y="720" width="149.66666666666666" height="26" rx="4" fill="#fff" stroke="#60A5FA" stroke-width="1"/>
<text x="1047.1666666666665" y="737" text-anchor="middle" font-size="10" fill="#1D4ED8">单品质检记录</text>
<rect x="972.3333333333333" y="751" width="149.66666666666666" height="26" rx="4" fill="#fff" stroke="#60A5FA" stroke-width="1"/>
<text x="1047.1666666666665" y="768" text-anchor="middle" font-size="10" fill="#1D4ED8">质检图片/视频</text>
<rect x="972.3333333333333" y="782" width="149.66666666666666" height="26" rx="4" fill="#fff" stroke="#60A5FA" stroke-width="1"/>
<text x="1047.1666666666665" y="799" text-anchor="middle" font-size="10" fill="#1D4ED8">质检结果绑定商品</text>
<rect x="40" y="899" width="1120" height="231" rx="8" fill="#FFFFFF" stroke="#E5E7EB" stroke-width="1.5"/>
<rect x="40" y="899" width="4" height="231" rx="2" fill="#4A6CF7"/>
<text x="60" y="923" font-size="14" font-weight="700" fill="#4A6CF7" letter-spacing="2">标准数据层</text>
<rect x="60.0" y="951" width="208.0" height="163" rx="6" fill="#EFF6FF" stroke="#60A5FA" stroke-width="1"/>
<text x="164.0" y="967" text-anchor="middle" font-size="12" font-weight="600" fill="#2563EB">基础数据</text>
<rect x="68.0" y="979" width="192.0" height="26" rx="4" fill="#fff" stroke="#60A5FA" stroke-width="1"/>
<text x="164.0" y="996" text-anchor="middle" font-size="11" fill="#1D4ED8">品类管理</text>
<rect x="68.0" y="1010" width="192.0" height="26" rx="4" fill="#fff" stroke="#60A5FA" stroke-width="1"/>
<text x="164.0" y="1027" text-anchor="middle" font-size="11" fill="#1D4ED8">品牌管理</text>
<rect x="68.0" y="1041" width="192.0" height="26" rx="4" fill="#fff" stroke="#60A5FA" stroke-width="1"/>
<text x="164.0" y="1058" text-anchor="middle" font-size="11" fill="#1D4ED8">系列管理</text>
<rect x="278.0" y="951" width="208.0" height="163" rx="6" fill="#EFF6FF" stroke="#60A5FA" stroke-width="1"/>
<text x="382.0" y="967" text-anchor="middle" font-size="12" font-weight="600" fill="#2563EB">属性体系</text>
<rect x="286.0" y="979" width="192.0" height="26" rx="4" fill="#fff" stroke="#60A5FA" stroke-width="1"/>
<text x="382.0" y="996" text-anchor="middle" font-size="11" fill="#1D4ED8">属性模板管理</text>
<rect x="286.0" y="1010" width="192.0" height="26" rx="4" fill="#fff" stroke="#60A5FA" stroke-width="1"/>
<text x="382.0" y="1027" text-anchor="middle" font-size="11" fill="#1D4ED8">关键属性定义</text>
<rect x="286.0" y="1041" width="192.0" height="26" rx="4" fill="#fff" stroke="#60A5FA" stroke-width="1"/>
<text x="382.0" y="1058" text-anchor="middle" font-size="11" fill="#1D4ED8">销售属性定义</text>
<rect x="286.0" y="1072" width="192.0" height="26" rx="4" fill="#fff" stroke="#60A5FA" stroke-width="1"/>
<text x="382.0" y="1089" text-anchor="middle" font-size="11" fill="#1D4ED8">描述属性定义</text>
<rect x="496.0" y="951" width="208.0" height="163" rx="6" fill="#EFF6FF" stroke="#60A5FA" stroke-width="1"/>
<text x="600.0" y="967" text-anchor="middle" font-size="12" font-weight="600" fill="#2563EB">标品(SPU)管理</text>
<rect x="504.0" y="979" width="192.0" height="26" rx="4" fill="#fff" stroke="#60A5FA" stroke-width="1"/>
<text x="600.0" y="996" text-anchor="middle" font-size="11" fill="#1D4ED8">SPU创建与维护</text>
<rect x="504.0" y="1010" width="192.0" height="26" rx="4" fill="#fff" stroke="#60A5FA" stroke-width="1"/>
<text x="600.0" y="1027" text-anchor="middle" font-size="11" fill="#1D4ED8">标品参数维护</text>
<rect x="504.0" y="1041" width="192.0" height="26" rx="4" fill="#fff" stroke="#60A5FA" stroke-width="1"/>
<text x="600.0" y="1058" text-anchor="middle" font-size="11" fill="#1D4ED8">标品图片库</text>
<rect x="714.0" y="951" width="208.0" height="163" rx="6" fill="#EFF6FF" stroke="#60A5FA" stroke-width="1"/>
<text x="818.0" y="967" text-anchor="middle" font-size="12" font-weight="600" fill="#2563EB">标品SKU</text>
<rect x="722.0" y="979" width="192.0" height="26" rx="4" fill="#fff" stroke="#60A5FA" stroke-width="1"/>
<text x="818.0" y="996" text-anchor="middle" font-size="11" fill="#1D4ED8">销售属性组合→SKU矩阵</text>
<rect x="722.0" y="1010" width="192.0" height="26" rx="4" fill="#fff" stroke="#60A5FA" stroke-width="1"/>
<text x="818.0" y="1027" text-anchor="middle" font-size="11" fill="#1D4ED8">标品规格参数</text>
<rect x="722.0" y="1041" width="192.0" height="26" rx="4" fill="#fff" stroke="#60A5FA" stroke-width="1"/>
<text x="818.0" y="1058" text-anchor="middle" font-size="11" fill="#1D4ED8">官方参考价/条形码</text>
<rect x="932.0" y="951" width="208.0" height="163" rx="6" fill="#EFF6FF" stroke="#60A5FA" stroke-width="1"/>
<text x="1036.0" y="967" text-anchor="middle" font-size="12" font-weight="600" fill="#2563EB">数据接入</text>
<rect x="940.0" y="979" width="192.0" height="26" rx="4" fill="#fff" stroke="#60A5FA" stroke-width="1"/>
<text x="1036.0" y="996" text-anchor="middle" font-size="11" fill="#1D4ED8">人工录入</text>
<rect x="940.0" y="1010" width="192.0" height="26" rx="4" fill="#fff" stroke="#60A5FA" stroke-width="1"/>
<text x="1036.0" y="1027" text-anchor="middle" font-size="11" fill="#1D4ED8">外部数据导入</text>
<rect x="940.0" y="1041" width="192.0" height="26" rx="4" fill="#fff" stroke="#60A5FA" stroke-width="1"/>
<text x="1036.0" y="1058" text-anchor="middle" font-size="11" fill="#1D4ED8">数据清洗与去重</text>
<rect x="40" y="1150" width="1120" height="104" rx="8" fill="#FFFFFF" stroke="#E5E7EB" stroke-width="1.5"/>
<rect x="40" y="1150" width="4" height="104" rx="2" fill="#F59E0B"/>
<text x="60" y="1174" font-size="14" font-weight="700" fill="#F59E0B" letter-spacing="2">外围系统</text>
<rect x="60.0" y="1202" width="350.6666666666667" height="36" rx="6" fill="#FFFBEB" stroke="#F59E0B" stroke-width="1" filter="url(#shadow)"/>
<text x="235.33333333333334" y="1225" text-anchor="middle" font-size="13" font-weight="600" fill="#B45309">图片/视频存储服务</text>
<rect x="424.6666666666667" y="1202" width="350.6666666666667" height="36" rx="6" fill="#FFFBEB" stroke="#F59E0B" stroke-width="1" filter="url(#shadow)"/>
<text x="600.0" y="1225" text-anchor="middle" font-size="13" font-weight="600" fill="#B45309">翻译服务</text>
<rect x="789.3333333333334" y="1202" width="350.6666666666667" height="36" rx="6" fill="#FFFBEB" stroke="#F59E0B" stroke-width="1" filter="url(#shadow)"/>
<text x="964.6666666666667" y="1225" text-anchor="middle" font-size="13" font-weight="600" fill="#B45309">汇率服务</text>
<text x="1160" y="1274" text-anchor="end" font-size="11" fill="#9CA3AF">v1.0 | 2026-04-09</text>
</svg>