<svg xmlns="http://www.w3.org/2000/svg" width="1320" height="1976" viewBox="0 0 1320 1976" font-family="'PingFang SC','Microsoft YaHei','Helvetica Neue',Arial,sans-serif">
<metadata>
<![CDATA[
# Looply · 首页 Feed 推荐流程图 v1.0 · 2026-06-17
# 研发编码参考数据，从 SVG <metadata> 提取

swimlanes:
  - key: "A"
    name: "客户端"
  - key: "B"
    name: "首页/Feed服务"
  - key: "C"
    name: "推荐服务"
  - key: "D"
    name: "商品系统"

sections:
  - name: "① For You 推荐请求（已登录）"
    steps:
      - type: start_end
        text: "用户打开首页 / 切换 For You Tab / 下拉加载更多"
      - type: process
        lane: "A"
        text: "发起 Feed 请求
(user_key + market_id + channel_id
+ session_id + page_token)"
      - type: cross_lane
        from: "A"
        to: "B"
        text: "路由到 Feed 服务"
      - type: decision
        lane: "B"
        text: "user_key 存在?"
        on_no: "降级至流程②"
        yes_label: "是"
        no_label: "否"
      - type: cross_lane
        from: "B"
        to: "C"
        text: "触发四通路并行召回
(A1 Session兴趣 + A2 24h兴趣
+ B New Arrivals + C Best Sellers)"
      - type: process
        lane: "C"
        text: "并行执行（仅查在售 listing）：
A1 当前Session兴趣相似召回
A2 24h兴趣相似召回
B New Arrivals 召回
C Best Sellers 召回"
      - type: cross_lane
        from: "C"
        to: "D"
        text: "按 on_shelf 过滤查询商品库"
      - type: cross_lane
        from: "D"
        to: "C"
        text: "返回在售候选商品池"
      - type: cross_lane
        from: "C"
        to: "B"
        text: "返回候选商品池"
      - type: process
        lane: "B"
        text: "候选池合并去重
（排除已展示 listing）"
      - type: process
        lane: "B"
        text: "频控过滤
（24h 曝光上限）"
      - type: process
        lane: "B"
        text: "间隔去重 + 多样性打散"
      - type: process
        lane: "B"
        text: "配额混排
（A1:A2:B:C = 按配置比例）"
      - type: process
        lane: "B"
        text: "组装响应（20条 + next_page_token）"
      - type: cross_lane
        from: "B"
        to: "A"
        text: "返回 Feed 数据"
      - type: process
        lane: "A"
        text: "渲染商品卡"
      - type: cross_lane
        from: "A"
        to: "B"
        text: "上报曝光埋点
(listing_id + user_key + market_id)"
      - type: process
        lane: "B"
        text: "写入 feed_exposure 记录"
      - type: start_end
        text: "完成"
  - name: "② 未登录降级流程"
    steps:
      - type: start_end
        text: "用户未登录打开首页 For You Tab"
      - type: process
        lane: "A"
        text: "发起 Feed 请求
(device_key 替代 user_key，无登录态)"
      - type: cross_lane
        from: "A"
        to: "B"
        text: "路由到 Feed 服务"
      - type: decision
        lane: "B"
        text: "user_key 存在?"
        on_no: "跳过 A1/A2 通路"
        yes_label: "是"
        no_label: "否"
      - type: process
        lane: "B"
        text: "仅执行 B+C 通路
(New Arrivals + Best Sellers，仅查在售 listing)"
      - type: process
        lane: "B"
        text: "混排"
      - type: cross_lane
        from: "B"
        to: "A"
        text: "返回 20 条 listing"
      - type: process
        lane: "A"
        text: "渲染商品卡（无个性化标记）"
      - type: start_end
        text: "完成"
  - name: "③ A1/A2 召回为空降级"
    steps:
      - type: start_end
        text: "A1/A2 通路召回执行"
      - type: decision
        lane: "C"
        text: "A1 + A2 召回结果为空?"
        on_no: "正常继续混排"
        yes_label: "是"
        no_label: "否"
      - type: process
        lane: "C"
        text: "降级：A1/A2 配额转给 B+C 兜底"
      - type: cross_lane
        from: "C"
        to: "B"
        text: "通知 Feed 服务降级策略"
      - type: process
        lane: "B"
        text: "按 B:C 比例补足配额"
      - type: start_end
        text: "完成（降级为 New Arrivals + Best Sellers 混排）"
]]>
</metadata>
<defs>
<marker id="arr" viewBox="0 0 10 10" refX="10" refY="5" markerWidth="7" markerHeight="7" orient="auto-start-reverse"><path d="M0 0L10 5L0 10z" fill="#475569"/></marker>
<marker id="arr-r" viewBox="0 0 10 10" refX="10" refY="5" markerWidth="7" markerHeight="7" orient="auto-start-reverse"><path d="M0 0L10 5L0 10z" fill="#DC2626"/></marker>
</defs>
<rect width="1320" height="1976" fill="#F8FAFC"/>
<rect width="1320" height="46" fill="#1E1F2E"/>
<text x="660" y="30" text-anchor="middle" fill="#fff" font-size="17" font-weight="600">Looply · 首页 Feed 推荐流程图</text>
<text x="1290" y="30" text-anchor="end" fill="rgba(255,255,255,0.5)" font-size="10">v1.0 · 2026-06-17</text>
<rect x="40" y="46" width="320" height="24" fill="#4A6CF7" opacity="0.85"/>
<text x="200" y="63" text-anchor="middle" fill="#fff" font-size="11" font-weight="600">客户端</text>
<rect x="360" y="46" width="320" height="24" fill="#10B981" opacity="0.85"/>
<text x="520" y="63" text-anchor="middle" fill="#fff" font-size="11" font-weight="600">首页/Feed服务</text>
<rect x="680" y="46" width="320" height="24" fill="#F59E0B" opacity="0.85"/>
<text x="840" y="63" text-anchor="middle" fill="#fff" font-size="11" font-weight="600">推荐服务</text>
<rect x="1000" y="46" width="320" height="24" fill="#EF4444" opacity="0.85"/>
<text x="1160" y="63" text-anchor="middle" fill="#fff" font-size="11" font-weight="600">商品系统</text>
<rect x="40" y="46" width="320" height="1000" fill="rgba(74,108,247,0.04)"/>
<rect x="360" y="46" width="320" height="1000" fill="rgba(16,185,129,0.04)"/>
<line x1="360" y1="46" x2="360" y2="1046" stroke="#E2E8F0" stroke-width="0.7"/>
<rect x="680" y="46" width="320" height="1000" fill="rgba(245,158,11,0.04)"/>
<line x1="680" y1="46" x2="680" y2="1046" stroke="#E2E8F0" stroke-width="0.7"/>
<rect x="1000" y="46" width="320" height="1000" fill="rgba(239,68,68,0.04)"/>
<line x1="1000" y1="46" x2="1000" y2="1046" stroke="#E2E8F0" stroke-width="0.7"/>
<line x1="0" y1="1046" x2="1320" y2="1046" stroke="#E2E8F0" stroke-width="0.8"/>
<rect x="0" y="46" width="40" height="1000" fill="#DBEAFE" rx="0"/>
<text x="20" y="452" text-anchor="middle" fill="#1E40AF" font-size="13" font-weight="700">①</text>
<text x="20" y="470" text-anchor="middle" fill="#1E40AF" font-size="13" font-weight="700">For</text>
<text x="20" y="488" text-anchor="middle" fill="#1E40AF" font-size="13" font-weight="700">You</text>
<text x="20" y="506" text-anchor="middle" fill="#1E40AF" font-size="13" font-weight="700">推</text>
<text x="20" y="524" text-anchor="middle" fill="#1E40AF" font-size="13" font-weight="700">荐</text>
<text x="20" y="542" text-anchor="middle" fill="#1E40AF" font-size="13" font-weight="700">请</text>
<text x="20" y="560" text-anchor="middle" fill="#1E40AF" font-size="13" font-weight="700">求</text>
<text x="20" y="578" text-anchor="middle" fill="#1E40AF" font-size="13" font-weight="700">（</text>
<text x="20" y="596" text-anchor="middle" fill="#1E40AF" font-size="13" font-weight="700">已</text>
<text x="20" y="614" text-anchor="middle" fill="#1E40AF" font-size="13" font-weight="700">登</text>
<text x="20" y="632" text-anchor="middle" fill="#1E40AF" font-size="13" font-weight="700">录</text>
<text x="20" y="650" text-anchor="middle" fill="#1E40AF" font-size="13" font-weight="700">）</text>
<rect x="40" y="1054" width="320" height="24" fill="#4A6CF7" opacity="0.85"/>
<text x="200" y="1071" text-anchor="middle" fill="#fff" font-size="11" font-weight="600">客户端</text>
<rect x="360" y="1054" width="320" height="24" fill="#10B981" opacity="0.85"/>
<text x="520" y="1071" text-anchor="middle" fill="#fff" font-size="11" font-weight="600">首页/Feed服务</text>
<rect x="680" y="1054" width="320" height="24" fill="#F59E0B" opacity="0.85"/>
<text x="840" y="1071" text-anchor="middle" fill="#fff" font-size="11" font-weight="600">推荐服务</text>
<rect x="1000" y="1054" width="320" height="24" fill="#EF4444" opacity="0.85"/>
<text x="1160" y="1071" text-anchor="middle" fill="#fff" font-size="11" font-weight="600">商品系统</text>
<rect x="40" y="1054" width="320" height="492" fill="rgba(74,108,247,0.04)"/>
<rect x="360" y="1054" width="320" height="492" fill="rgba(16,185,129,0.04)"/>
<line x1="360" y1="1054" x2="360" y2="1546" stroke="#E2E8F0" stroke-width="0.7"/>
<rect x="680" y="1054" width="320" height="492" fill="rgba(245,158,11,0.04)"/>
<line x1="680" y1="1054" x2="680" y2="1546" stroke="#E2E8F0" stroke-width="0.7"/>
<rect x="1000" y="1054" width="320" height="492" fill="rgba(239,68,68,0.04)"/>
<line x1="1000" y1="1054" x2="1000" y2="1546" stroke="#E2E8F0" stroke-width="0.7"/>
<line x1="0" y1="1546" x2="1320" y2="1546" stroke="#E2E8F0" stroke-width="0.8"/>
<rect x="0" y="1054" width="40" height="492" fill="#DBEAFE" rx="0"/>
<text x="20" y="1242" text-anchor="middle" fill="#1E40AF" font-size="13" font-weight="700">②</text>
<text x="20" y="1260" text-anchor="middle" fill="#1E40AF" font-size="13" font-weight="700">未</text>
<text x="20" y="1278" text-anchor="middle" fill="#1E40AF" font-size="13" font-weight="700">登</text>
<text x="20" y="1296" text-anchor="middle" fill="#1E40AF" font-size="13" font-weight="700">录</text>
<text x="20" y="1314" text-anchor="middle" fill="#1E40AF" font-size="13" font-weight="700">降</text>
<text x="20" y="1332" text-anchor="middle" fill="#1E40AF" font-size="13" font-weight="700">级</text>
<text x="20" y="1350" text-anchor="middle" fill="#1E40AF" font-size="13" font-weight="700">流</text>
<text x="20" y="1368" text-anchor="middle" fill="#1E40AF" font-size="13" font-weight="700">程</text>
<rect x="40" y="1554" width="320" height="24" fill="#4A6CF7" opacity="0.85"/>
<text x="200" y="1571" text-anchor="middle" fill="#fff" font-size="11" font-weight="600">客户端</text>
<rect x="360" y="1554" width="320" height="24" fill="#10B981" opacity="0.85"/>
<text x="520" y="1571" text-anchor="middle" fill="#fff" font-size="11" font-weight="600">首页/Feed服务</text>
<rect x="680" y="1554" width="320" height="24" fill="#F59E0B" opacity="0.85"/>
<text x="840" y="1571" text-anchor="middle" fill="#fff" font-size="11" font-weight="600">推荐服务</text>
<rect x="1000" y="1554" width="320" height="24" fill="#EF4444" opacity="0.85"/>
<text x="1160" y="1571" text-anchor="middle" fill="#fff" font-size="11" font-weight="600">商品系统</text>
<rect x="40" y="1554" width="320" height="344" fill="rgba(74,108,247,0.04)"/>
<rect x="360" y="1554" width="320" height="344" fill="rgba(16,185,129,0.04)"/>
<line x1="360" y1="1554" x2="360" y2="1898" stroke="#E2E8F0" stroke-width="0.7"/>
<rect x="680" y="1554" width="320" height="344" fill="rgba(245,158,11,0.04)"/>
<line x1="680" y1="1554" x2="680" y2="1898" stroke="#E2E8F0" stroke-width="0.7"/>
<rect x="1000" y="1554" width="320" height="344" fill="rgba(239,68,68,0.04)"/>
<line x1="1000" y1="1554" x2="1000" y2="1898" stroke="#E2E8F0" stroke-width="0.7"/>
<line x1="0" y1="1898" x2="1320" y2="1898" stroke="#E2E8F0" stroke-width="0.8"/>
<rect x="0" y="1554" width="40" height="344" fill="#DBEAFE" rx="0"/>
<text x="20" y="1650" text-anchor="middle" fill="#1E40AF" font-size="13" font-weight="700">③</text>
<text x="20" y="1668" text-anchor="middle" fill="#1E40AF" font-size="13" font-weight="700">A1</text>
<text x="20" y="1686" text-anchor="middle" fill="#1E40AF" font-size="13" font-weight="700">/</text>
<text x="20" y="1704" text-anchor="middle" fill="#1E40AF" font-size="13" font-weight="700">A2</text>
<text x="20" y="1722" text-anchor="middle" fill="#1E40AF" font-size="13" font-weight="700">召</text>
<text x="20" y="1740" text-anchor="middle" fill="#1E40AF" font-size="13" font-weight="700">回</text>
<text x="20" y="1758" text-anchor="middle" fill="#1E40AF" font-size="13" font-weight="700">为</text>
<text x="20" y="1776" text-anchor="middle" fill="#1E40AF" font-size="13" font-weight="700">空</text>
<text x="20" y="1794" text-anchor="middle" fill="#1E40AF" font-size="13" font-weight="700">降</text>
<text x="20" y="1812" text-anchor="middle" fill="#1E40AF" font-size="13" font-weight="700">级</text>
<line x1="200" y1="116" x2="200" y2="132" stroke="#475569" stroke-width="1.2" marker-end="url(#arr)"/>
<polyline points="200,164 200,200 440,200" fill="none" stroke="#475569" stroke-width="1.2" marker-end="url(#arr)"/>
<line x1="520" y1="216" x2="520" y2="235" stroke="#475569" stroke-width="1.2" marker-end="url(#arr)"/>
<line x1="585" y1="260" x2="596" y2="260" stroke="#DC2626" stroke-width="1.1" stroke-dasharray="5,3" marker-end="url(#arr-r)"/>
<text x="591" y="253" text-anchor="middle" fill="#DC2626" font-size="8">否</text>
<text x="532" y="298" text-anchor="middle" fill="#64748B" font-size="8">是</text>
<polyline points="520,285 520,318 760,318" fill="none" stroke="#475569" stroke-width="1.2" marker-end="url(#arr)"/>
<line x1="840" y1="334" x2="840" y2="354" stroke="#475569" stroke-width="1.2" marker-end="url(#arr)"/>
<polyline points="840,386 840,422 1080,422" fill="none" stroke="#475569" stroke-width="1.2" marker-end="url(#arr)"/>
<polyline points="1160,438 1160,474 920,474" fill="none" stroke="#475569" stroke-width="1.2" marker-end="url(#arr)"/>
<polyline points="840,490 840,526 600,526" fill="none" stroke="#475569" stroke-width="1.2" marker-end="url(#arr)"/>
<line x1="520" y1="542" x2="520" y2="562" stroke="#475569" stroke-width="1.2" marker-end="url(#arr)"/>
<line x1="520" y1="594" x2="520" y2="610" stroke="#475569" stroke-width="1.2" marker-end="url(#arr)"/>
<line x1="520" y1="642" x2="520" y2="658" stroke="#475569" stroke-width="1.2" marker-end="url(#arr)"/>
<line x1="520" y1="690" x2="520" y2="706" stroke="#475569" stroke-width="1.2" marker-end="url(#arr)"/>
<line x1="520" y1="738" x2="520" y2="754" stroke="#475569" stroke-width="1.2" marker-end="url(#arr)"/>
<polyline points="520,786 520,822 280,822" fill="none" stroke="#475569" stroke-width="1.2" marker-end="url(#arr)"/>
<line x1="200" y1="838" x2="200" y2="858" stroke="#475569" stroke-width="1.2" marker-end="url(#arr)"/>
<polyline points="200,890 200,926 440,926" fill="none" stroke="#475569" stroke-width="1.2" marker-end="url(#arr)"/>
<line x1="520" y1="942" x2="520" y2="962" stroke="#475569" stroke-width="1.2" marker-end="url(#arr)"/>
<line x1="520" y1="994" x2="520" y2="1013" stroke="#475569" stroke-width="1.2" marker-end="url(#arr)"/>
<line x1="200" y1="1124" x2="200" y2="1140" stroke="#475569" stroke-width="1.2" marker-end="url(#arr)"/>
<polyline points="200,1172 200,1208 440,1208" fill="none" stroke="#475569" stroke-width="1.2" marker-end="url(#arr)"/>
<line x1="520" y1="1224" x2="520" y2="1243" stroke="#475569" stroke-width="1.2" marker-end="url(#arr)"/>
<line x1="585" y1="1268" x2="596" y2="1268" stroke="#DC2626" stroke-width="1.1" stroke-dasharray="5,3" marker-end="url(#arr-r)"/>
<text x="591" y="1261" text-anchor="middle" fill="#DC2626" font-size="8">否</text>
<line x1="520" y1="1293" x2="520" y2="1310" stroke="#475569" stroke-width="1.2" marker-end="url(#arr)"/>
<text x="532" y="1306" text-anchor="middle" fill="#64748B" font-size="8">是</text>
<line x1="520" y1="1342" x2="520" y2="1358" stroke="#475569" stroke-width="1.2" marker-end="url(#arr)"/>
<polyline points="520,1390 520,1426 280,1426" fill="none" stroke="#475569" stroke-width="1.2" marker-end="url(#arr)"/>
<line x1="200" y1="1442" x2="200" y2="1462" stroke="#475569" stroke-width="1.2" marker-end="url(#arr)"/>
<line x1="200" y1="1494" x2="200" y2="1513" stroke="#475569" stroke-width="1.2" marker-end="url(#arr)"/>
<polyline points="200,1624 200,1668 775,1668" fill="none" stroke="#475569" stroke-width="1.2" marker-end="url(#arr)"/>
<line x1="905" y1="1668" x2="916" y2="1668" stroke="#DC2626" stroke-width="1.1" stroke-dasharray="5,3" marker-end="url(#arr-r)"/>
<text x="911" y="1661" text-anchor="middle" fill="#DC2626" font-size="8">否</text>
<line x1="840" y1="1693" x2="840" y2="1710" stroke="#475569" stroke-width="1.2" marker-end="url(#arr)"/>
<text x="852" y="1706" text-anchor="middle" fill="#64748B" font-size="8">是</text>
<polyline points="840,1742 840,1778 600,1778" fill="none" stroke="#475569" stroke-width="1.2" marker-end="url(#arr)"/>
<line x1="520" y1="1794" x2="520" y2="1814" stroke="#475569" stroke-width="1.2" marker-end="url(#arr)"/>
<line x1="520" y1="1846" x2="520" y2="1865" stroke="#475569" stroke-width="1.2" marker-end="url(#arr)"/>
<rect x="155" y="87" width="90" height="26" rx="15" fill="#fff" stroke="#4A6CF7" stroke-width="1.5"/><text x="200" y="104" text-anchor="middle" fill="#4A6CF7" font-size="10" font-weight="600">用户打开首页 / 切换 For You Tab / 下拉加载更多</text>
<rect x="100" y="132" width="200" height="32" rx="4" fill="#fff" stroke="#475569" stroke-width="1.4"/><text x="200" y="152" text-anchor="middle" fill="#1E293B" font-size="9.5">发起 Feed 请求
(user_key + market_id + channel_id
+ session_id + page_token)</text>
<rect x="440" y="184" width="160" height="32" rx="4" fill="#fff" stroke="#475569" stroke-width="1.4"/><text x="520" y="204" text-anchor="middle" fill="#1E293B" font-size="9.5">路由到 Feed 服务</text>
<polygon points="520,235 585,260 520,285 455,260" fill="#FEF3C7" stroke="#D97706" stroke-width="1.4"/><text x="520" y="264" text-anchor="middle" fill="#92400E" font-size="8.5" font-weight="600">user_key 存在?</text>
<rect x="597" y="247" width="79" height="26" rx="4" fill="#fff" stroke="#475569" stroke-width="1.4"/><text x="636" y="264" text-anchor="middle" fill="#1E293B" font-size="9.5">降级至流程②</text>
<rect x="735" y="302" width="210" height="32" rx="4" fill="#fff" stroke="#475569" stroke-width="1.4"/><text x="840" y="322" text-anchor="middle" fill="#1E293B" font-size="9.5">触发四通路并行召回
(A1 Session兴趣 + A2 24h兴趣
+ B New Arrivals + C Best Sellers)</text>
<rect x="725" y="354" width="230" height="32" rx="4" fill="#fff" stroke="#475569" stroke-width="1.4"/><text x="840" y="374" text-anchor="middle" fill="#1E293B" font-size="9.5">并行执行（仅查在售 listing）：
A1 当前Session兴趣相似召回
A2 24h兴趣相似召回
B New Arrivals 召回
C Best Sellers 召回</text>
<rect x="1080" y="406" width="160" height="32" rx="4" fill="#fff" stroke="#475569" stroke-width="1.4"/><text x="1160" y="426" text-anchor="middle" fill="#1E293B" font-size="9.5">按 on_shelf 过滤查询商品库</text>
<rect x="760" y="458" width="160" height="32" rx="4" fill="#fff" stroke="#475569" stroke-width="1.4"/><text x="840" y="478" text-anchor="middle" fill="#1E293B" font-size="9.5">返回在售候选商品池</text>
<rect x="440" y="510" width="160" height="32" rx="4" fill="#fff" stroke="#475569" stroke-width="1.4"/><text x="520" y="530" text-anchor="middle" fill="#1E293B" font-size="9.5">返回候选商品池</text>
<rect x="440" y="562" width="160" height="32" rx="4" fill="#fff" stroke="#475569" stroke-width="1.4"/><text x="520" y="582" text-anchor="middle" fill="#1E293B" font-size="9.5">候选池合并去重
（排除已展示 listing）</text>
<rect x="440" y="610" width="160" height="32" rx="4" fill="#fff" stroke="#475569" stroke-width="1.4"/><text x="520" y="630" text-anchor="middle" fill="#1E293B" font-size="9.5">频控过滤
（24h 曝光上限）</text>
<rect x="440" y="658" width="160" height="32" rx="4" fill="#fff" stroke="#475569" stroke-width="1.4"/><text x="520" y="678" text-anchor="middle" fill="#1E293B" font-size="9.5">间隔去重 + 多样性打散</text>
<rect x="440" y="706" width="160" height="32" rx="4" fill="#fff" stroke="#475569" stroke-width="1.4"/><text x="520" y="726" text-anchor="middle" fill="#1E293B" font-size="9.5">配额混排
（A1:A2:B:C = 按配置比例）</text>
<rect x="440" y="754" width="160" height="32" rx="4" fill="#fff" stroke="#475569" stroke-width="1.4"/><text x="520" y="774" text-anchor="middle" fill="#1E293B" font-size="9.5">组装响应（20条 + next_page_token）</text>
<rect x="120" y="806" width="160" height="32" rx="4" fill="#fff" stroke="#475569" stroke-width="1.4"/><text x="200" y="826" text-anchor="middle" fill="#1E293B" font-size="9.5">返回 Feed 数据</text>
<rect x="120" y="858" width="160" height="32" rx="4" fill="#fff" stroke="#475569" stroke-width="1.4"/><text x="200" y="878" text-anchor="middle" fill="#1E293B" font-size="9.5">渲染商品卡</text>
<rect x="440" y="910" width="160" height="32" rx="4" fill="#fff" stroke="#475569" stroke-width="1.4"/><text x="520" y="930" text-anchor="middle" fill="#1E293B" font-size="9.5">上报曝光埋点
(listing_id + user_key + market_id)</text>
<rect x="440" y="962" width="160" height="32" rx="4" fill="#fff" stroke="#475569" stroke-width="1.4"/><text x="520" y="982" text-anchor="middle" fill="#1E293B" font-size="9.5">写入 feed_exposure 记录</text>
<rect x="475" y="1013" width="90" height="26" rx="15" fill="#fff" stroke="#4A6CF7" stroke-width="1.5"/><text x="520" y="1030" text-anchor="middle" fill="#4A6CF7" font-size="10" font-weight="600">完成</text>
<rect x="155" y="1095" width="90" height="26" rx="15" fill="#fff" stroke="#4A6CF7" stroke-width="1.5"/><text x="200" y="1112" text-anchor="middle" fill="#4A6CF7" font-size="10" font-weight="600">用户未登录打开首页 For You Tab</text>
<rect x="100" y="1140" width="200" height="32" rx="4" fill="#fff" stroke="#475569" stroke-width="1.4"/><text x="200" y="1160" text-anchor="middle" fill="#1E293B" font-size="9.5">发起 Feed 请求
(device_key 替代 user_key，无登录态)</text>
<rect x="440" y="1192" width="160" height="32" rx="4" fill="#fff" stroke="#475569" stroke-width="1.4"/><text x="520" y="1212" text-anchor="middle" fill="#1E293B" font-size="9.5">路由到 Feed 服务</text>
<polygon points="520,1243 585,1268 520,1293 455,1268" fill="#FEF3C7" stroke="#D97706" stroke-width="1.4"/><text x="520" y="1272" text-anchor="middle" fill="#92400E" font-size="8.5" font-weight="600">user_key 存在?</text>
<rect x="597" y="1255" width="79" height="26" rx="4" fill="#fff" stroke="#475569" stroke-width="1.4"/><text x="636" y="1272" text-anchor="middle" fill="#1E293B" font-size="9.5">跳过 A1/A2 通路</text>
<rect x="440" y="1310" width="160" height="32" rx="4" fill="#fff" stroke="#475569" stroke-width="1.4"/><text x="520" y="1330" text-anchor="middle" fill="#1E293B" font-size="9.5">仅执行 B+C 通路
(New Arrivals + Best Sellers，仅查在售 listing)</text>
<rect x="440" y="1358" width="160" height="32" rx="4" fill="#fff" stroke="#475569" stroke-width="1.4"/><text x="520" y="1378" text-anchor="middle" fill="#1E293B" font-size="9.5">混排</text>
<rect x="120" y="1410" width="160" height="32" rx="4" fill="#fff" stroke="#475569" stroke-width="1.4"/><text x="200" y="1430" text-anchor="middle" fill="#1E293B" font-size="9.5">返回 20 条 listing</text>
<rect x="120" y="1462" width="160" height="32" rx="4" fill="#fff" stroke="#475569" stroke-width="1.4"/><text x="200" y="1482" text-anchor="middle" fill="#1E293B" font-size="9.5">渲染商品卡（无个性化标记）</text>
<rect x="155" y="1513" width="90" height="26" rx="15" fill="#fff" stroke="#4A6CF7" stroke-width="1.5"/><text x="200" y="1530" text-anchor="middle" fill="#4A6CF7" font-size="10" font-weight="600">完成</text>
<rect x="155" y="1595" width="90" height="26" rx="15" fill="#fff" stroke="#4A6CF7" stroke-width="1.5"/><text x="200" y="1612" text-anchor="middle" fill="#4A6CF7" font-size="10" font-weight="600">A1/A2 通路召回执行</text>
<polygon points="840,1643 905,1668 840,1693 775,1668" fill="#FEF3C7" stroke="#D97706" stroke-width="1.4"/><text x="840" y="1672" text-anchor="middle" fill="#92400E" font-size="8.5" font-weight="600">A1 + A2 召回结果为空?</text>
<rect x="917" y="1655" width="79" height="26" rx="4" fill="#fff" stroke="#475569" stroke-width="1.4"/><text x="956" y="1672" text-anchor="middle" fill="#1E293B" font-size="9.5">正常继续混排</text>
<rect x="760" y="1710" width="160" height="32" rx="4" fill="#fff" stroke="#475569" stroke-width="1.4"/><text x="840" y="1730" text-anchor="middle" fill="#1E293B" font-size="9.5">降级：A1/A2 配额转给 B+C 兜底</text>
<rect x="440" y="1762" width="160" height="32" rx="4" fill="#fff" stroke="#475569" stroke-width="1.4"/><text x="520" y="1782" text-anchor="middle" fill="#1E293B" font-size="9.5">通知 Feed 服务降级策略</text>
<rect x="440" y="1814" width="160" height="32" rx="4" fill="#fff" stroke="#475569" stroke-width="1.4"/><text x="520" y="1834" text-anchor="middle" fill="#1E293B" font-size="9.5">按 B:C 比例补足配额</text>
<rect x="475" y="1865" width="90" height="26" rx="15" fill="#fff" stroke="#4A6CF7" stroke-width="1.5"/><text x="520" y="1882" text-anchor="middle" fill="#4A6CF7" font-size="10" font-weight="600">完成（降级为 New Arrivals + Best Sellers 混排）</text>
<rect x="0" y="1916" width="1320" height="60" fill="#fff" stroke="#E2E8F0" stroke-width="1"/>
<text x="20" y="1941" fill="#1E293B" font-size="12" font-weight="600">图例：</text>
<rect x="75" y="1929" width="50" height="20" rx="10" fill="#fff" stroke="#64748B" stroke-width="1.2"/>
<text x="100" y="1943" text-anchor="middle" fill="#64748B" font-size="8">开始/结束</text>
<rect x="140" y="1929" width="50" height="20" rx="3" fill="#fff" stroke="#475569" stroke-width="1.2"/>
<text x="165" y="1943" text-anchor="middle" fill="#475569" font-size="8">操作步骤</text>
<polygon points="225,1929 240,1939 225,1949 210,1939" fill="#FEF3C7" stroke="#D97706" stroke-width="1.2"/>
<text x="225" y="1943" text-anchor="middle" fill="#92400E" font-size="7">判断</text>
<line x1="260" y1="1939" x2="310" y2="1939" stroke="#475569" stroke-width="1.3" marker-end="url(#arr)"/>
<text x="285" y="1934" text-anchor="middle" fill="#475569" font-size="8">正常流向</text>
<line x1="330" y1="1939" x2="380" y2="1939" stroke="#DC2626" stroke-width="1.2" stroke-dasharray="5,3" marker-end="url(#arr-r)"/>
<text x="355" y="1934" text-anchor="middle" fill="#DC2626" font-size="8">异常/回退</text>
<rect x="420" y="1931" width="12" height="12" rx="2" fill="#4A6CF7" opacity="0.3"/>
<text x="438" y="1942" fill="#4A6CF7" font-size="9">客户端</text>
<rect x="520" y="1931" width="12" height="12" rx="2" fill="#10B981" opacity="0.3"/>
<text x="538" y="1942" fill="#10B981" font-size="9">首页/Feed服务</text>
<rect x="620" y="1931" width="12" height="12" rx="2" fill="#F59E0B" opacity="0.3"/>
<text x="638" y="1942" fill="#F59E0B" font-size="9">推荐服务</text>
<rect x="720" y="1931" width="12" height="12" rx="2" fill="#EF4444" opacity="0.3"/>
<text x="738" y="1942" fill="#EF4444" font-size="9">商品系统</text>
</svg>