<?xml version="1.0" encoding="UTF-8" standalone="no"?>
<!DOCTYPE svg PUBLIC "-//W3C//DTD SVG 1.1//EN"
 "http://www.w3.org/Graphics/SVG/1.1/DTD/svg11.dtd">
<!-- Generated by graphviz version 14.1.5 (20260411.2331)
 -->
<!-- Title: ER Pages: 1 -->
<svg width="1817pt" height="1368pt"
 viewBox="0.00 0.00 1817.00 1368.00" xmlns="http://www.w3.org/2000/svg" xmlns:xlink="http://www.w3.org/1999/xlink">
<g id="graph0" class="graph" transform="scale(1 1) rotate(0) translate(57.6 1310.6)">
<title>ER</title>
<polygon fill="#f8f9fc" stroke="none" points="-57.6,57.6 -57.6,-1310.6 1759.6,-1310.6 1759.6,57.6 -57.6,57.6"/>
<text xml:space="preserve" text-anchor="start" x="756.88" y="-1236.7" font-family="PingFang SC, Microsoft YaHei, Helvetica, sans-serif" font-weight="bold" font-size="14.00">looply · 汇率管理 实体关系图</text>
<text xml:space="preserve" text-anchor="start" x="806.75" y="-1226.5" font-family="PingFang SC, Microsoft YaHei, Helvetica, sans-serif" font-size="10.00">v1.0 · 2026&#45;04&#45;28</text>
<g id="clust1" class="cluster">
<title>cluster_ref</title>
<path fill="#f3f4f6" stroke="#9ca3af" stroke-width="2.5" d="M1416.5,-744C1416.5,-744 1657.25,-744 1657.25,-744 1663.25,-744 1669.25,-750 1669.25,-756 1669.25,-756 1669.25,-990 1669.25,-990 1669.25,-996 1663.25,-1002 1657.25,-1002 1657.25,-1002 1416.5,-1002 1416.5,-1002 1410.5,-1002 1404.5,-996 1404.5,-990 1404.5,-990 1404.5,-756 1404.5,-756 1404.5,-750 1410.5,-744 1416.5,-744"/>
<text xml:space="preserve" text-anchor="start" x="1461.12" y="-985.7" font-family="PingFang SC, Microsoft YaHei, Helvetica, sans-serif" font-weight="bold" font-size="14.00" fill="#6b7280">外部引用(币种管理模块)</text>
</g>
<g id="clust2" class="cluster">
<title>cluster_source</title>
<path fill="#fef3c7" stroke="#f59e0b" stroke-width="2.5" d="M979,-8C979,-8 1682,-8 1682,-8 1688,-8 1694,-14 1694,-20 1694,-20 1694,-448 1694,-448 1694,-454 1688,-460 1682,-460 1682,-460 979,-460 979,-460 973,-460 967,-454 967,-448 967,-448 967,-20 967,-20 967,-14 973,-8 979,-8"/>
<text xml:space="preserve" text-anchor="start" x="1302" y="-443.7" font-family="PingFang SC, Microsoft YaHei, Helvetica, sans-serif" font-weight="bold" font-size="14.00" fill="#92400e">数据获取</text>
</g>
<g id="clust3" class="cluster">
<title>cluster_process</title>
<path fill="#dbeafe" stroke="#3b82f6" stroke-width="2.5" d="M989.12,-468C989.12,-468 1241.88,-468 1241.88,-468 1247.88,-468 1253.88,-474 1253.88,-480 1253.88,-480 1253.88,-806 1253.88,-806 1253.88,-812 1247.88,-818 1241.88,-818 1241.88,-818 989.12,-818 989.12,-818 983.12,-818 977.12,-812 977.12,-806 977.12,-806 977.12,-480 977.12,-480 977.12,-474 983.12,-468 989.12,-468"/>
<text xml:space="preserve" text-anchor="start" x="1087" y="-801.7" font-family="PingFang SC, Microsoft YaHei, Helvetica, sans-serif" font-weight="bold" font-size="14.00" fill="#1e40af">数据加工</text>
</g>
<g id="clust4" class="cluster">
<title>cluster_publish</title>
<path fill="#e0e7ff" stroke="#6366f1" stroke-width="2.5" d="M454.5,-420C454.5,-420 840,-420 840,-420 846,-420 852,-426 852,-432 852,-432 852,-854 852,-854 852,-860 846,-866 840,-866 840,-866 454.5,-866 454.5,-866 448.5,-866 442.5,-860 442.5,-854 442.5,-854 442.5,-432 442.5,-432 442.5,-426 448.5,-420 454.5,-420"/>
<text xml:space="preserve" text-anchor="start" x="611.62" y="-849.7" font-family="PingFang SC, Microsoft YaHei, Helvetica, sans-serif" font-weight="bold" font-size="14.00" fill="#4338ca">发布与服务</text>
</g>
<g id="clust5" class="cluster">
<title>cluster_audit</title>
<path fill="#fee2e2" stroke="#ef4444" stroke-width="2.5" d="M20,-420C20,-420 340.25,-420 340.25,-420 346.25,-420 352.25,-426 352.25,-432 352.25,-432 352.25,-1201 352.25,-1201 352.25,-1207 346.25,-1213 340.25,-1213 340.25,-1213 20,-1213 20,-1213 14,-1213 8,-1207 8,-1201 8,-1201 8,-432 8,-432 8,-426 14,-420 20,-420"/>
<text xml:space="preserve" text-anchor="start" x="144.5" y="-1196.7" font-family="PingFang SC, Microsoft YaHei, Helvetica, sans-serif" font-weight="bold" font-size="14.00" fill="#991b1b">审计与快照</text>
</g>
<!-- currency -->
<g id="node1" class="node">
<title>currency</title>
<polygon fill="#6b7280" stroke="none" points="1422.5,-923.5 1422.5,-955.75 1610.75,-955.75 1610.75,-923.5 1422.5,-923.5"/>
<text xml:space="preserve" text-anchor="start" x="1449.88" y="-937.45" font-family="PingFang SC, Microsoft YaHei, Helvetica, sans-serif" font-weight="bold" font-size="14.00" fill="white">币种主数据 currency</text>
<text xml:space="preserve" text-anchor="start" x="1428.5" y="-902.5" font-family="PingFang SC, Microsoft YaHei, Helvetica, sans-serif" font-size="14.00">id 主键</text>
<text xml:space="preserve" text-anchor="start" x="1617.12" y="-902.5" font-family="PingFang SC, Microsoft YaHei, Helvetica, sans-serif" font-size="14.00">[PK]</text>
<text xml:space="preserve" text-anchor="start" x="1428.5" y="-870.25" font-family="PingFang SC, Microsoft YaHei, Helvetica, sans-serif" font-size="14.00">code ISO 4217简码</text>
<text xml:space="preserve" text-anchor="start" x="1616.75" y="-870.25" font-family="PingFang SC, Microsoft YaHei, Helvetica, sans-serif" font-size="14.00">[UK]</text>
<text xml:space="preserve" text-anchor="start" x="1428.5" y="-838" font-family="PingFang SC, Microsoft YaHei, Helvetica, sans-serif" font-size="14.00">symbol 币种符号</text>
<text xml:space="preserve" text-anchor="start" x="1428.5" y="-805.75" font-family="PingFang SC, Microsoft YaHei, Helvetica, sans-serif" font-size="14.00">decimal_precision 小数精度</text>
<text xml:space="preserve" text-anchor="start" x="1428.5" y="-773.5" font-family="PingFang SC, Microsoft YaHei, Helvetica, sans-serif" font-size="14.00">status 启停状态</text>
<polygon fill="none" stroke="black" stroke-width="2" points="1421.5,-761.25 1421.5,-956.75 1652.25,-956.75 1652.25,-761.25 1421.5,-761.25"/>
</g>
<!-- exchange_rate_source -->
<g id="node2" class="node">
<title>exchange_rate_source</title>
<polygon fill="#d97706" stroke="none" points="1397.75,-381.25 1397.75,-413.5 1635.5,-413.5 1635.5,-381.25 1397.75,-381.25"/>
<text xml:space="preserve" text-anchor="start" x="1403.75" y="-395.2" font-family="PingFang SC, Microsoft YaHei, Helvetica, sans-serif" font-weight="bold" font-size="14.00" fill="white">汇率数据源 exchange_rate_source</text>
<text xml:space="preserve" text-anchor="start" x="1403.75" y="-360.25" font-family="PingFang SC, Microsoft YaHei, Helvetica, sans-serif" font-size="14.00">id 主键</text>
<text xml:space="preserve" text-anchor="start" x="1641.88" y="-360.25" font-family="PingFang SC, Microsoft YaHei, Helvetica, sans-serif" font-size="14.00">[PK]</text>
<text xml:space="preserve" text-anchor="start" x="1403.75" y="-328" font-family="PingFang SC, Microsoft YaHei, Helvetica, sans-serif" font-size="14.00">name 数据源名称</text>
<text xml:space="preserve" text-anchor="start" x="1641.5" y="-328" font-family="PingFang SC, Microsoft YaHei, Helvetica, sans-serif" font-size="14.00">[UK]</text>
<text xml:space="preserve" text-anchor="start" x="1403.75" y="-295.75" font-family="PingFang SC, Microsoft YaHei, Helvetica, sans-serif" font-size="14.00">api_url API地址</text>
<text xml:space="preserve" text-anchor="start" x="1403.75" y="-263.5" font-family="PingFang SC, Microsoft YaHei, Helvetica, sans-serif" font-size="14.00">api_key API密钥(加密)</text>
<text xml:space="preserve" text-anchor="start" x="1403.75" y="-231.25" font-family="PingFang SC, Microsoft YaHei, Helvetica, sans-serif" font-size="14.00">priority 优先级(主/备)</text>
<text xml:space="preserve" text-anchor="start" x="1403.75" y="-199" font-family="PingFang SC, Microsoft YaHei, Helvetica, sans-serif" font-size="14.00">fetch_interval 拉取间隔(秒)</text>
<text xml:space="preserve" text-anchor="start" x="1403.75" y="-166.75" font-family="PingFang SC, Microsoft YaHei, Helvetica, sans-serif" font-size="14.00">status 启停状态</text>
<text xml:space="preserve" text-anchor="start" x="1403.75" y="-134.5" font-family="PingFang SC, Microsoft YaHei, Helvetica, sans-serif" font-size="14.00">last_fetch_at 最近拉取时间</text>
<text xml:space="preserve" text-anchor="start" x="1403.75" y="-102.25" font-family="PingFang SC, Microsoft YaHei, Helvetica, sans-serif" font-size="14.00">last_fetch_status 最近拉取状态</text>
<text xml:space="preserve" text-anchor="start" x="1403.75" y="-70" font-family="PingFang SC, Microsoft YaHei, Helvetica, sans-serif" font-size="14.00">created_at 创建时间</text>
<text xml:space="preserve" text-anchor="start" x="1403.75" y="-37.75" font-family="PingFang SC, Microsoft YaHei, Helvetica, sans-serif" font-size="14.00">updated_at 更新时间</text>
<polygon fill="none" stroke="black" stroke-width="2" points="1396.75,-25.5 1396.75,-414.5 1677,-414.5 1677,-25.5 1396.75,-25.5"/>
</g>
<!-- exchange_rate_raw -->
<g id="node3" class="node">
<title>exchange_rate_raw</title>
<polygon fill="#d97706" stroke="none" points="985,-381.38 985,-413.62 1206.25,-413.62 1206.25,-381.38 985,-381.38"/>
<text xml:space="preserve" text-anchor="start" x="1000" y="-395.32" font-family="PingFang SC, Microsoft YaHei, Helvetica, sans-serif" font-weight="bold" font-size="14.00" fill="white">原始汇率 exchange_rate_raw</text>
<text xml:space="preserve" text-anchor="start" x="991" y="-360.38" font-family="PingFang SC, Microsoft YaHei, Helvetica, sans-serif" font-size="14.00">id 主键</text>
<text xml:space="preserve" text-anchor="start" x="1212.25" y="-360.38" font-family="PingFang SC, Microsoft YaHei, Helvetica, sans-serif" font-size="14.00">[PK]</text>
<text xml:space="preserve" text-anchor="start" x="991" y="-328.12" font-family="PingFang SC, Microsoft YaHei, Helvetica, sans-serif" font-size="14.00">source_id 数据源</text>
<text xml:space="preserve" text-anchor="start" x="1212.62" y="-328.12" font-family="PingFang SC, Microsoft YaHei, Helvetica, sans-serif" font-size="14.00">[FK]</text>
<text xml:space="preserve" text-anchor="start" x="991" y="-295.88" font-family="PingFang SC, Microsoft YaHei, Helvetica, sans-serif" font-size="14.00">base_currency_id 基准币种(USD)</text>
<text xml:space="preserve" text-anchor="start" x="1212.62" y="-295.88" font-family="PingFang SC, Microsoft YaHei, Helvetica, sans-serif" font-size="14.00">[FK]</text>
<text xml:space="preserve" text-anchor="start" x="991" y="-263.62" font-family="PingFang SC, Microsoft YaHei, Helvetica, sans-serif" font-size="14.00">target_currency_id 目标币种</text>
<text xml:space="preserve" text-anchor="start" x="1212.62" y="-263.62" font-family="PingFang SC, Microsoft YaHei, Helvetica, sans-serif" font-size="14.00">[FK]</text>
<text xml:space="preserve" text-anchor="start" x="991" y="-231.38" font-family="PingFang SC, Microsoft YaHei, Helvetica, sans-serif" font-size="14.00">market_rate 原始汇率值</text>
<text xml:space="preserve" text-anchor="start" x="991" y="-199.12" font-family="PingFang SC, Microsoft YaHei, Helvetica, sans-serif" font-size="14.00">fetched_at 拉取时间</text>
<text xml:space="preserve" text-anchor="start" x="991" y="-166.88" font-family="PingFang SC, Microsoft YaHei, Helvetica, sans-serif" font-size="14.00">expires_at 失效时间</text>
<text xml:space="preserve" text-anchor="start" x="991" y="-134.62" font-family="PingFang SC, Microsoft YaHei, Helvetica, sans-serif" font-size="14.00">status 状态(正常/异常)</text>
<polygon fill="#e3f2fd" stroke="none" points="985,-96.38 985,-123.38 1246,-123.38 1246,-96.38 985,-96.38"/>
<text xml:space="preserve" text-anchor="start" x="1016.12" y="-108.88" font-family="PingFang SC, Microsoft YaHei, Helvetica, sans-serif" font-style="italic" font-size="10.00">UK: source_id + base + target + fetched_at</text>
<polygon fill="none" stroke="black" stroke-width="2" points="984,-95.38 984,-414.62 1247,-414.62 1247,-95.38 984,-95.38"/>
</g>
<!-- exchange_rate_raw&#45;&gt;currency -->
<g id="edge2" class="edge">
<title>exchange_rate_raw&#45;&gt;currency</title>
<path fill="none" stroke="#6b7280" stroke-width="1.2" d="M1227.78,-415.28C1302.04,-522.23 1397.6,-659.85 1462.46,-753.27"/>
<polygon fill="#6b7280" stroke="#6b7280" stroke-width="1.2" points="1460.43,-754.64 1466.43,-758.99 1464.45,-751.84 1460.43,-754.64"/>
<text xml:space="preserve" text-anchor="middle" x="1321.88" y="-598.66" font-family="PingFang SC, Microsoft YaHei, Helvetica, sans-serif" font-size="10.00" fill="#6b7280">N:1 基准/目标币种</text>
</g>
<!-- exchange_rate_raw&#45;&gt;exchange_rate_source -->
<g id="edge1" class="edge">
<title>exchange_rate_raw&#45;&gt;exchange_rate_source</title>
<path fill="none" stroke="#d97706" stroke-width="1.4" d="M1247.75,-244.05C1291.9,-240.36 1341.48,-236.22 1386.89,-232.43"/>
<polygon fill="#d97706" stroke="#d97706" stroke-width="1.4" points="1387.03,-234.88 1393.8,-231.86 1386.62,-230 1387.03,-234.88"/>
<text xml:space="preserve" text-anchor="middle" x="1321.88" y="-246.13" font-family="PingFang SC, Microsoft YaHei, Helvetica, sans-serif" font-size="10.00" fill="#d97706">N:1 来源</text>
</g>
<!-- spread_rule -->
<g id="node4" class="node">
<title>spread_rule</title>
<polygon fill="#2563eb" stroke="none" points="995.12,-739.25 995.12,-771.5 1196.12,-771.5 1196.12,-739.25 995.12,-739.25"/>
<text xml:space="preserve" text-anchor="start" x="1025.88" y="-753.2" font-family="PingFang SC, Microsoft YaHei, Helvetica, sans-serif" font-weight="bold" font-size="14.00" fill="white">点差规则 spread_rule</text>
<text xml:space="preserve" text-anchor="start" x="1001.12" y="-718.25" font-family="PingFang SC, Microsoft YaHei, Helvetica, sans-serif" font-size="14.00">id 主键</text>
<text xml:space="preserve" text-anchor="start" x="1202.12" y="-718.25" font-family="PingFang SC, Microsoft YaHei, Helvetica, sans-serif" font-size="14.00">[PK]</text>
<text xml:space="preserve" text-anchor="start" x="1001.12" y="-686" font-family="PingFang SC, Microsoft YaHei, Helvetica, sans-serif" font-size="14.00">currency_id 币种(空=全局)</text>
<text xml:space="preserve" text-anchor="start" x="1202.5" y="-686" font-family="PingFang SC, Microsoft YaHei, Helvetica, sans-serif" font-size="14.00">[FK]</text>
<text xml:space="preserve" text-anchor="start" x="1001.12" y="-653.75" font-family="PingFang SC, Microsoft YaHei, Helvetica, sans-serif" font-size="14.00">spread_rate 点差比例(如0.02)</text>
<text xml:space="preserve" text-anchor="start" x="1001.12" y="-621.5" font-family="PingFang SC, Microsoft YaHei, Helvetica, sans-serif" font-size="14.00">priority 优先级</text>
<text xml:space="preserve" text-anchor="start" x="1001.12" y="-589.25" font-family="PingFang SC, Microsoft YaHei, Helvetica, sans-serif" font-size="14.00">status 启停状态</text>
<text xml:space="preserve" text-anchor="start" x="1001.12" y="-557" font-family="PingFang SC, Microsoft YaHei, Helvetica, sans-serif" font-size="14.00">created_at 创建时间</text>
<text xml:space="preserve" text-anchor="start" x="1001.12" y="-524.75" font-family="PingFang SC, Microsoft YaHei, Helvetica, sans-serif" font-size="14.00">updated_at 更新时间</text>
<polygon fill="#e3f2fd" stroke="none" points="995.12,-486.5 995.12,-513.5 1235.88,-513.5 1235.88,-486.5 995.12,-486.5"/>
<text xml:space="preserve" text-anchor="start" x="1022.88" y="-499" font-family="PingFang SC, Microsoft YaHei, Helvetica, sans-serif" font-style="italic" font-size="10.00">全局: currency_id=NULL; 单币种覆盖全局</text>
<polygon fill="none" stroke="black" stroke-width="2" points="994.12,-485.5 994.12,-772.5 1236.88,-772.5 1236.88,-485.5 994.12,-485.5"/>
</g>
<!-- spread_rule&#45;&gt;currency -->
<g id="edge3" class="edge">
<title>spread_rule&#45;&gt;currency</title>
<path fill="none" stroke="#2563eb" stroke-width="1.2" stroke-dasharray="5,2" d="M1237.8,-695.53C1292.79,-725.68 1357.7,-761.28 1412.89,-791.55"/>
<polygon fill="#2563eb" stroke="#2563eb" stroke-width="1.2" points="1411.7,-793.69 1419.02,-794.91 1414.06,-789.4 1411.7,-793.69"/>
<text xml:space="preserve" text-anchor="middle" x="1321.88" y="-763.27" font-family="PingFang SC, Microsoft YaHei, Helvetica, sans-serif" font-size="10.00" fill="#2563eb">N:1 适用币种(可空)</text>
</g>
<!-- exchange_rate_published -->
<g id="node5" class="node">
<title>exchange_rate_published</title>
<polygon fill="#4f46e5" stroke="none" points="460.5,-787.62 460.5,-819.88 756,-819.88 756,-787.62 460.5,-787.62"/>
<text xml:space="preserve" text-anchor="start" x="485.62" y="-801.58" font-family="PingFang SC, Microsoft YaHei, Helvetica, sans-serif" font-weight="bold" font-size="14.00" fill="white">已发布汇率 exchange_rate_published</text>
<text xml:space="preserve" text-anchor="start" x="466.5" y="-766.62" font-family="PingFang SC, Microsoft YaHei, Helvetica, sans-serif" font-size="14.00">id 主键</text>
<text xml:space="preserve" text-anchor="start" x="781.12" y="-766.62" font-family="PingFang SC, Microsoft YaHei, Helvetica, sans-serif" font-size="14.00">[PK]</text>
<text xml:space="preserve" text-anchor="start" x="466.5" y="-734.38" font-family="PingFang SC, Microsoft YaHei, Helvetica, sans-serif" font-size="14.00">base_currency_id 基准币种(USD)</text>
<text xml:space="preserve" text-anchor="start" x="781.5" y="-734.38" font-family="PingFang SC, Microsoft YaHei, Helvetica, sans-serif" font-size="14.00">[FK]</text>
<text xml:space="preserve" text-anchor="start" x="466.5" y="-702.12" font-family="PingFang SC, Microsoft YaHei, Helvetica, sans-serif" font-size="14.00">target_currency_id 目标币种</text>
<text xml:space="preserve" text-anchor="start" x="781.5" y="-702.12" font-family="PingFang SC, Microsoft YaHei, Helvetica, sans-serif" font-size="14.00">[FK]</text>
<text xml:space="preserve" text-anchor="start" x="466.5" y="-669.88" font-family="PingFang SC, Microsoft YaHei, Helvetica, sans-serif" font-size="14.00">market_rate 原始汇率</text>
<text xml:space="preserve" text-anchor="start" x="466.5" y="-637.62" font-family="PingFang SC, Microsoft YaHei, Helvetica, sans-serif" font-size="14.00">spread_rate 应用的点差</text>
<text xml:space="preserve" text-anchor="start" x="466.5" y="-605.38" font-family="PingFang SC, Microsoft YaHei, Helvetica, sans-serif" font-size="14.00">published_rate 生效汇率</text>
<text xml:space="preserve" text-anchor="start" x="466.5" y="-573.12" font-family="PingFang SC, Microsoft YaHei, Helvetica, sans-serif" font-size="14.00">publish_type 发布方式(定时/手动)</text>
<text xml:space="preserve" text-anchor="start" x="466.5" y="-540.88" font-family="PingFang SC, Microsoft YaHei, Helvetica, sans-serif" font-size="14.00">published_by 发布人(系统/运营)</text>
<text xml:space="preserve" text-anchor="start" x="466.5" y="-508.62" font-family="PingFang SC, Microsoft YaHei, Helvetica, sans-serif" font-size="14.00">published_at 发布时间</text>
<text xml:space="preserve" text-anchor="start" x="466.5" y="-476.38" font-family="PingFang SC, Microsoft YaHei, Helvetica, sans-serif" font-size="14.00">status 状态(生效/已替换/停用)</text>
<polygon fill="#e3f2fd" stroke="none" points="460.5,-438.12 460.5,-465.12 834,-465.12 834,-438.12 460.5,-438.12"/>
<text xml:space="preserve" text-anchor="start" x="466.5" y="-450.62" font-family="PingFang SC, Microsoft YaHei, Helvetica, sans-serif" font-style="italic" font-size="10.00">UK: base + target; 同一币种对仅一条生效; 币种停用后置为 disabled_by_currency</text>
<polygon fill="none" stroke="black" stroke-width="2" points="459.5,-437.12 459.5,-820.88 835,-820.88 835,-437.12 459.5,-437.12"/>
</g>
<!-- exchange_rate_published&#45;&gt;currency -->
<g id="edge4" class="edge">
<title>exchange_rate_published&#45;&gt;currency</title>
<path fill="none" stroke="#4f46e5" stroke-width="1.4" d="M835.64,-764.15C877.13,-788.1 922.14,-809.87 967,-824 1114.63,-870.51 1294.24,-873.25 1411.63,-868.35"/>
<polygon fill="#4f46e5" stroke="#4f46e5" stroke-width="1.4" points="1411.68,-870.8 1418.56,-868.04 1411.46,-865.9 1411.68,-870.8"/>
<text xml:space="preserve" text-anchor="middle" x="1115.5" y="-873.75" font-family="PingFang SC, Microsoft YaHei, Helvetica, sans-serif" font-size="10.00" fill="#4f46e5">N:1 基准/目标币种</text>
</g>
<!-- exchange_rate_published&#45;&gt;exchange_rate_raw -->
<g id="edge5" class="edge">
<title>exchange_rate_published&#45;&gt;exchange_rate_raw</title>
<path fill="none" stroke="#2563eb" stroke-width="1.2" stroke-dasharray="5,2" d="M835.88,-478.5C882.81,-440.85 932.3,-401.15 976.34,-365.82"/>
<polygon fill="#2563eb" stroke="#2563eb" stroke-width="1.2" points="977.74,-367.84 981.67,-361.55 974.67,-364.02 977.74,-367.84"/>
<text xml:space="preserve" text-anchor="middle" x="909.5" y="-447.5" font-family="PingFang SC, Microsoft YaHei, Helvetica, sans-serif" font-size="10.00" fill="#2563eb">N:1 加工来源</text>
</g>
<!-- exchange_rate_published&#45;&gt;spread_rule -->
<g id="edge6" class="edge">
<title>exchange_rate_published&#45;&gt;spread_rule</title>
<path fill="none" stroke="#2563eb" stroke-dasharray="5,2" d="M835.88,-629C885.89,-629 938.8,-629 984.93,-629"/>
<polygon fill="#2563eb" stroke="#2563eb" points="984.65,-631.45 991.65,-629 984.65,-626.55 984.65,-631.45"/>
<text xml:space="preserve" text-anchor="middle" x="909.5" y="-634.5" font-family="PingFang SC, Microsoft YaHei, Helvetica, sans-serif" font-size="10.00" fill="#2563eb">N:1 应用点差</text>
</g>
<!-- exchange_rate_snapshot -->
<g id="node6" class="node">
<title>exchange_rate_snapshot</title>
<polygon fill="#dc2626" stroke="none" points="26,-787.62 26,-819.88 294.5,-819.88 294.5,-787.62 26,-787.62"/>
<text xml:space="preserve" text-anchor="start" x="32" y="-801.58" font-family="PingFang SC, Microsoft YaHei, Helvetica, sans-serif" font-weight="bold" font-size="14.00" fill="white">历史汇率快照 exchange_rate_snapshot</text>
<text xml:space="preserve" text-anchor="start" x="32" y="-766.62" font-family="PingFang SC, Microsoft YaHei, Helvetica, sans-serif" font-size="14.00">id 主键</text>
<text xml:space="preserve" text-anchor="start" x="300.5" y="-766.62" font-family="PingFang SC, Microsoft YaHei, Helvetica, sans-serif" font-size="14.00">[PK]</text>
<text xml:space="preserve" text-anchor="start" x="32" y="-734.38" font-family="PingFang SC, Microsoft YaHei, Helvetica, sans-serif" font-size="14.00">snapshot_batch_id 快照批次号</text>
<text xml:space="preserve" text-anchor="start" x="32" y="-702.12" font-family="PingFang SC, Microsoft YaHei, Helvetica, sans-serif" font-size="14.00">base_currency_id 基准币种</text>
<text xml:space="preserve" text-anchor="start" x="300.88" y="-702.12" font-family="PingFang SC, Microsoft YaHei, Helvetica, sans-serif" font-size="14.00">[FK]</text>
<text xml:space="preserve" text-anchor="start" x="32" y="-669.88" font-family="PingFang SC, Microsoft YaHei, Helvetica, sans-serif" font-size="14.00">target_currency_id 目标币种</text>
<text xml:space="preserve" text-anchor="start" x="300.88" y="-669.88" font-family="PingFang SC, Microsoft YaHei, Helvetica, sans-serif" font-size="14.00">[FK]</text>
<text xml:space="preserve" text-anchor="start" x="32" y="-637.62" font-family="PingFang SC, Microsoft YaHei, Helvetica, sans-serif" font-size="14.00">market_rate 原始汇率</text>
<text xml:space="preserve" text-anchor="start" x="32" y="-605.38" font-family="PingFang SC, Microsoft YaHei, Helvetica, sans-serif" font-size="14.00">spread_rate 点差</text>
<text xml:space="preserve" text-anchor="start" x="32" y="-573.12" font-family="PingFang SC, Microsoft YaHei, Helvetica, sans-serif" font-size="14.00">published_rate 生效汇率</text>
<text xml:space="preserve" text-anchor="start" x="32" y="-540.88" font-family="PingFang SC, Microsoft YaHei, Helvetica, sans-serif" font-size="14.00">snapshot_date 快照日期</text>
<text xml:space="preserve" text-anchor="start" x="32" y="-508.62" font-family="PingFang SC, Microsoft YaHei, Helvetica, sans-serif" font-size="14.00">trigger_type 触发方式(定时/手动)</text>
<text xml:space="preserve" text-anchor="start" x="32" y="-476.38" font-family="PingFang SC, Microsoft YaHei, Helvetica, sans-serif" font-size="14.00">created_at 创建时间</text>
<polygon fill="#e3f2fd" stroke="none" points="26,-438.12 26,-465.12 334.25,-465.12 334.25,-438.12 26,-438.12"/>
<text xml:space="preserve" text-anchor="start" x="113.75" y="-450.62" font-family="PingFang SC, Microsoft YaHei, Helvetica, sans-serif" font-style="italic" font-size="10.00">UK: batch_id + base + target</text>
<polygon fill="none" stroke="black" stroke-width="2" points="25,-437.12 25,-820.88 335.25,-820.88 335.25,-437.12 25,-437.12"/>
</g>
<!-- exchange_rate_snapshot&#45;&gt;currency -->
<g id="edge8" class="edge">
<title>exchange_rate_snapshot&#45;&gt;currency</title>
<path fill="none" stroke="#6b7280" d="M336.12,-805.53C368.46,-832.37 404.4,-856.31 442.5,-872 770.96,-1007.28 1203.43,-937.85 1412.36,-890.69"/>
<polygon fill="#6b7280" stroke="#6b7280" points="1412.85,-893.09 1419.14,-889.15 1411.77,-888.32 1412.85,-893.09"/>
<text xml:space="preserve" text-anchor="middle" x="909.5" y="-956.51" font-family="PingFang SC, Microsoft YaHei, Helvetica, sans-serif" font-size="10.00" fill="#6b7280">N:1 基准/目标币种</text>
</g>
<!-- exchange_rate_snapshot&#45;&gt;exchange_rate_published -->
<g id="edge7" class="edge">
<title>exchange_rate_snapshot&#45;&gt;exchange_rate_published</title>
<path fill="none" stroke="#dc2626" stroke-width="1.2" stroke-dasharray="5,2" d="M336,-629C372.49,-629 411.86,-629 449.9,-629"/>
<polygon fill="#dc2626" stroke="#dc2626" stroke-width="1.2" points="449.69,-631.45 456.69,-629 449.69,-626.55 449.69,-631.45"/>
<text xml:space="preserve" text-anchor="middle" x="397.38" y="-634.5" font-family="PingFang SC, Microsoft YaHei, Helvetica, sans-serif" font-size="10.00" fill="#dc2626">N:1 快照来源</text>
</g>
<!-- rate_change_log -->
<g id="node7" class="node">
<title>rate_change_log</title>
<polygon fill="#dc2626" stroke="none" points="53.38,-1134.38 53.38,-1166.62 266,-1166.62 266,-1134.38 53.38,-1134.38"/>
<text xml:space="preserve" text-anchor="start" x="59.94" y="-1148.33" font-family="PingFang SC, Microsoft YaHei, Helvetica, sans-serif" font-weight="bold" font-size="14.00" fill="white">汇率变动日志 rate_change_log</text>
<text xml:space="preserve" text-anchor="start" x="59.38" y="-1113.38" font-family="PingFang SC, Microsoft YaHei, Helvetica, sans-serif" font-size="14.00">id 主键</text>
<text xml:space="preserve" text-anchor="start" x="272.56" y="-1113.38" font-family="PingFang SC, Microsoft YaHei, Helvetica, sans-serif" font-size="14.00">[PK]</text>
<text xml:space="preserve" text-anchor="start" x="59.38" y="-1081.12" font-family="PingFang SC, Microsoft YaHei, Helvetica, sans-serif" font-size="14.00">target_currency_id 目标币种</text>
<text xml:space="preserve" text-anchor="start" x="272.94" y="-1081.12" font-family="PingFang SC, Microsoft YaHei, Helvetica, sans-serif" font-size="14.00">[FK]</text>
<text xml:space="preserve" text-anchor="start" x="59.38" y="-1048.88" font-family="PingFang SC, Microsoft YaHei, Helvetica, sans-serif" font-size="14.00">operation_type 操作类型</text>
<text xml:space="preserve" text-anchor="start" x="59.38" y="-1016.62" font-family="PingFang SC, Microsoft YaHei, Helvetica, sans-serif" font-size="14.00">old_rate 变更前汇率</text>
<text xml:space="preserve" text-anchor="start" x="59.38" y="-984.38" font-family="PingFang SC, Microsoft YaHei, Helvetica, sans-serif" font-size="14.00">new_rate 变更后汇率</text>
<text xml:space="preserve" text-anchor="start" x="59.38" y="-952.12" font-family="PingFang SC, Microsoft YaHei, Helvetica, sans-serif" font-size="14.00">change_reason 变更原因</text>
<text xml:space="preserve" text-anchor="start" x="59.38" y="-919.88" font-family="PingFang SC, Microsoft YaHei, Helvetica, sans-serif" font-size="14.00">operator 操作人</text>
<text xml:space="preserve" text-anchor="start" x="59.38" y="-887.62" font-family="PingFang SC, Microsoft YaHei, Helvetica, sans-serif" font-size="14.00">created_at 操作时间</text>
<polygon fill="#e3f2fd" stroke="none" points="53.38,-849.38 53.38,-876.38 306.88,-876.38 306.88,-849.38 53.38,-849.38"/>
<text xml:space="preserve" text-anchor="start" x="59.38" y="-861.88" font-family="PingFang SC, Microsoft YaHei, Helvetica, sans-serif" font-style="italic" font-size="10.00">操作类型: 定时发布/手动发布/手动覆盖/回滚/币种停用</text>
<polygon fill="none" stroke="black" stroke-width="2" points="52.38,-848.38 52.38,-1167.62 307.88,-1167.62 307.88,-848.38 52.38,-848.38"/>
</g>
<!-- rate_change_log&#45;&gt;currency -->
<g id="edge9" class="edge">
<title>rate_change_log&#45;&gt;currency</title>
<path fill="none" stroke="#dc2626" d="M308.6,-1013.24C527.4,-1019.25 987.16,-1018.78 1362.75,-931 1379.38,-927.11 1396.47,-921.8 1413.12,-915.8"/>
<polygon fill="#dc2626" stroke="#dc2626" points="1413.59,-918.23 1419.32,-913.52 1411.9,-913.63 1413.59,-918.23"/>
<text xml:space="preserve" text-anchor="middle" x="909.5" y="-1006.87" font-family="PingFang SC, Microsoft YaHei, Helvetica, sans-serif" font-size="10.00" fill="#dc2626">N:1 目标币种</text>
</g>
</g>
</svg>
