<svg xmlns="http://www.w3.org/2000/svg" viewBox="0 0 1100 860" font-family="'PingFang SC','Microsoft YaHei','Helvetica Neue',Arial,sans-serif">
  <defs>
    <filter id="s" x="-2%" y="-2%" width="104%" height="104%">
      <feDropShadow dx="0" dy="2" stdDeviation="3" flood-opacity="0.1"/>
    </filter>
    <linearGradient id="hg" x1="0" y1="0" x2="1" y2="0">
      <stop offset="0%" stop-color="#4A6CF7"/>
      <stop offset="100%" stop-color="#7B5EF2"/>
    </linearGradient>
  </defs>

  <rect width="1100" height="860" fill="#fff" rx="12"/>

  <!-- 标题栏 -->
  <rect x="0" y="0" width="1100" height="60" fill="url(#hg)" rx="12"/>
  <rect x="0" y="36" width="1100" height="24" fill="url(#hg)"/>
  <text x="550" y="36" text-anchor="middle" fill="#fff" font-size="20" font-weight="600">looply · 登录注册模块产品架构图</text>
  <text x="1060" y="36" text-anchor="end" fill="rgba(255,255,255,0.6)" font-size="11">v5.1 · 2026.03</text>

  <!-- 第一层：用户层 -->
  <text x="40" y="94" fill="#4A6CF7" font-size="13" font-weight="700" letter-spacing="2">用户层</text>
  <line x1="100" y1="89" x2="1060" y2="89" stroke="#E8ECFF" stroke-width="1.5"/>

  <rect x="40" y="108" width="490" height="52" rx="12" fill="#EEF1FF" stroke="#C5CDFF" stroke-width="1.2" filter="url(#s)"/>
  <text x="285" y="131" text-anchor="middle" fill="#3A4CF7" font-size="14" font-weight="600">C端（个人用户）</text>
  <text x="285" y="148" text-anchor="middle" fill="#7580D6" font-size="10">App · H5 · Web · 买+卖</text>

  <rect x="550" y="108" width="490" height="52" rx="12" fill="#EEF1FF" stroke="#C5CDFF" stroke-width="1.2" filter="url(#s)"/>
  <text x="795" y="131" text-anchor="middle" fill="#3A4CF7" font-size="14" font-weight="600">B端（商家）</text>
  <text x="795" y="148" text-anchor="middle" fill="#7580D6" font-size="10">商家后台（PC）</text>

  <!-- 第二层：核心能力 -->
  <text x="40" y="198" fill="#4A6CF7" font-size="13" font-weight="700" letter-spacing="2">核心能力</text>
  <line x1="120" y1="193" x2="1060" y2="193" stroke="#E8ECFF" stroke-width="1.5"/>

  <!-- 核心功能（主） -->
  <text x="60" y="216" fill="#6B7280" font-size="10" font-weight="600">核心功能</text>

  <!-- 注册 -->
  <rect x="40" y="228" width="490" height="160" rx="12" fill="#fff" stroke="#60A5FA" stroke-width="1.5" filter="url(#s)"/>
  <rect x="40" y="228" width="490" height="30" rx="12" fill="#DBEAFE"/>
  <rect x="40" y="250" width="490" height="8" fill="#DBEAFE"/>
  <text x="285" y="249" text-anchor="middle" fill="#2563EB" font-size="12" font-weight="700">注册</text>

  <rect x="52" y="268" width="150" height="26" rx="5" fill="#EFF6FF" stroke="#93C5FD" stroke-width="0.8"/>
  <text x="127" y="285" text-anchor="middle" fill="#1D4ED8" font-size="10">手机号注册</text>
  <rect x="208" y="268" width="150" height="26" rx="5" fill="#EFF6FF" stroke="#93C5FD" stroke-width="0.8"/>
  <text x="283" y="285" text-anchor="middle" fill="#1D4ED8" font-size="10">邮箱注册</text>
  <rect x="364" y="268" width="154" height="26" rx="5" fill="#EFF6FF" stroke="#93C5FD" stroke-width="0.8"/>
  <text x="441" y="285" text-anchor="middle" fill="#1D4ED8" font-size="10">三方账号快捷注册</text>

  <rect x="52" y="300" width="232" height="26" rx="5" fill="#EFF6FF" stroke="#93C5FD" stroke-width="0.8"/>
  <text x="168" y="317" text-anchor="middle" fill="#1D4ED8" font-size="10">邮箱/手机验证激活</text>
  <rect x="290" y="300" width="228" height="26" rx="5" fill="#EFF6FF" stroke="#93C5FD" stroke-width="0.8"/>
  <text x="404" y="317" text-anchor="middle" fill="#1D4ED8" font-size="10">密码强度校验 · 安全设置引导</text>

  <rect x="52" y="332" width="466" height="26" rx="5" fill="#EFF6FF" stroke="#93C5FD" stroke-width="0.8"/>
  <text x="285" y="349" text-anchor="middle" fill="#1D4ED8" font-size="10">注册反欺诈（设备指纹 · IP风控 · 人机验证）</text>

  <rect x="52" y="366" width="36" height="14" rx="3" fill="#FDE68A" stroke="#F59E0B" stroke-width="0.5"/>
  <text x="70" y="376" text-anchor="middle" fill="#B45309" font-size="7">核心</text>
  <text x="92" y="376" fill="#92400E" font-size="7">模块入口 · 账号创建 · 身份建立</text>

  <!-- 登录 -->
  <rect x="544" y="228" width="496" height="160" rx="12" fill="#fff" stroke="#60A5FA" stroke-width="1.5" filter="url(#s)"/>
  <rect x="544" y="228" width="496" height="30" rx="12" fill="#DBEAFE"/>
  <rect x="544" y="250" width="496" height="8" fill="#DBEAFE"/>
  <text x="792" y="249" text-anchor="middle" fill="#2563EB" font-size="12" font-weight="700">登录</text>

  <rect x="556" y="268" width="114" height="26" rx="5" fill="#EFF6FF" stroke="#93C5FD" stroke-width="0.8"/>
  <text x="613" y="285" text-anchor="middle" fill="#1D4ED8" font-size="10">密码登录</text>
  <rect x="676" y="268" width="114" height="26" rx="5" fill="#EFF6FF" stroke="#93C5FD" stroke-width="0.8"/>
  <text x="733" y="285" text-anchor="middle" fill="#1D4ED8" font-size="10">验证码登录</text>
  <rect x="796" y="268" width="114" height="26" rx="5" fill="#EFF6FF" stroke="#93C5FD" stroke-width="0.8"/>
  <text x="853" y="285" text-anchor="middle" fill="#1D4ED8" font-size="10">OAuth 登录</text>
  <rect x="916" y="268" width="114" height="26" rx="5" fill="#EFF6FF" stroke="#93C5FD" stroke-width="0.8"/>
  <text x="973" y="285" text-anchor="middle" fill="#1D4ED8" font-size="10">免密 / SSO</text>

  <rect x="556" y="300" width="232" height="26" rx="5" fill="#EFF6FF" stroke="#93C5FD" stroke-width="0.8"/>
  <text x="672" y="317" text-anchor="middle" fill="#1D4ED8" font-size="10">找回密码（邮箱/手机重置）</text>
  <rect x="794" y="300" width="236" height="26" rx="5" fill="#EFF6FF" stroke="#93C5FD" stroke-width="0.8"/>
  <text x="912" y="317" text-anchor="middle" fill="#1D4ED8" font-size="10">多因素认证 MFA（TOTP/SMS）</text>

  <rect x="556" y="332" width="474" height="26" rx="5" fill="#EFF6FF" stroke="#93C5FD" stroke-width="0.8"/>
  <text x="792" y="349" text-anchor="middle" fill="#1D4ED8" font-size="10">登录风控（异常检测 · 暴力破解拦截 · 异地/新设备识别）</text>

  <rect x="556" y="366" width="36" height="14" rx="3" fill="#FDE68A" stroke="#F59E0B" stroke-width="0.5"/>
  <text x="574" y="376" text-anchor="middle" fill="#B45309" font-size="7">核心</text>
  <text x="596" y="376" fill="#92400E" font-size="7">身份验证 · 安全准入 · 会话建立</text>

  <!-- 支撑能力（次） -->
  <line x1="40" y1="402" x2="1040" y2="402" stroke="#E2E8F0" stroke-width="1" stroke-dasharray="4,3"/>
  <text x="60" y="420" fill="#6B7280" font-size="10" font-weight="600">支撑能力</text>

  <rect x="40" y="432" width="200" height="40" rx="8" fill="#F5F3FF" stroke="#C4B5FD" stroke-width="1.2" filter="url(#s)"/>
  <text x="140" y="457" text-anchor="middle" fill="#5B21B6" font-size="11" font-weight="600">用户信息管理</text>

  <rect x="256" y="432" width="200" height="40" rx="8" fill="#F5F3FF" stroke="#C4B5FD" stroke-width="1.2" filter="url(#s)"/>
  <text x="356" y="457" text-anchor="middle" fill="#5B21B6" font-size="11" font-weight="600">三方账号绑定/解绑</text>

  <rect x="472" y="432" width="200" height="40" rx="8" fill="#F5F3FF" stroke="#C4B5FD" stroke-width="1.2" filter="url(#s)"/>
  <text x="572" y="457" text-anchor="middle" fill="#5B21B6" font-size="11" font-weight="600">设备管理 · 远程下线</text>

  <rect x="688" y="432" width="170" height="40" rx="8" fill="#F5F3FF" stroke="#C4B5FD" stroke-width="1.2" filter="url(#s)"/>
  <text x="773" y="457" text-anchor="middle" fill="#5B21B6" font-size="11" font-weight="600">账号注销</text>

  <rect x="874" y="432" width="166" height="40" rx="8" fill="#F5F3FF" stroke="#C4B5FD" stroke-width="1.2" filter="url(#s)"/>
  <text x="957" y="457" text-anchor="middle" fill="#5B21B6" font-size="11" font-weight="600">密码修改 · 安全设置</text>

  <!-- 基础服务 -->
  <line x1="40" y1="486" x2="1040" y2="486" stroke="#E2E8F0" stroke-width="1" stroke-dasharray="4,3"/>
  <text x="60" y="504" fill="#6B7280" font-size="10" font-weight="600">基础服务</text>

  <rect x="40" y="516" width="240" height="40" rx="8" fill="#F0FDF4" stroke="#86EFAC" stroke-width="1.2" filter="url(#s)"/>
  <text x="160" y="541" text-anchor="middle" fill="#166534" font-size="11" font-weight="600">会话管理</text>

  <rect x="296" y="516" width="240" height="40" rx="8" fill="#F0FDF4" stroke="#86EFAC" stroke-width="1.2" filter="url(#s)"/>
  <text x="416" y="541" text-anchor="middle" fill="#166534" font-size="11" font-weight="600">Token 签发 / 刷新</text>

  <rect x="552" y="516" width="240" height="40" rx="8" fill="#F0FDF4" stroke="#86EFAC" stroke-width="1.2" filter="url(#s)"/>
  <text x="672" y="541" text-anchor="middle" fill="#166534" font-size="11" font-weight="600">多端登录策略</text>

  <rect x="808" y="516" width="232" height="40" rx="8" fill="#F0FDF4" stroke="#86EFAC" stroke-width="1.2" filter="url(#s)"/>
  <text x="924" y="541" text-anchor="middle" fill="#166534" font-size="11" font-weight="600">风控引擎 · 设备指纹</text>

  <!-- 第三层：合规与国际化 -->
  <text x="40" y="596" fill="#4A6CF7" font-size="13" font-weight="700" letter-spacing="2">合规与国际化</text>
  <line x1="170" y1="591" x2="1060" y2="591" stroke="#E8ECFF" stroke-width="1.5"/>

  <!-- 合规约束 -->
  <rect x="40" y="608" width="1000" height="46" rx="10" fill="#FFF8F0" stroke="#F0D9B5" stroke-width="1.2" filter="url(#s)"/>
  <text x="55" y="626" fill="#B45309" font-size="11" font-weight="700">合规约束</text>

  <rect x="130" y="614" width="100" height="24" rx="5" fill="#fff" stroke="#F0D9B5" stroke-width="0.8"/>
  <text x="180" y="630" text-anchor="middle" fill="#92400E" font-size="9">用户协议确认</text>
  <rect x="236" y="614" width="100" height="24" rx="5" fill="#fff" stroke="#F0D9B5" stroke-width="0.8"/>
  <text x="286" y="630" text-anchor="middle" fill="#92400E" font-size="9">隐私政策同意</text>
  <rect x="342" y="614" width="90" height="24" rx="5" fill="#fff" stroke="#F0D9B5" stroke-width="0.8"/>
  <text x="387" y="630" text-anchor="middle" fill="#92400E" font-size="9">Cookie同意</text>
  <rect x="438" y="614" width="100" height="24" rx="5" fill="#fff" stroke="#F0D9B5" stroke-width="0.8"/>
  <text x="488" y="630" text-anchor="middle" fill="#92400E" font-size="9">未成年人验证</text>
  <rect x="544" y="614" width="90" height="24" rx="5" fill="#fff" stroke="#F0D9B5" stroke-width="0.8"/>
  <text x="589" y="630" text-anchor="middle" fill="#92400E" font-size="9">日志留存</text>
  <rect x="640" y="614" width="90" height="24" rx="5" fill="#fff" stroke="#F0D9B5" stroke-width="0.8"/>
  <text x="685" y="630" text-anchor="middle" fill="#92400E" font-size="9">加密存储</text>
  <rect x="736" y="614" width="90" height="24" rx="5" fill="#fff" stroke="#F0D9B5" stroke-width="0.8"/>
  <text x="781" y="630" text-anchor="middle" fill="#92400E" font-size="9">跨境数据传输</text>
  <rect x="832" y="614" width="90" height="24" rx="5" fill="#fff" stroke="#F0D9B5" stroke-width="0.8"/>
  <text x="877" y="630" text-anchor="middle" fill="#92400E" font-size="9">数据删除权</text>
  <rect x="928" y="614" width="100" height="24" rx="5" fill="#fff" stroke="#F0D9B5" stroke-width="0.8"/>
  <text x="978" y="630" text-anchor="middle" fill="#92400E" font-size="9">数据可携带权</text>

  <!-- 国际化能力 -->
  <rect x="40" y="662" width="1000" height="46" rx="10" fill="#F0F8FF" stroke="#B3D9F2" stroke-width="1.2" filter="url(#s)"/>
  <text x="55" y="680" fill="#1A73A7" font-size="11" font-weight="700">国际化能力</text>

  <rect x="130" y="668" width="110" height="24" rx="5" fill="#fff" stroke="#B3D9F2" stroke-width="0.8"/>
  <text x="185" y="684" text-anchor="middle" fill="#2563EB" font-size="9">多语言 i18n</text>
  <rect x="246" y="668" width="120" height="24" rx="5" fill="#fff" stroke="#B3D9F2" stroke-width="0.8"/>
  <text x="306" y="684" text-anchor="middle" fill="#2563EB" font-size="9">多国手机号格式</text>
  <rect x="372" y="668" width="110" height="24" rx="5" fill="#fff" stroke="#B3D9F2" stroke-width="0.8"/>
  <text x="427" y="684" text-anchor="middle" fill="#2563EB" font-size="9">国际区号适配</text>
  <rect x="488" y="668" width="110" height="24" rx="5" fill="#fff" stroke="#B3D9F2" stroke-width="0.8"/>
  <text x="543" y="684" text-anchor="middle" fill="#2563EB" font-size="9">邮箱格式校验</text>
  <rect x="604" y="668" width="110" height="24" rx="5" fill="#fff" stroke="#B3D9F2" stroke-width="0.8"/>
  <text x="659" y="684" text-anchor="middle" fill="#2563EB" font-size="9">多时区支持</text>
  <rect x="720" y="668" width="140" height="24" rx="5" fill="#fff" stroke="#B3D9F2" stroke-width="0.8"/>
  <text x="790" y="684" text-anchor="middle" fill="#2563EB" font-size="9">多地区风控策略</text>
  <rect x="866" y="668" width="160" height="24" rx="5" fill="#fff" stroke="#B3D9F2" stroke-width="0.8"/>
  <text x="946" y="684" text-anchor="middle" fill="#2563EB" font-size="9">多币种/多地区注销差异</text>

  <!-- 第四层：外围系统 -->
  <text x="40" y="746" fill="#4A6CF7" font-size="13" font-weight="700" letter-spacing="2">外围系统</text>
  <line x1="120" y1="741" x2="1060" y2="741" stroke="#E8ECFF" stroke-width="1.5"/>

  <!-- 三方认证 -->
  <rect x="40" y="758" width="420" height="56" rx="10" fill="#EEF1FF" stroke="#C5CDFF" stroke-width="1" filter="url(#s)"/>
  <text x="55" y="775" fill="#4A6CF7" font-size="9" font-weight="700">三方认证</text>
  <rect x="52" y="784" width="120" height="24" rx="6" fill="#fff" stroke="#93C5FD" stroke-width="0.8"/>
  <text x="112" y="800" text-anchor="middle" fill="#2563EB" font-size="10">Google OAuth</text>
  <rect x="178" y="784" width="120" height="24" rx="6" fill="#fff" stroke="#93C5FD" stroke-width="0.8"/>
  <text x="238" y="800" text-anchor="middle" fill="#2563EB" font-size="10">Apple OAuth</text>
  <rect x="304" y="784" width="140" height="24" rx="6" fill="#fff" stroke="#93C5FD" stroke-width="0.8"/>
  <text x="374" y="800" text-anchor="middle" fill="#2563EB" font-size="10">Facebook OAuth</text>

  <!-- 消息通道 -->
  <rect x="476" y="758" width="400" height="56" rx="10" fill="#F0FDF4" stroke="#86EFAC" stroke-width="1" filter="url(#s)"/>
  <text x="491" y="775" fill="#166534" font-size="9" font-weight="700">消息通道</text>
  <rect x="488" y="784" width="116" height="24" rx="6" fill="#fff" stroke="#86EFAC" stroke-width="0.8"/>
  <text x="546" y="800" text-anchor="middle" fill="#166534" font-size="10">SMS 服务商</text>
  <rect x="610" y="784" width="116" height="24" rx="6" fill="#fff" stroke="#86EFAC" stroke-width="0.8"/>
  <text x="668" y="800" text-anchor="middle" fill="#166534" font-size="10">邮件服务商</text>
  <rect x="732" y="784" width="130" height="24" rx="6" fill="#fff" stroke="#86EFAC" stroke-width="0.8"/>
  <text x="797" y="800" text-anchor="middle" fill="#166534" font-size="10">验证码服务</text>

  <!-- 企业认证 -->
  <rect x="892" y="758" width="148" height="56" rx="10" fill="#F3F4F6" stroke="#D1D5DB" stroke-width="1" filter="url(#s)"/>
  <text x="907" y="775" fill="#4B5563" font-size="9" font-weight="700">企业认证</text>
  <rect x="904" y="784" width="124" height="24" rx="6" fill="#fff" stroke="#D1D5DB" stroke-width="0.8"/>
  <text x="966" y="800" text-anchor="middle" fill="#4B5563" font-size="10">LDAP / AD</text>

  <!-- 底部说明 -->
  <text x="40" y="838" fill="#9CA3AF" font-size="9">核心能力 = 核心功能（注册 · 登录）+ 支撑能力（用户信息 · 账号绑定 · 设备管理 · 注销 · 安全设置）+ 基础服务（会话 · Token · 登录策略 · 风控）  |  合规与国际化贯穿全模块</text>
</svg>