<svg xmlns="http://www.w3.org/2000/svg" viewBox="0 0 1140 698" font-family="'PingFang SC','Microsoft YaHei','Helvetica Neue',Arial,sans-serif">
  <defs>
    <filter id="s" x="-2%" y="-2%" width="104%" height="104%">
      <feDropShadow dx="0" dy="2" stdDeviation="3" flood-opacity="0.1"/>
    </filter>
    <linearGradient id="hg" x1="0" y1="0" x2="1" y2="0">
      <stop offset="0%" stop-color="#4A6CF7"/>
      <stop offset="100%" stop-color="#7B5EF2"/>
    </linearGradient>
  </defs>

  <rect width="1140" height="698" fill="#fff" rx="12"/>

  <!-- 标题栏 -->
  <rect x="0" y="0" width="1140" height="56" fill="#1E1F2E" rx="12"/>
  <rect x="0" y="32" width="1140" height="24" fill="#1E1F2E"/>
  <text x="570" y="34" text-anchor="middle" fill="#fff" font-size="20" font-weight="600">looply · 登录注册模块产品架构图</text>
  <text x="1100" y="34" text-anchor="end" fill="rgba(255,255,255,0.6)" font-size="11">v7.3 · 2026.03</text>

  <!-- ==================== 第一层：用户层 ==================== -->
  <rect x="30" y="66" width="1080" height="78" rx="10" fill="#fff" stroke="#E5E7EB" stroke-width="1.2"/>
  <rect x="30" y="66" width="6" height="78" rx="3" fill="#10B981"/>
  <text x="50" y="87" fill="#059669" font-size="13" font-weight="700" letter-spacing="2">用户层</text>
  <line x1="110" y1="82" x2="1090" y2="82" stroke="#E5E7EB" stroke-width="1"/>

  <rect x="50" y="96" width="500" height="38" rx="8" fill="#fff" stroke="#A7F3D0" stroke-width="1" filter="url(#s)"/>
  <text x="165" y="120" text-anchor="middle" fill="#059669" font-size="13" font-weight="600">C端用户（买家 + 卖家）</text>
  <rect x="335" y="103" width="50" height="22" rx="4" fill="#D1FAE5" stroke="#6EE7B7" stroke-width="0.6"/>
  <text x="360" y="118" text-anchor="middle" fill="#059669" font-size="9">App</text>
  <rect x="389" y="103" width="40" height="22" rx="4" fill="#D1FAE5" stroke="#6EE7B7" stroke-width="0.6"/>
  <text x="409" y="118" text-anchor="middle" fill="#059669" font-size="9">H5</text>
  <rect x="433" y="103" width="46" height="22" rx="4" fill="#D1FAE5" stroke="#6EE7B7" stroke-width="0.6"/>
  <text x="456" y="118" text-anchor="middle" fill="#059669" font-size="9">Web</text>
  <rect x="483" y="103" width="55" height="22" rx="4" fill="#D1FAE5" stroke="#6EE7B7" stroke-width="0.6"/>
  <text x="510" y="118" text-anchor="middle" fill="#059669" font-size="9">小程序</text>

  <rect x="570" y="96" width="520" height="38" rx="8" fill="#fff" stroke="#A7F3D0" stroke-width="1" filter="url(#s)"/>
  <text x="710" y="120" text-anchor="middle" fill="#059669" font-size="13" font-weight="600">B端商家</text>
  <rect x="810" y="103" width="80" height="22" rx="4" fill="#D1FAE5" stroke="#6EE7B7" stroke-width="0.6"/>
  <text x="850" y="118" text-anchor="middle" fill="#059669" font-size="9">商家后台</text>
  <rect x="896" y="103" width="40" height="22" rx="4" fill="#D1FAE5" stroke="#6EE7B7" stroke-width="0.6"/>
  <text x="916" y="118" text-anchor="middle" fill="#059669" font-size="9">PC</text>

  <!-- ==================== 第二层：系统能力层 ==================== -->
  <rect x="30" y="154" width="1080" height="390" rx="10" fill="#fff" stroke="#E5E7EB" stroke-width="1.2"/>
  <rect x="30" y="154" width="6" height="390" rx="3" fill="#4A6CF7"/>
  <text x="50" y="176" fill="#4A6CF7" font-size="13" font-weight="700" letter-spacing="2">系统能力层</text>
  <line x1="155" y1="171" x2="1090" y2="171" stroke="#E5E7EB" stroke-width="1"/>

  <!-- 业务能力 子层标签 -->
  <rect x="50" y="184" width="72" height="20" rx="4" fill="#DBEAFE"/>
  <text x="86" y="198" text-anchor="middle" fill="#2563EB" font-size="10" font-weight="600">业务能力</text>

  <!-- 注册 -->
  <rect x="50" y="210" width="250" height="158" rx="10" fill="#fff" stroke="#60A5FA" stroke-width="1.5" filter="url(#s)"/>
  <rect x="50" y="210" width="250" height="26" rx="10" fill="#DBEAFE"/>
  <rect x="50" y="230" width="250" height="6" fill="#DBEAFE"/>
  <text x="175" y="229" text-anchor="middle" fill="#2563EB" font-size="12" font-weight="700">注册</text>
  <rect x="62" y="244" width="110" height="22" rx="5" fill="#EFF6FF" stroke="#93C5FD" stroke-width="0.8"/>
  <text x="117" y="259" text-anchor="middle" fill="#1D4ED8" font-size="10">手机号注册</text>
  <rect x="178" y="244" width="110" height="22" rx="5" fill="#EFF6FF" stroke="#93C5FD" stroke-width="0.8"/>
  <text x="233" y="259" text-anchor="middle" fill="#1D4ED8" font-size="10">邮箱注册</text>
  <rect x="62" y="272" width="226" height="22" rx="5" fill="#EFF6FF" stroke="#93C5FD" stroke-width="0.8"/>
  <text x="175" y="287" text-anchor="middle" fill="#1D4ED8" font-size="10">三方账号快捷注册</text>
  <rect x="62" y="300" width="226" height="22" rx="5" fill="#EFF6FF" stroke="#93C5FD" stroke-width="0.8"/>
  <text x="175" y="315" text-anchor="middle" fill="#1D4ED8" font-size="10">邮箱/手机验证激活</text>
  <rect x="62" y="328" width="226" height="22" rx="5" fill="#EFF6FF" stroke="#93C5FD" stroke-width="0.8"/>
  <text x="175" y="343" text-anchor="middle" fill="#1D4ED8" font-size="10">商家入驻申请</text>

  <!-- 登录 -->
  <rect x="316" y="210" width="250" height="158" rx="10" fill="#fff" stroke="#60A5FA" stroke-width="1.5" filter="url(#s)"/>
  <rect x="316" y="210" width="250" height="26" rx="10" fill="#DBEAFE"/>
  <rect x="316" y="230" width="250" height="6" fill="#DBEAFE"/>
  <text x="441" y="229" text-anchor="middle" fill="#2563EB" font-size="12" font-weight="700">登录</text>
  <rect x="328" y="244" width="110" height="22" rx="5" fill="#EFF6FF" stroke="#93C5FD" stroke-width="0.8"/>
  <text x="383" y="259" text-anchor="middle" fill="#1D4ED8" font-size="10">密码登录</text>
  <rect x="444" y="244" width="110" height="22" rx="5" fill="#EFF6FF" stroke="#93C5FD" stroke-width="0.8"/>
  <text x="499" y="259" text-anchor="middle" fill="#1D4ED8" font-size="10">验证码登录</text>
  <rect x="328" y="272" width="110" height="22" rx="5" fill="#EFF6FF" stroke="#93C5FD" stroke-width="0.8"/>
  <text x="383" y="287" text-anchor="middle" fill="#1D4ED8" font-size="10">OAuth 登录</text>
  <rect x="444" y="272" width="110" height="22" rx="5" fill="#EFF6FF" stroke="#93C5FD" stroke-width="0.8"/>
  <text x="499" y="287" text-anchor="middle" fill="#1D4ED8" font-size="10">免密 / SSO</text>
  <rect x="328" y="300" width="226" height="22" rx="5" fill="#EFF6FF" stroke="#93C5FD" stroke-width="0.8"/>
  <text x="441" y="315" text-anchor="middle" fill="#1D4ED8" font-size="10">找回密码（邮箱/手机重置）</text>
  <rect x="328" y="328" width="226" height="22" rx="5" fill="#EFF6FF" stroke="#93C5FD" stroke-width="0.8"/>
  <text x="441" y="343" text-anchor="middle" fill="#1D4ED8" font-size="10">记住我 / 自动登录</text>

  <!-- 账号安全 -->
  <rect x="582" y="210" width="240" height="158" rx="10" fill="#fff" stroke="#60A5FA" stroke-width="1.5" filter="url(#s)"/>
  <rect x="582" y="210" width="240" height="26" rx="10" fill="#DBEAFE"/>
  <rect x="582" y="230" width="240" height="6" fill="#DBEAFE"/>
  <text x="702" y="229" text-anchor="middle" fill="#2563EB" font-size="12" font-weight="700">账号安全</text>
  <rect x="594" y="244" width="216" height="22" rx="5" fill="#EFF6FF" stroke="#93C5FD" stroke-width="0.8"/>
  <text x="702" y="259" text-anchor="middle" fill="#1D4ED8" font-size="10">多因素认证 MFA</text>
  <rect x="594" y="272" width="216" height="22" rx="5" fill="#EFF6FF" stroke="#93C5FD" stroke-width="0.8"/>
  <text x="702" y="287" text-anchor="middle" fill="#1D4ED8" font-size="10">密码修改</text>
  <rect x="594" y="300" width="216" height="22" rx="5" fill="#EFF6FF" stroke="#93C5FD" stroke-width="0.8"/>
  <text x="702" y="315" text-anchor="middle" fill="#1D4ED8" font-size="10">安全设置（登录通知等）</text>

  <!-- 账号管理 -->
  <rect x="838" y="210" width="252" height="158" rx="10" fill="#fff" stroke="#60A5FA" stroke-width="1.5" filter="url(#s)"/>
  <rect x="838" y="210" width="252" height="26" rx="10" fill="#DBEAFE"/>
  <rect x="838" y="230" width="252" height="6" fill="#DBEAFE"/>
  <text x="964" y="229" text-anchor="middle" fill="#2563EB" font-size="12" font-weight="700">账号管理</text>
  <rect x="850" y="244" width="228" height="22" rx="5" fill="#EFF6FF" stroke="#93C5FD" stroke-width="0.8"/>
  <text x="964" y="259" text-anchor="middle" fill="#1D4ED8" font-size="10">用户信息管理</text>
  <rect x="850" y="272" width="228" height="22" rx="5" fill="#EFF6FF" stroke="#93C5FD" stroke-width="0.8"/>
  <text x="964" y="287" text-anchor="middle" fill="#1D4ED8" font-size="10">三方账号绑定/解绑</text>
  <rect x="850" y="300" width="228" height="22" rx="5" fill="#EFF6FF" stroke="#93C5FD" stroke-width="0.8"/>
  <text x="964" y="315" text-anchor="middle" fill="#1D4ED8" font-size="10">设备管理 · 远程下线</text>
  <rect x="850" y="328" width="108" height="22" rx="5" fill="#EFF6FF" stroke="#93C5FD" stroke-width="0.8"/>
  <text x="904" y="343" text-anchor="middle" fill="#1D4ED8" font-size="10">角色切换</text>
  <rect x="964" y="328" width="114" height="22" rx="5" fill="#EFF6FF" stroke="#93C5FD" stroke-width="0.8"/>
  <text x="1021" y="343" text-anchor="middle" fill="#1D4ED8" font-size="10">账号注销</text>

  <!-- 虚线分隔 -->
  <line x1="50" y1="382" x2="1090" y2="382" stroke="#D1D5DB" stroke-width="1" stroke-dasharray="5,3"/>

  <!-- 技术能力 子层标签 -->
  <rect x="50" y="392" width="72" height="20" rx="4" fill="#DBEAFE"/>
  <text x="86" y="406" text-anchor="middle" fill="#2563EB" font-size="10" font-weight="600">技术能力</text>

  <!-- 身份认证 -->
  <rect x="50" y="418" width="250" height="118" rx="10" fill="#fff" stroke="#60A5FA" stroke-width="1.5" filter="url(#s)"/>
  <rect x="50" y="418" width="250" height="26" rx="10" fill="#DBEAFE"/>
  <rect x="50" y="438" width="250" height="6" fill="#DBEAFE"/>
  <text x="175" y="437" text-anchor="middle" fill="#2563EB" font-size="11" font-weight="700">身份认证</text>
  <rect x="62" y="452" width="110" height="22" rx="5" fill="#EFF6FF" stroke="#93C5FD" stroke-width="0.8"/>
  <text x="117" y="467" text-anchor="middle" fill="#1D4ED8" font-size="10">Token 签发/刷新</text>
  <rect x="178" y="452" width="110" height="22" rx="5" fill="#EFF6FF" stroke="#93C5FD" stroke-width="0.8"/>
  <text x="233" y="467" text-anchor="middle" fill="#1D4ED8" font-size="10">会话管理</text>
  <rect x="62" y="480" width="110" height="22" rx="5" fill="#EFF6FF" stroke="#93C5FD" stroke-width="0.8"/>
  <text x="117" y="495" text-anchor="middle" fill="#1D4ED8" font-size="10">多端登录策略</text>
  <rect x="178" y="480" width="110" height="22" rx="5" fill="#EFF6FF" stroke="#93C5FD" stroke-width="0.8"/>
  <text x="233" y="495" text-anchor="middle" fill="#1D4ED8" font-size="10">密码加密存储</text>
  <rect x="62" y="508" width="226" height="22" rx="5" fill="#EFF6FF" stroke="#93C5FD" stroke-width="0.8"/>
  <text x="175" y="523" text-anchor="middle" fill="#1D4ED8" font-size="10">OAuth 协议对接</text>

  <!-- 安全风控 -->
  <rect x="316" y="418" width="250" height="118" rx="10" fill="#fff" stroke="#60A5FA" stroke-width="1.5" filter="url(#s)"/>
  <rect x="316" y="418" width="250" height="26" rx="10" fill="#DBEAFE"/>
  <rect x="316" y="438" width="250" height="6" fill="#DBEAFE"/>
  <text x="441" y="437" text-anchor="middle" fill="#2563EB" font-size="11" font-weight="700">安全风控</text>
  <rect x="328" y="452" width="110" height="22" rx="5" fill="#EFF6FF" stroke="#93C5FD" stroke-width="0.8"/>
  <text x="383" y="467" text-anchor="middle" fill="#1D4ED8" font-size="10">风控引擎</text>
  <rect x="444" y="452" width="110" height="22" rx="5" fill="#EFF6FF" stroke="#93C5FD" stroke-width="0.8"/>
  <text x="499" y="467" text-anchor="middle" fill="#1D4ED8" font-size="10">设备指纹</text>
  <rect x="328" y="480" width="110" height="22" rx="5" fill="#EFF6FF" stroke="#93C5FD" stroke-width="0.8"/>
  <text x="383" y="495" text-anchor="middle" fill="#1D4ED8" font-size="10">异常登录检测</text>
  <rect x="444" y="480" width="110" height="22" rx="5" fill="#EFF6FF" stroke="#93C5FD" stroke-width="0.8"/>
  <text x="499" y="495" text-anchor="middle" fill="#1D4ED8" font-size="10">暴力破解拦截</text>
  <rect x="328" y="508" width="226" height="22" rx="5" fill="#EFF6FF" stroke="#93C5FD" stroke-width="0.8"/>
  <text x="441" y="523" text-anchor="middle" fill="#1D4ED8" font-size="10">人机验证 · IP 风控</text>

  <!-- 合规引擎 -->
  <rect x="582" y="418" width="240" height="118" rx="10" fill="#fff" stroke="#60A5FA" stroke-width="1.5" filter="url(#s)"/>
  <rect x="582" y="418" width="240" height="26" rx="10" fill="#DBEAFE"/>
  <rect x="582" y="438" width="240" height="6" fill="#DBEAFE"/>
  <text x="702" y="437" text-anchor="middle" fill="#2563EB" font-size="11" font-weight="700">合规引擎</text>
  <rect x="594" y="452" width="216" height="22" rx="5" fill="#EFF6FF" stroke="#93C5FD" stroke-width="0.8"/>
  <text x="702" y="467" text-anchor="middle" fill="#1D4ED8" font-size="10">协议版本管理</text>
  <rect x="594" y="480" width="216" height="22" rx="5" fill="#EFF6FF" stroke="#93C5FD" stroke-width="0.8"/>
  <text x="702" y="495" text-anchor="middle" fill="#1D4ED8" font-size="10">隐私政策 · Cookie Consent</text>
  <rect x="594" y="508" width="104" height="22" rx="5" fill="#EFF6FF" stroke="#93C5FD" stroke-width="0.8"/>
  <text x="646" y="523" text-anchor="middle" fill="#1D4ED8" font-size="10">GDPR 权利</text>
  <rect x="704" y="508" width="106" height="22" rx="5" fill="#EFF6FF" stroke="#93C5FD" stroke-width="0.8"/>
  <text x="757" y="523" text-anchor="middle" fill="#1D4ED8" font-size="10">日志留存</text>

  <!-- 国际化 -->
  <rect x="838" y="418" width="252" height="118" rx="10" fill="#fff" stroke="#60A5FA" stroke-width="1.5" filter="url(#s)"/>
  <rect x="838" y="418" width="252" height="26" rx="10" fill="#DBEAFE"/>
  <rect x="838" y="438" width="252" height="6" fill="#DBEAFE"/>
  <text x="964" y="437" text-anchor="middle" fill="#2563EB" font-size="11" font-weight="700">国际化</text>
  <rect x="850" y="452" width="108" height="22" rx="5" fill="#EFF6FF" stroke="#93C5FD" stroke-width="0.8"/>
  <text x="904" y="467" text-anchor="middle" fill="#1D4ED8" font-size="10">多语言 i18n</text>
  <rect x="964" y="452" width="114" height="22" rx="5" fill="#EFF6FF" stroke="#93C5FD" stroke-width="0.8"/>
  <text x="1021" y="467" text-anchor="middle" fill="#1D4ED8" font-size="10">多国手机号</text>
  <rect x="850" y="480" width="108" height="22" rx="5" fill="#EFF6FF" stroke="#93C5FD" stroke-width="0.8"/>
  <text x="904" y="495" text-anchor="middle" fill="#1D4ED8" font-size="10">国际区号</text>
  <rect x="964" y="480" width="114" height="22" rx="5" fill="#EFF6FF" stroke="#93C5FD" stroke-width="0.8"/>
  <text x="1021" y="495" text-anchor="middle" fill="#1D4ED8" font-size="10">多时区</text>
  <rect x="850" y="508" width="228" height="22" rx="5" fill="#EFF6FF" stroke="#93C5FD" stroke-width="0.8"/>
  <text x="964" y="523" text-anchor="middle" fill="#1D4ED8" font-size="10">多地区风控 · 注销差异</text>

  <!-- ==================== 第三层：外围系统 ==================== -->
  <rect x="30" y="554" width="1080" height="98" rx="10" fill="#fff" stroke="#E5E7EB" stroke-width="1.2"/>
  <rect x="30" y="554" width="6" height="98" rx="3" fill="#F59E0B"/>
  <text x="50" y="576" fill="#B45309" font-size="13" font-weight="700" letter-spacing="2">外围系统</text>
  <line x1="140" y1="571" x2="1090" y2="571" stroke="#E5E7EB" stroke-width="1"/>

  <!-- 依赖的平台能力 子标签 -->
  <rect x="50" y="584" width="100" height="20" rx="4" fill="#FEF3C7"/>
  <text x="100" y="598" text-anchor="middle" fill="#B45309" font-size="10" font-weight="600">依赖的平台能力</text>

  <rect x="50" y="610" width="200" height="32" rx="8" fill="#FFFBEB" stroke="#F59E0B" stroke-width="1.2" filter="url(#s)"/>
  <text x="150" y="631" text-anchor="middle" fill="#92400E" font-size="11" font-weight="600">验证码服务</text>

  <rect x="266" y="610" width="200" height="32" rx="8" fill="#FFFBEB" stroke="#F59E0B" stroke-width="1.2" filter="url(#s)"/>
  <text x="366" y="631" text-anchor="middle" fill="#92400E" font-size="11" font-weight="600">消息推送（SMS / 邮件）</text>

  <!-- 三方外部系统 子标签 -->
  <rect x="500" y="584" width="100" height="20" rx="4" fill="#FEF3C7"/>
  <text x="550" y="598" text-anchor="middle" fill="#B45309" font-size="10" font-weight="600">三方外部系统</text>

  <rect x="500" y="610" width="240" height="32" rx="8" fill="#FFFBEB" stroke="#F59E0B" stroke-width="1.2" filter="url(#s)"/>
  <text x="620" y="631" text-anchor="middle" fill="#92400E" font-size="10" font-weight="600">Google · Apple · Facebook OAuth</text>

  <rect x="756" y="610" width="150" height="32" rx="8" fill="#FFFBEB" stroke="#F59E0B" stroke-width="1.2" filter="url(#s)"/>
  <text x="831" y="631" text-anchor="middle" fill="#92400E" font-size="11" font-weight="600">SMS 服务商</text>

  <rect x="922" y="610" width="148" height="32" rx="8" fill="#FFFBEB" stroke="#F59E0B" stroke-width="1.2" filter="url(#s)"/>
  <text x="996" y="631" text-anchor="middle" fill="#92400E" font-size="11" font-weight="600">邮件服务商</text>

  <!-- ==================== 底部说明 ==================== -->
  <rect x="30" y="662" width="1080" height="26" rx="6" fill="#fff" stroke="#E5E7EB" stroke-width="0.8"/>
  <text x="570" y="680" text-anchor="middle" fill="#9CA3AF" font-size="9">用户层 → 系统能力层（业务能力 + 技术能力）→ 外围系统（平台能力 + 三方依赖）  |  范围：外部用户（C端 + B端商家）</text>
</svg>
