<svg xmlns="http://www.w3.org/2000/svg" viewBox="0 0 1140 712" font-family="'PingFang SC','Microsoft YaHei','Helvetica Neue',Arial,sans-serif">
  <defs>
    <filter id="s" x="-2%" y="-2%" width="104%" height="104%">
      <feDropShadow dx="0" dy="2" stdDeviation="3" flood-opacity="0.1"/>
    </filter>
  </defs>

  <rect width="1140" height="712" fill="#fff" rx="12"/>

  <!-- 标题栏 -->
  <rect x="0" y="0" width="1140" height="56" fill="#1E1F2E" rx="12"/>
  <rect x="0" y="32" width="1140" height="24" fill="#1E1F2E"/>
  <text x="570" y="34" text-anchor="middle" fill="#fff" font-size="20" font-weight="600">looply · 登录注册模块产品架构图</text>
  <text x="1100" y="34" text-anchor="end" fill="rgba(255,255,255,0.6)" font-size="11">v8.2 · 2026.03</text>

  <!-- ==================== 第一层：用户层 ==================== -->
  <rect x="30" y="66" width="1080" height="78" rx="10" fill="#fff" stroke="#E5E7EB" stroke-width="1.2"/>
  <rect x="30" y="66" width="6" height="78" rx="3" fill="#10B981"/>
  <text x="50" y="87" fill="#059669" font-size="13" font-weight="700" letter-spacing="2">用户层</text>
  <line x1="110" y1="82" x2="1090" y2="82" stroke="#E5E7EB" stroke-width="1"/>

  <rect x="50" y="96" width="500" height="38" rx="8" fill="#fff" stroke="#A7F3D0" stroke-width="1" filter="url(#s)"/>
  <text x="165" y="120" text-anchor="middle" fill="#059669" font-size="13" font-weight="600">C端用户（买家 + 卖家）</text>
  <rect x="335" y="103" width="50" height="22" rx="4" fill="#D1FAE5" stroke="#6EE7B7" stroke-width="0.6"/>
  <text x="360" y="118" text-anchor="middle" fill="#059669" font-size="9">App</text>
  <rect x="389" y="103" width="40" height="22" rx="4" fill="#D1FAE5" stroke="#6EE7B7" stroke-width="0.6"/>
  <text x="409" y="118" text-anchor="middle" fill="#059669" font-size="9">H5</text>
  <rect x="433" y="103" width="46" height="22" rx="4" fill="#D1FAE5" stroke="#6EE7B7" stroke-width="0.6"/>
  <text x="456" y="118" text-anchor="middle" fill="#059669" font-size="9">Web</text>
  <rect x="483" y="103" width="55" height="22" rx="4" fill="#D1FAE5" stroke="#6EE7B7" stroke-width="0.6"/>
  <text x="510" y="118" text-anchor="middle" fill="#059669" font-size="9">小程序</text>

  <rect x="570" y="96" width="520" height="38" rx="8" fill="#fff" stroke="#A7F3D0" stroke-width="1" filter="url(#s)"/>
  <text x="710" y="120" text-anchor="middle" fill="#059669" font-size="13" font-weight="600">B端商家</text>
  <rect x="810" y="103" width="80" height="22" rx="4" fill="#D1FAE5" stroke="#6EE7B7" stroke-width="0.6"/>
  <text x="850" y="118" text-anchor="middle" fill="#059669" font-size="9">商家后台</text>
  <rect x="896" y="103" width="40" height="22" rx="4" fill="#D1FAE5" stroke="#6EE7B7" stroke-width="0.6"/>
  <text x="916" y="118" text-anchor="middle" fill="#059669" font-size="9">PC</text>

  <!-- ==================== 第二层：系统能力层 ==================== -->
  <rect x="30" y="154" width="1080" height="404" rx="10" fill="#fff" stroke="#E5E7EB" stroke-width="1.2"/>
  <rect x="30" y="154" width="6" height="404" rx="3" fill="#4A6CF7"/>
  <text x="50" y="176" fill="#4A6CF7" font-size="13" font-weight="700" letter-spacing="2">系统能力层</text>
  <line x1="155" y1="171" x2="1090" y2="171" stroke="#E5E7EB" stroke-width="1"/>

  <!-- 业务能力 子层标签 -->
  <rect x="50" y="184" width="72" height="20" rx="4" fill="#DBEAFE"/>
  <text x="86" y="198" text-anchor="middle" fill="#2563EB" font-size="10" font-weight="600">业务能力</text>

  <!-- 注册 卡片高度 172: 标题26 + 5项*28 + 底部padding 6 -->
  <rect x="50" y="210" width="250" height="172" rx="10" fill="#fff" stroke="#60A5FA" stroke-width="1.5" filter="url(#s)"/>
  <rect x="50" y="210" width="250" height="26" rx="10" fill="#DBEAFE"/>
  <rect x="50" y="230" width="250" height="6" fill="#DBEAFE"/>
  <text x="175" y="229" text-anchor="middle" fill="#2563EB" font-size="12" font-weight="700">注册</text>
  <rect x="62" y="244" width="226" height="22" rx="5" fill="#EFF6FF" stroke="#93C5FD" stroke-width="0.8"/>
  <text x="175" y="259" text-anchor="middle" fill="#1D4ED8" font-size="10">手机号注册</text>
  <rect x="62" y="272" width="226" height="22" rx="5" fill="#EFF6FF" stroke="#93C5FD" stroke-width="0.8"/>
  <text x="175" y="287" text-anchor="middle" fill="#1D4ED8" font-size="10">邮箱注册</text>
  <rect x="62" y="300" width="226" height="22" rx="5" fill="#EFF6FF" stroke="#93C5FD" stroke-width="0.8"/>
  <text x="175" y="315" text-anchor="middle" fill="#1D4ED8" font-size="10">三方账号快捷注册（OAuth）</text>

  <!-- 登录 -->
  <rect x="316" y="210" width="250" height="172" rx="10" fill="#fff" stroke="#60A5FA" stroke-width="1.5" filter="url(#s)"/>
  <rect x="316" y="210" width="250" height="26" rx="10" fill="#DBEAFE"/>
  <rect x="316" y="230" width="250" height="6" fill="#DBEAFE"/>
  <text x="441" y="229" text-anchor="middle" fill="#2563EB" font-size="12" font-weight="700">登录</text>
  <rect x="328" y="244" width="226" height="22" rx="5" fill="#EFF6FF" stroke="#93C5FD" stroke-width="0.8"/>
  <text x="441" y="259" text-anchor="middle" fill="#1D4ED8" font-size="10">账号密码登录（邮箱/手机号）</text>
  <rect x="328" y="272" width="226" height="22" rx="5" fill="#EFF6FF" stroke="#93C5FD" stroke-width="0.8"/>
  <text x="441" y="287" text-anchor="middle" fill="#1D4ED8" font-size="10">验证码登录（手机号/邮箱）</text>
  <rect x="328" y="300" width="226" height="22" rx="5" fill="#EFF6FF" stroke="#93C5FD" stroke-width="0.8"/>
  <text x="441" y="315" text-anchor="middle" fill="#1D4ED8" font-size="10">三方账号登录（OAuth）</text>
  <rect x="328" y="328" width="226" height="22" rx="5" fill="#EFF6FF" stroke="#93C5FD" stroke-width="0.8"/>
  <text x="441" y="343" text-anchor="middle" fill="#1D4ED8" font-size="10">Passkey 登录（生物识别）</text>
  <rect x="328" y="356" width="226" height="22" rx="5" fill="#EFF6FF" stroke="#93C5FD" stroke-width="0.8"/>
  <text x="441" y="371" text-anchor="middle" fill="#1D4ED8" font-size="10">找回密码（邮箱/手机重置）</text>

  <!-- 账号安全与合规 -->
  <rect x="582" y="210" width="260" height="172" rx="10" fill="#fff" stroke="#60A5FA" stroke-width="1.5" filter="url(#s)"/>
  <rect x="582" y="210" width="260" height="26" rx="10" fill="#DBEAFE"/>
  <rect x="582" y="230" width="260" height="6" fill="#DBEAFE"/>
  <text x="712" y="229" text-anchor="middle" fill="#2563EB" font-size="12" font-weight="700">账号安全与合规</text>
  <rect x="594" y="244" width="236" height="22" rx="5" fill="#EFF6FF" stroke="#93C5FD" stroke-width="0.8"/>
  <text x="712" y="259" text-anchor="middle" fill="#1D4ED8" font-size="10">风险认证 MFA</text>
  <rect x="594" y="272" width="236" height="22" rx="5" fill="#EFF6FF" stroke="#93C5FD" stroke-width="0.8"/>
  <text x="712" y="287" text-anchor="middle" fill="#1D4ED8" font-size="10">密码修改</text>
  <rect x="594" y="300" width="236" height="22" rx="5" fill="#EFF6FF" stroke="#93C5FD" stroke-width="0.8"/>
  <text x="712" y="315" text-anchor="middle" fill="#1D4ED8" font-size="10">隐私协议与 Cookie 授权</text>
  <rect x="594" y="328" width="236" height="22" rx="5" fill="#EFF6FF" stroke="#93C5FD" stroke-width="0.8"/>
  <text x="712" y="343" text-anchor="middle" fill="#1D4ED8" font-size="10">数据合规（GDPR）</text>

  <!-- 账号管理 -->
  <rect x="858" y="210" width="232" height="172" rx="10" fill="#fff" stroke="#60A5FA" stroke-width="1.5" filter="url(#s)"/>
  <rect x="858" y="210" width="232" height="26" rx="10" fill="#DBEAFE"/>
  <rect x="858" y="230" width="232" height="6" fill="#DBEAFE"/>
  <text x="974" y="229" text-anchor="middle" fill="#2563EB" font-size="12" font-weight="700">账号管理</text>
  <rect x="870" y="244" width="208" height="22" rx="5" fill="#EFF6FF" stroke="#93C5FD" stroke-width="0.8"/>
  <text x="974" y="259" text-anchor="middle" fill="#1D4ED8" font-size="10">用户信息管理</text>
  <rect x="870" y="272" width="208" height="22" rx="5" fill="#EFF6FF" stroke="#93C5FD" stroke-width="0.8"/>
  <text x="974" y="287" text-anchor="middle" fill="#1D4ED8" font-size="10">三方账号绑定/解绑</text>
  <rect x="870" y="300" width="208" height="22" rx="5" fill="#EFF6FF" stroke="#93C5FD" stroke-width="0.8"/>
  <text x="974" y="315" text-anchor="middle" fill="#1D4ED8" font-size="10">设备管理与远程下线</text>
  <rect x="870" y="328" width="208" height="22" rx="5" fill="#EFF6FF" stroke="#93C5FD" stroke-width="0.8"/>
  <text x="974" y="343" text-anchor="middle" fill="#1D4ED8" font-size="10">角色切换</text>
  <rect x="870" y="356" width="208" height="22" rx="5" fill="#EFF6FF" stroke="#93C5FD" stroke-width="0.8"/>
  <text x="974" y="371" text-anchor="middle" fill="#1D4ED8" font-size="10">账号注销</text>

  <!-- 虚线分隔 -->
  <line x1="50" y1="396" x2="1090" y2="396" stroke="#D1D5DB" stroke-width="1" stroke-dasharray="5,3"/>

  <!-- 技术能力 子层标签 -->
  <rect x="50" y="406" width="72" height="20" rx="4" fill="#DBEAFE"/>
  <text x="86" y="420" text-anchor="middle" fill="#2563EB" font-size="10" font-weight="600">技术能力</text>

  <!-- 身份认证 -->
  <rect x="50" y="432" width="340" height="118" rx="10" fill="#fff" stroke="#60A5FA" stroke-width="1.5" filter="url(#s)"/>
  <rect x="50" y="432" width="340" height="26" rx="10" fill="#DBEAFE"/>
  <rect x="50" y="452" width="340" height="6" fill="#DBEAFE"/>
  <text x="220" y="451" text-anchor="middle" fill="#2563EB" font-size="11" font-weight="700">身份认证</text>
  <rect x="62" y="466" width="155" height="22" rx="5" fill="#EFF6FF" stroke="#93C5FD" stroke-width="0.8"/>
  <text x="139" y="481" text-anchor="middle" fill="#1D4ED8" font-size="10">Token 签发/刷新</text>
  <rect x="223" y="466" width="155" height="22" rx="5" fill="#EFF6FF" stroke="#93C5FD" stroke-width="0.8"/>
  <text x="300" y="481" text-anchor="middle" fill="#1D4ED8" font-size="10">会话管理</text>
  <rect x="62" y="494" width="155" height="22" rx="5" fill="#EFF6FF" stroke="#93C5FD" stroke-width="0.8"/>
  <text x="139" y="509" text-anchor="middle" fill="#1D4ED8" font-size="10">多端登录策略</text>
  <rect x="223" y="494" width="155" height="22" rx="5" fill="#EFF6FF" stroke="#93C5FD" stroke-width="0.8"/>
  <text x="300" y="509" text-anchor="middle" fill="#1D4ED8" font-size="10">密码加密存储</text>
  <rect x="62" y="522" width="155" height="22" rx="5" fill="#EFF6FF" stroke="#93C5FD" stroke-width="0.8"/>
  <text x="139" y="537" text-anchor="middle" fill="#1D4ED8" font-size="10">OAuth 协议对接</text>
  <rect x="223" y="522" width="155" height="22" rx="5" fill="#EFF6FF" stroke="#93C5FD" stroke-width="0.8"/>
  <text x="300" y="537" text-anchor="middle" fill="#1D4ED8" font-size="10">Passkey/FIDO2 对接</text>

  <!-- 安全风控 -->
  <rect x="406" y="432" width="340" height="118" rx="10" fill="#fff" stroke="#60A5FA" stroke-width="1.5" filter="url(#s)"/>
  <rect x="406" y="432" width="340" height="26" rx="10" fill="#DBEAFE"/>
  <rect x="406" y="452" width="340" height="6" fill="#DBEAFE"/>
  <text x="576" y="451" text-anchor="middle" fill="#2563EB" font-size="11" font-weight="700">安全风控</text>
  <rect x="418" y="466" width="155" height="22" rx="5" fill="#EFF6FF" stroke="#93C5FD" stroke-width="0.8"/>
  <text x="495" y="481" text-anchor="middle" fill="#1D4ED8" font-size="10">风控引擎</text>
  <rect x="579" y="466" width="155" height="22" rx="5" fill="#EFF6FF" stroke="#93C5FD" stroke-width="0.8"/>
  <text x="656" y="481" text-anchor="middle" fill="#1D4ED8" font-size="10">设备指纹</text>
  <rect x="418" y="494" width="155" height="22" rx="5" fill="#EFF6FF" stroke="#93C5FD" stroke-width="0.8"/>
  <text x="495" y="509" text-anchor="middle" fill="#1D4ED8" font-size="10">异常登录检测</text>
  <rect x="579" y="494" width="155" height="22" rx="5" fill="#EFF6FF" stroke="#93C5FD" stroke-width="0.8"/>
  <text x="656" y="509" text-anchor="middle" fill="#1D4ED8" font-size="10">暴力破解拦截</text>
  <rect x="418" y="522" width="316" height="22" rx="5" fill="#EFF6FF" stroke="#93C5FD" stroke-width="0.8"/>
  <text x="576" y="537" text-anchor="middle" fill="#1D4ED8" font-size="10">人机验证 · IP 风控</text>

  <!-- 国际化 -->
  <rect x="762" y="432" width="328" height="118" rx="10" fill="#fff" stroke="#60A5FA" stroke-width="1.5" filter="url(#s)"/>
  <rect x="762" y="432" width="328" height="26" rx="10" fill="#DBEAFE"/>
  <rect x="762" y="452" width="328" height="6" fill="#DBEAFE"/>
  <text x="926" y="451" text-anchor="middle" fill="#2563EB" font-size="11" font-weight="700">国际化</text>
  <rect x="774" y="466" width="152" height="22" rx="5" fill="#EFF6FF" stroke="#93C5FD" stroke-width="0.8"/>
  <text x="850" y="481" text-anchor="middle" fill="#1D4ED8" font-size="10">多语言 i18n</text>
  <rect x="932" y="466" width="146" height="22" rx="5" fill="#EFF6FF" stroke="#93C5FD" stroke-width="0.8"/>
  <text x="1005" y="481" text-anchor="middle" fill="#1D4ED8" font-size="10">多国手机号（区号适配）</text>
  <rect x="774" y="494" width="304" height="22" rx="5" fill="#EFF6FF" stroke="#93C5FD" stroke-width="0.8"/>
  <text x="926" y="509" text-anchor="middle" fill="#1D4ED8" font-size="10">多时区</text>

  <!-- ==================== 第三层：外围系统 ==================== -->
  <rect x="30" y="568" width="1080" height="98" rx="10" fill="#fff" stroke="#E5E7EB" stroke-width="1.2"/>
  <rect x="30" y="568" width="6" height="98" rx="3" fill="#F59E0B"/>
  <text x="50" y="590" fill="#B45309" font-size="13" font-weight="700" letter-spacing="2">外围系统</text>
  <line x1="140" y1="585" x2="1090" y2="585" stroke="#E5E7EB" stroke-width="1"/>

  <!-- 依赖的平台能力 子标签 -->
  <rect x="50" y="598" width="100" height="20" rx="4" fill="#FEF3C7"/>
  <text x="100" y="612" text-anchor="middle" fill="#B45309" font-size="10" font-weight="600">依赖的平台能力</text>

  <rect x="50" y="624" width="200" height="32" rx="8" fill="#FFFBEB" stroke="#F59E0B" stroke-width="1.2" filter="url(#s)"/>
  <text x="150" y="645" text-anchor="middle" fill="#92400E" font-size="11" font-weight="600">验证码服务</text>

  <rect x="266" y="624" width="200" height="32" rx="8" fill="#FFFBEB" stroke="#F59E0B" stroke-width="1.2" filter="url(#s)"/>
  <text x="366" y="645" text-anchor="middle" fill="#92400E" font-size="11" font-weight="600">消息推送（SMS / 邮件）</text>

  <!-- 三方外部系统 子标签 -->
  <rect x="500" y="598" width="100" height="20" rx="4" fill="#FEF3C7"/>
  <text x="550" y="612" text-anchor="middle" fill="#B45309" font-size="10" font-weight="600">三方外部系统</text>

  <rect x="500" y="624" width="240" height="32" rx="8" fill="#FFFBEB" stroke="#F59E0B" stroke-width="1.2" filter="url(#s)"/>
  <text x="620" y="645" text-anchor="middle" fill="#92400E" font-size="10" font-weight="600">Google · Apple · Facebook OAuth</text>

  <rect x="756" y="624" width="150" height="32" rx="8" fill="#FFFBEB" stroke="#F59E0B" stroke-width="1.2" filter="url(#s)"/>
  <text x="831" y="645" text-anchor="middle" fill="#92400E" font-size="11" font-weight="600">SMS 服务商</text>

  <rect x="922" y="624" width="148" height="32" rx="8" fill="#FFFBEB" stroke="#F59E0B" stroke-width="1.2" filter="url(#s)"/>
  <text x="996" y="645" text-anchor="middle" fill="#92400E" font-size="11" font-weight="600">邮件服务商</text>

  <!-- ==================== 底部说明 ==================== -->
  <rect x="30" y="676" width="1080" height="26" rx="6" fill="#fff" stroke="#E5E7EB" stroke-width="0.8"/>
  <text x="570" y="694" text-anchor="middle" fill="#9CA3AF" font-size="9">用户层 → 系统能力层（业务能力 + 技术能力）→ 外围系统（平台能力 + 三方依赖）  |  范围：外部用户（C端 + B端商家）</text>
</svg>