<svg xmlns="http://www.w3.org/2000/svg" viewBox="0 0 1140 920" font-family="'PingFang SC','Microsoft YaHei','Helvetica Neue',Arial,sans-serif">
  <defs>
    <filter id="s" x="-2%" y="-2%" width="104%" height="104%">
      <feDropShadow dx="0" dy="2" stdDeviation="3" flood-opacity="0.1"/>
    </filter>
    <linearGradient id="hg" x1="0" y1="0" x2="1" y2="0">
      <stop offset="0%" stop-color="#4A6CF7"/>
      <stop offset="100%" stop-color="#7B5EF2"/>
    </linearGradient>
  </defs>

  <rect width="1140" height="920" fill="#fff" rx="12"/>

  <!-- 标题栏 -->
  <rect x="0" y="0" width="1140" height="56" fill="url(#hg)" rx="12"/>
  <rect x="0" y="32" width="1140" height="24" fill="url(#hg)"/>
  <text x="570" y="34" text-anchor="middle" fill="#fff" font-size="20" font-weight="600">looply · 登录注册模块产品架构图</text>
  <text x="1100" y="34" text-anchor="end" fill="rgba(255,255,255,0.6)" font-size="11">v7.0 · 2026.03</text>

  <!-- ==================== 第一层：用户层 ==================== -->
  <rect x="30" y="66" width="1080" height="78" rx="10" fill="#F8F9FF" stroke="#E0E4FF" stroke-width="1"/>
  <text x="50" y="86" fill="#4A6CF7" font-size="13" font-weight="700" letter-spacing="2">用户层</text>
  <line x1="110" y1="81" x2="1090" y2="81" stroke="#E8ECFF" stroke-width="1"/>

  <!-- C端 -->
  <rect x="50" y="94" width="500" height="40" rx="8" fill="#EEF1FF" stroke="#C5CDFF" stroke-width="1.2" filter="url(#s)"/>
  <text x="170" y="119" text-anchor="middle" fill="#3A4CF7" font-size="13" font-weight="600">C端用户（买家 + 卖家）</text>
  <rect x="340" y="102" width="50" height="20" rx="4" fill="#DBEAFE" stroke="#93C5FD" stroke-width="0.6"/>
  <text x="365" y="116" text-anchor="middle" fill="#2563EB" font-size="9">App</text>
  <rect x="394" y="102" width="40" height="20" rx="4" fill="#DBEAFE" stroke="#93C5FD" stroke-width="0.6"/>
  <text x="414" y="116" text-anchor="middle" fill="#2563EB" font-size="9">H5</text>
  <rect x="438" y="102" width="46" height="20" rx="4" fill="#DBEAFE" stroke="#93C5FD" stroke-width="0.6"/>
  <text x="461" y="116" text-anchor="middle" fill="#2563EB" font-size="9">Web</text>
  <rect x="488" y="102" width="50" height="20" rx="4" fill="#DBEAFE" stroke="#93C5FD" stroke-width="0.6"/>
  <text x="513" y="116" text-anchor="middle" fill="#2563EB" font-size="9">小程序</text>

  <!-- B端 -->
  <rect x="570" y="94" width="520" height="40" rx="8" fill="#EEF1FF" stroke="#C5CDFF" stroke-width="1.2" filter="url(#s)"/>
  <text x="720" y="119" text-anchor="middle" fill="#3A4CF7" font-size="13" font-weight="600">B端商家</text>
  <rect x="810" y="102" width="80" height="20" rx="4" fill="#DBEAFE" stroke="#93C5FD" stroke-width="0.6"/>
  <text x="850" y="116" text-anchor="middle" fill="#2563EB" font-size="9">商家后台</text>
  <rect x="896" y="102" width="40" height="20" rx="4" fill="#DBEAFE" stroke="#93C5FD" stroke-width="0.6"/>
  <text x="916" y="116" text-anchor="middle" fill="#2563EB" font-size="9">PC</text>

  <!-- ==================== 第二层：业务层 ==================== -->
  <rect x="30" y="154" width="1080" height="68" rx="10" fill="#F8F9FF" stroke="#E0E4FF" stroke-width="1"/>
  <text x="50" y="176" fill="#4A6CF7" font-size="13" font-weight="700" letter-spacing="2">业务层</text>
  <text x="120" y="176" fill="#9CA3AF" font-size="10">业务模式</text>
  <line x1="200" y1="171" x2="1090" y2="171" stroke="#E8ECFF" stroke-width="1"/>

  <rect x="50" y="186" width="340" height="28" rx="7" fill="#EFF6FF" stroke="#93C5FD" stroke-width="1.2" filter="url(#s)"/>
  <text x="220" y="205" text-anchor="middle" fill="#2563EB" font-size="12" font-weight="600">个人交易（C2C 买卖）</text>

  <rect x="410" y="186" width="340" height="28" rx="7" fill="#EFF6FF" stroke="#93C5FD" stroke-width="1.2" filter="url(#s)"/>
  <text x="580" y="205" text-anchor="middle" fill="#2563EB" font-size="12" font-weight="600">商家经营（B2C 入驻销售）</text>

  <rect x="770" y="186" width="320" height="28" rx="7" fill="#EFF6FF" stroke="#93C5FD" stroke-width="1.2" filter="url(#s)"/>
  <text x="930" y="205" text-anchor="middle" fill="#2563EB" font-size="12" font-weight="600">多渠道销售（线上 + 线下 + 三方）</text>

  <!-- ==================== 第三层：解决方案 ==================== -->
  <rect x="30" y="232" width="1080" height="200" rx="10" fill="#F8F9FF" stroke="#E0E4FF" stroke-width="1"/>
  <text x="50" y="254" fill="#4A6CF7" font-size="13" font-weight="700" letter-spacing="2">解决方案</text>
  <text x="140" y="254" fill="#9CA3AF" font-size="10">基于系统能力打包对外提供</text>
  <line x1="320" y1="249" x2="1090" y2="249" stroke="#E8ECFF" stroke-width="1"/>

  <!-- 注册方案 -->
  <rect x="50" y="264" width="250" height="158" rx="10" fill="#fff" stroke="#60A5FA" stroke-width="1.5" filter="url(#s)"/>
  <rect x="50" y="264" width="250" height="26" rx="10" fill="#DBEAFE"/>
  <rect x="50" y="284" width="250" height="6" fill="#DBEAFE"/>
  <text x="175" y="283" text-anchor="middle" fill="#2563EB" font-size="12" font-weight="700">注册方案</text>
  <rect x="62" y="298" width="110" height="22" rx="5" fill="#EFF6FF" stroke="#93C5FD" stroke-width="0.8"/>
  <text x="117" y="313" text-anchor="middle" fill="#1D4ED8" font-size="10">手机号注册</text>
  <rect x="178" y="298" width="110" height="22" rx="5" fill="#EFF6FF" stroke="#93C5FD" stroke-width="0.8"/>
  <text x="233" y="313" text-anchor="middle" fill="#1D4ED8" font-size="10">邮箱注册</text>
  <rect x="62" y="326" width="226" height="22" rx="5" fill="#EFF6FF" stroke="#93C5FD" stroke-width="0.8"/>
  <text x="175" y="341" text-anchor="middle" fill="#1D4ED8" font-size="10">三方账号快捷注册</text>
  <rect x="62" y="354" width="226" height="22" rx="5" fill="#EFF6FF" stroke="#93C5FD" stroke-width="0.8"/>
  <text x="175" y="369" text-anchor="middle" fill="#1D4ED8" font-size="10">邮箱/手机验证激活</text>
  <rect x="62" y="382" width="226" height="22" rx="5" fill="#EFF6FF" stroke="#93C5FD" stroke-width="0.8"/>
  <text x="175" y="397" text-anchor="middle" fill="#1D4ED8" font-size="10">商家入驻申请</text>

  <!-- 登录方案 -->
  <rect x="316" y="264" width="250" height="158" rx="10" fill="#fff" stroke="#60A5FA" stroke-width="1.5" filter="url(#s)"/>
  <rect x="316" y="264" width="250" height="26" rx="10" fill="#DBEAFE"/>
  <rect x="316" y="284" width="250" height="6" fill="#DBEAFE"/>
  <text x="441" y="283" text-anchor="middle" fill="#2563EB" font-size="12" font-weight="700">登录方案</text>
  <rect x="328" y="298" width="110" height="22" rx="5" fill="#EFF6FF" stroke="#93C5FD" stroke-width="0.8"/>
  <text x="383" y="313" text-anchor="middle" fill="#1D4ED8" font-size="10">密码登录</text>
  <rect x="444" y="298" width="110" height="22" rx="5" fill="#EFF6FF" stroke="#93C5FD" stroke-width="0.8"/>
  <text x="499" y="313" text-anchor="middle" fill="#1D4ED8" font-size="10">验证码登录</text>
  <rect x="328" y="326" width="110" height="22" rx="5" fill="#EFF6FF" stroke="#93C5FD" stroke-width="0.8"/>
  <text x="383" y="341" text-anchor="middle" fill="#1D4ED8" font-size="10">OAuth 登录</text>
  <rect x="444" y="326" width="110" height="22" rx="5" fill="#EFF6FF" stroke="#93C5FD" stroke-width="0.8"/>
  <text x="499" y="341" text-anchor="middle" fill="#1D4ED8" font-size="10">免密 / SSO</text>
  <rect x="328" y="354" width="226" height="22" rx="5" fill="#EFF6FF" stroke="#93C5FD" stroke-width="0.8"/>
  <text x="441" y="369" text-anchor="middle" fill="#1D4ED8" font-size="10">找回密码（邮箱/手机重置）</text>
  <rect x="328" y="382" width="226" height="22" rx="5" fill="#EFF6FF" stroke="#93C5FD" stroke-width="0.8"/>
  <text x="441" y="397" text-anchor="middle" fill="#1D4ED8" font-size="10">记住我 / 自动登录</text>

  <!-- 账号安全方案 -->
  <rect x="582" y="264" width="240" height="158" rx="10" fill="#fff" stroke="#F59E0B" stroke-width="1.5" filter="url(#s)"/>
  <rect x="582" y="264" width="240" height="26" rx="10" fill="#FEF3C7"/>
  <rect x="582" y="284" width="240" height="6" fill="#FEF3C7"/>
  <text x="702" y="283" text-anchor="middle" fill="#B45309" font-size="12" font-weight="700">账号安全方案</text>
  <rect x="594" y="298" width="216" height="22" rx="5" fill="#FFFBEB" stroke="#FCD34D" stroke-width="0.8"/>
  <text x="702" y="313" text-anchor="middle" fill="#92400E" font-size="10">多因素认证 MFA</text>
  <rect x="594" y="326" width="216" height="22" rx="5" fill="#FFFBEB" stroke="#FCD34D" stroke-width="0.8"/>
  <text x="702" y="341" text-anchor="middle" fill="#92400E" font-size="10">密码修改</text>
  <rect x="594" y="354" width="216" height="22" rx="5" fill="#FFFBEB" stroke="#FCD34D" stroke-width="0.8"/>
  <text x="702" y="369" text-anchor="middle" fill="#92400E" font-size="10">安全设置（登录通知等）</text>

  <!-- 账号管理方案 -->
  <rect x="838" y="264" width="252" height="158" rx="10" fill="#fff" stroke="#A78BFA" stroke-width="1.5" filter="url(#s)"/>
  <rect x="838" y="264" width="252" height="26" rx="10" fill="#EDE9FE"/>
  <rect x="838" y="284" width="252" height="6" fill="#EDE9FE"/>
  <text x="964" y="283" text-anchor="middle" fill="#6D28D9" font-size="12" font-weight="700">账号管理方案</text>
  <rect x="850" y="298" width="228" height="22" rx="5" fill="#F5F3FF" stroke="#C4B5FD" stroke-width="0.8"/>
  <text x="964" y="313" text-anchor="middle" fill="#5B21B6" font-size="10">用户信息管理</text>
  <rect x="850" y="326" width="228" height="22" rx="5" fill="#F5F3FF" stroke="#C4B5FD" stroke-width="0.8"/>
  <text x="964" y="341" text-anchor="middle" fill="#5B21B6" font-size="10">三方账号绑定/解绑</text>
  <rect x="850" y="354" width="228" height="22" rx="5" fill="#F5F3FF" stroke="#C4B5FD" stroke-width="0.8"/>
  <text x="964" y="369" text-anchor="middle" fill="#5B21B6" font-size="10">设备管理 · 远程下线</text>
  <rect x="850" y="382" width="108" height="22" rx="5" fill="#F5F3FF" stroke="#C4B5FD" stroke-width="0.8"/>
  <text x="904" y="397" text-anchor="middle" fill="#5B21B6" font-size="10">角色切换</text>
  <rect x="964" y="382" width="114" height="22" rx="5" fill="#F5F3FF" stroke="#C4B5FD" stroke-width="0.8"/>
  <text x="1021" y="397" text-anchor="middle" fill="#5B21B6" font-size="10">账号注销</text>

  <!-- ==================== 第四层：系统能力层 ==================== -->
  <rect x="30" y="442" width="1080" height="310" rx="10" fill="#F8FAFB" stroke="#E0E4FF" stroke-width="1"/>
  <text x="50" y="464" fill="#4A6CF7" font-size="13" font-weight="700" letter-spacing="2">系统能力层</text>
  <text x="155" y="464" fill="#9CA3AF" font-size="10">垂直域能力</text>
  <line x1="240" y1="459" x2="1090" y2="459" stroke="#E8ECFF" stroke-width="1"/>

  <!-- 身份认证 -->
  <rect x="50" y="476" width="250" height="120" rx="10" fill="#fff" stroke="#60A5FA" stroke-width="1.5" filter="url(#s)"/>
  <rect x="50" y="476" width="250" height="26" rx="10" fill="#DBEAFE"/>
  <rect x="50" y="496" width="250" height="6" fill="#DBEAFE"/>
  <text x="175" y="495" text-anchor="middle" fill="#2563EB" font-size="11" font-weight="700">身份认证</text>
  <rect x="62" y="510" width="110" height="22" rx="5" fill="#EFF6FF" stroke="#93C5FD" stroke-width="0.8"/>
  <text x="117" y="525" text-anchor="middle" fill="#1D4ED8" font-size="10">Token 签发/刷新</text>
  <rect x="178" y="510" width="110" height="22" rx="5" fill="#EFF6FF" stroke="#93C5FD" stroke-width="0.8"/>
  <text x="233" y="525" text-anchor="middle" fill="#1D4ED8" font-size="10">会话管理</text>
  <rect x="62" y="538" width="110" height="22" rx="5" fill="#EFF6FF" stroke="#93C5FD" stroke-width="0.8"/>
  <text x="117" y="553" text-anchor="middle" fill="#1D4ED8" font-size="10">多端登录策略</text>
  <rect x="178" y="538" width="110" height="22" rx="5" fill="#EFF6FF" stroke="#93C5FD" stroke-width="0.8"/>
  <text x="233" y="553" text-anchor="middle" fill="#1D4ED8" font-size="10">密码加密存储</text>
  <rect x="62" y="566" width="226" height="22" rx="5" fill="#EFF6FF" stroke="#93C5FD" stroke-width="0.8"/>
  <text x="175" y="581" text-anchor="middle" fill="#1D4ED8" font-size="10">OAuth 协议对接</text>

  <!-- 安全风控 -->
  <rect x="316" y="476" width="250" height="120" rx="10" fill="#fff" stroke="#F59E0B" stroke-width="1.5" filter="url(#s)"/>
  <rect x="316" y="476" width="250" height="26" rx="10" fill="#FEF3C7"/>
  <rect x="316" y="496" width="250" height="6" fill="#FEF3C7"/>
  <text x="441" y="495" text-anchor="middle" fill="#B45309" font-size="11" font-weight="700">安全风控</text>
  <rect x="328" y="510" width="110" height="22" rx="5" fill="#FFFBEB" stroke="#FCD34D" stroke-width="0.8"/>
  <text x="383" y="525" text-anchor="middle" fill="#92400E" font-size="10">风控引擎</text>
  <rect x="444" y="510" width="110" height="22" rx="5" fill="#FFFBEB" stroke="#FCD34D" stroke-width="0.8"/>
  <text x="499" y="525" text-anchor="middle" fill="#92400E" font-size="10">设备指纹</text>
  <rect x="328" y="538" width="110" height="22" rx="5" fill="#FFFBEB" stroke="#FCD34D" stroke-width="0.8"/>
  <text x="383" y="553" text-anchor="middle" fill="#92400E" font-size="10">异常登录检测</text>
  <rect x="444" y="538" width="110" height="22" rx="5" fill="#FFFBEB" stroke="#FCD34D" stroke-width="0.8"/>
  <text x="499" y="553" text-anchor="middle" fill="#92400E" font-size="10">暴力破解拦截</text>
  <rect x="328" y="566" width="226" height="22" rx="5" fill="#FFFBEB" stroke="#FCD34D" stroke-width="0.8"/>
  <text x="441" y="581" text-anchor="middle" fill="#92400E" font-size="10">人机验证 · IP 风控</text>

  <!-- 合规引擎 -->
  <rect x="582" y="476" width="240" height="120" rx="10" fill="#fff" stroke="#F0D9B5" stroke-width="1.5" filter="url(#s)"/>
  <rect x="582" y="476" width="240" height="26" rx="10" fill="#FFF8F0"/>
  <rect x="582" y="496" width="240" height="6" fill="#FFF8F0"/>
  <text x="702" y="495" text-anchor="middle" fill="#B45309" font-size="11" font-weight="700">合规引擎</text>
  <rect x="594" y="510" width="216" height="22" rx="5" fill="#FFF8F0" stroke="#F0D9B5" stroke-width="0.8"/>
  <text x="702" y="525" text-anchor="middle" fill="#92400E" font-size="10">协议版本管理</text>
  <rect x="594" y="538" width="216" height="22" rx="5" fill="#FFF8F0" stroke="#F0D9B5" stroke-width="0.8"/>
  <text x="702" y="553" text-anchor="middle" fill="#92400E" font-size="10">隐私政策 · Cookie Consent</text>
  <rect x="594" y="566" width="104" height="22" rx="5" fill="#FFF8F0" stroke="#F0D9B5" stroke-width="0.8"/>
  <text x="646" y="581" text-anchor="middle" fill="#92400E" font-size="10">GDPR 权利</text>
  <rect x="704" y="566" width="106" height="22" rx="5" fill="#FFF8F0" stroke="#F0D9B5" stroke-width="0.8"/>
  <text x="757" y="581" text-anchor="middle" fill="#92400E" font-size="10">日志留存</text>

  <!-- 国际化 -->
  <rect x="838" y="476" width="252" height="120" rx="10" fill="#fff" stroke="#60A5FA" stroke-width="1.2" filter="url(#s)"/>
  <rect x="838" y="476" width="252" height="26" rx="10" fill="#F0F8FF"/>
  <rect x="838" y="496" width="252" height="6" fill="#F0F8FF"/>
  <text x="964" y="495" text-anchor="middle" fill="#1A73A7" font-size="11" font-weight="700">国际化</text>
  <rect x="850" y="510" width="108" height="22" rx="5" fill="#F0F8FF" stroke="#B3D9F2" stroke-width="0.8"/>
  <text x="904" y="525" text-anchor="middle" fill="#2563EB" font-size="10">多语言 i18n</text>
  <rect x="964" y="510" width="114" height="22" rx="5" fill="#F0F8FF" stroke="#B3D9F2" stroke-width="0.8"/>
  <text x="1021" y="525" text-anchor="middle" fill="#2563EB" font-size="10">多国手机号</text>
  <rect x="850" y="538" width="108" height="22" rx="5" fill="#F0F8FF" stroke="#B3D9F2" stroke-width="0.8"/>
  <text x="904" y="553" text-anchor="middle" fill="#2563EB" font-size="10">国际区号</text>
  <rect x="964" y="538" width="114" height="22" rx="5" fill="#F0F8FF" stroke="#B3D9F2" stroke-width="0.8"/>
  <text x="1021" y="553" text-anchor="middle" fill="#2563EB" font-size="10">多时区</text>
  <rect x="850" y="566" width="228" height="22" rx="5" fill="#F0F8FF" stroke="#B3D9F2" stroke-width="0.8"/>
  <text x="964" y="581" text-anchor="middle" fill="#2563EB" font-size="10">多地区风控 · 注销差异</text>

  <!-- 通用基础 -->
  <line x1="50" y1="604" x2="1070" y2="604" stroke="#E2E8F0" stroke-width="1" stroke-dasharray="4,3"/>
  <text x="60" y="620" fill="#6B7280" font-size="10" font-weight="600">通用基础</text>

  <rect x="50" y="630" width="200" height="34" rx="8" fill="#F0FDF4" stroke="#86EFAC" stroke-width="1.2" filter="url(#s)"/>
  <text x="150" y="652" text-anchor="middle" fill="#166534" font-size="11" font-weight="600">验证码服务</text>
  <rect x="266" y="630" width="200" height="34" rx="8" fill="#F0FDF4" stroke="#86EFAC" stroke-width="1.2" filter="url(#s)"/>
  <text x="366" y="652" text-anchor="middle" fill="#166534" font-size="11" font-weight="600">消息推送（SMS/邮件）</text>
  <rect x="482" y="630" width="200" height="34" rx="8" fill="#F0FDF4" stroke="#86EFAC" stroke-width="1.2" filter="url(#s)"/>
  <text x="582" y="652" text-anchor="middle" fill="#166534" font-size="11" font-weight="600">日志与审计</text>
  <rect x="698" y="630" width="200" height="34" rx="8" fill="#F0FDF4" stroke="#86EFAC" stroke-width="1.2" filter="url(#s)"/>
  <text x="798" y="652" text-anchor="middle" fill="#166534" font-size="11" font-weight="600">数据加密</text>
  <rect x="914" y="630" width="156" height="34" rx="8" fill="#F0FDF4" stroke="#86EFAC" stroke-width="1.2" filter="url(#s)"/>
  <text x="992" y="652" text-anchor="middle" fill="#166534" font-size="11" font-weight="600">缓存服务</text>

  <!-- ==================== 第五层：外围系统 ==================== -->
  <rect x="30" y="762" width="1080" height="72" rx="10" fill="#F8F9FF" stroke="#E0E4FF" stroke-width="1"/>
  <text x="50" y="784" fill="#4A6CF7" font-size="13" font-weight="700" letter-spacing="2">外围系统</text>
  <line x1="130" y1="779" x2="1090" y2="779" stroke="#E8ECFF" stroke-width="1"/>

  <rect x="50" y="794" width="380" height="30" rx="7" fill="#EEF1FF" stroke="#C5CDFF" stroke-width="1" filter="url(#s)"/>
  <text x="60" y="808" fill="#4A6CF7" font-size="8" font-weight="700">三方认证</text>
  <text x="240" y="814" text-anchor="middle" fill="#2563EB" font-size="10">Google · Apple · Facebook OAuth</text>

  <rect x="446" y="794" width="340" height="30" rx="7" fill="#F0FDF4" stroke="#86EFAC" stroke-width="1" filter="url(#s)"/>
  <text x="456" y="808" fill="#166534" font-size="8" font-weight="700">消息通道</text>
  <text x="616" y="814" text-anchor="middle" fill="#166534" font-size="10">SMS 服务商 · 邮件服务商</text>

  <rect x="802" y="794" width="288" height="30" rx="7" fill="#FEF3C7" stroke="#F59E0B" stroke-width="1" filter="url(#s)"/>
  <text x="812" y="808" fill="#B45309" font-size="8" font-weight="700">安全服务</text>
  <text x="946" y="814" text-anchor="middle" fill="#92400E" font-size="10">人机验证 · 风控数据源</text>

  <!-- ==================== 图例 ==================== -->
  <line x1="40" y1="850" x2="1100" y2="850" stroke="#E8ECFF" stroke-width="1"/>

  <rect x="50" y="862" width="14" height="14" rx="4" fill="#DBEAFE" stroke="#60A5FA" stroke-width="1"/>
  <text x="70" y="874" fill="#555" font-size="10">身份认证</text>
  <rect x="140" y="862" width="14" height="14" rx="4" fill="#FEF3C7" stroke="#F59E0B" stroke-width="1"/>
  <text x="160" y="874" fill="#555" font-size="10">安全风控</text>
  <rect x="230" y="862" width="14" height="14" rx="4" fill="#FFF8F0" stroke="#F0D9B5" stroke-width="1"/>
  <text x="250" y="874" fill="#555" font-size="10">合规</text>
  <rect x="290" y="862" width="14" height="14" rx="4" fill="#F0F8FF" stroke="#B3D9F2" stroke-width="1"/>
  <text x="310" y="874" fill="#555" font-size="10">国际化</text>
  <rect x="360" y="862" width="14" height="14" rx="4" fill="#EDE9FE" stroke="#A78BFA" stroke-width="1"/>
  <text x="380" y="874" fill="#555" font-size="10">账号管理</text>
  <rect x="450" y="862" width="14" height="14" rx="4" fill="#F0FDF4" stroke="#86EFAC" stroke-width="1"/>
  <text x="470" y="874" fill="#555" font-size="10">通用基础/外部服务</text>

  <text x="50" y="900" fill="#9CA3AF" font-size="8">用户层 → 业务层（业务模式）→ 解决方案（打包能力）→ 系统能力层（垂直域 + 通用基础）→ 外围系统（三方依赖）  |  范围：外部用户（C端 + B端商家）</text>
</svg>