<svg xmlns="http://www.w3.org/2000/svg" viewBox="0 0 1140 700" font-family="'PingFang SC','Microsoft YaHei','Helvetica Neue',Arial,sans-serif">
  <!--
  @structured-data: yaml
  module: 登录注册模块
  version: v8.4
  date: 2026-03
  scope: 外部用户（C端 + B端商家），不含内部运营

  layers:
    - name: 用户层
      groups:
        - name: C端用户（买家 + 卖家）
          channels: [App, H5, Web]
        - name: B端商家
          channels: [商家后台（PC）]

    - name: 核心能力
      sublayers:
        - name: 业务能力
          modules:
            - name: 注册
              items:
                - 手机号注册
                - 邮箱注册
                - Google 快捷注册
                - Apple 快捷注册
                - Facebook 快捷注册

            - name: 登录
              items:
                - 账号密码登录（邮箱/手机号）
                - 验证码登录（手机号/邮箱）
                - 三方账号登录（OAuth）
                - Passkey 登录（生物识别）
                - 找回密码（邮箱/手机重置）

            - name: 账号安全与合规
              items:
                - 风险认证 MFA
                - 密码修改
                - 隐私协议与 Cookie 授权
                - 数据合规（GDPR）

            - name: 账号管理
              items:
                - 用户信息管理
                - 三方账号绑定/解绑
                - 设备管理与远程下线
                - 账号注销

        - name: 技术能力
          modules:
            - name: 身份认证
              items:
                - 会话与 Token 管理
                - 多端登录策略
                - 用户数据分区（按国家/地区）
                - 密码加密存储
                - OAuth 协议对接
                - Passkey/FIDO2 对接
                - 多国手机号（区号适配）

            - name: 安全风控
              items:
                - 异常登录检测
                - 暴力破解拦截
                - 设备指纹
                - 人机验证 · IP 风控

    - name: 外围系统
      groups:
        - name: 依赖的平台能力
          items:
            - 验证码服务
            - 消息推送（SMS / 邮件）
            - 多语言 · 多时区
        - name: 三方外部系统
          items:
            - OAuth
            - SMS 服务商
            - 邮件服务商
  -->
  <defs>
    <filter id="s" x="-2%" y="-2%" width="104%" height="104%">
      <feDropShadow dx="0" dy="2" stdDeviation="3" flood-opacity="0.1"/>
    </filter>
  </defs>

  <rect width="1140" height="700" fill="#F9FAFB" rx="12"/>

  <!-- 标题栏 -->
  <rect x="0" y="0" width="1140" height="56" fill="#1E1F2E" rx="12"/>
  <rect x="0" y="32" width="1140" height="24" fill="#1E1F2E"/>
  <text x="570" y="34" text-anchor="middle" fill="#fff" font-size="20" font-weight="600">looply · 登录注册模块产品架构图</text>
  <text x="1100" y="34" text-anchor="end" fill="rgba(255,255,255,0.6)" font-size="11">v8.4 · 2026.03</text>

  <!-- ==================== 第一层：用户层 ==================== -->
  <rect x="30" y="66" width="1080" height="78" rx="10" fill="#fff" stroke="#E5E7EB" stroke-width="1.2"/>
  <rect x="30" y="66" width="6" height="78" rx="3" fill="#10B981"/>
  <text x="50" y="87" fill="#059669" font-size="13" font-weight="700" letter-spacing="2">用户层</text>
  <line x1="110" y1="82" x2="1090" y2="82" stroke="#E5E7EB" stroke-width="1"/>

  <rect x="50" y="96" width="500" height="38" rx="8" fill="#fff" stroke="#A7F3D0" stroke-width="1" filter="url(#s)"/>
  <text x="165" y="120" text-anchor="middle" fill="#059669" font-size="13" font-weight="600">C端用户（买家 + 卖家）</text>
  <rect x="335" y="103" width="50" height="22" rx="4" fill="#D1FAE5" stroke="#6EE7B7" stroke-width="0.6"/>
  <text x="360" y="118" text-anchor="middle" fill="#059669" font-size="9">App</text>
  <rect x="389" y="103" width="40" height="22" rx="4" fill="#D1FAE5" stroke="#6EE7B7" stroke-width="0.6"/>
  <text x="409" y="118" text-anchor="middle" fill="#059669" font-size="9">H5</text>
  <rect x="433" y="103" width="46" height="22" rx="4" fill="#D1FAE5" stroke="#6EE7B7" stroke-width="0.6"/>
  <text x="456" y="118" text-anchor="middle" fill="#059669" font-size="9">Web</text>

  <rect x="570" y="96" width="520" height="38" rx="8" fill="#fff" stroke="#A7F3D0" stroke-width="1" filter="url(#s)"/>
  <text x="710" y="120" text-anchor="middle" fill="#059669" font-size="13" font-weight="600">B端商家</text>
  <rect x="850" y="103" width="100" height="22" rx="4" fill="#D1FAE5" stroke="#6EE7B7" stroke-width="0.6"/>
  <text x="900" y="118" text-anchor="middle" fill="#059669" font-size="9">商家后台（PC）</text>

  <!-- ==================== 第二层：核心能力 ==================== -->
  <rect x="30" y="154" width="1080" height="376" rx="10" fill="#fff" stroke="#E5E7EB" stroke-width="1.2"/>
  <rect x="30" y="154" width="6" height="376" rx="3" fill="#4A6CF7"/>
  <text x="50" y="176" fill="#4A6CF7" font-size="13" font-weight="700" letter-spacing="2">核心能力</text>
  <line x1="155" y1="171" x2="1090" y2="171" stroke="#E5E7EB" stroke-width="1"/>

  <!-- 业务能力 子层标签 -->
  <rect x="50" y="184" width="72" height="20" rx="4" fill="#DBEAFE"/>
  <text x="86" y="198" text-anchor="middle" fill="#2563EB" font-size="10" font-weight="600">业务能力</text>

  <!-- 注册 高度统一172 -->
  <rect x="50" y="210" width="250" height="172" rx="10" fill="#fff" stroke="#60A5FA" stroke-width="1.5" filter="url(#s)"/>
  <rect x="50" y="210" width="250" height="26" rx="10" fill="#DBEAFE"/>
  <rect x="50" y="230" width="250" height="6" fill="#DBEAFE"/>
  <text x="175" y="229" text-anchor="middle" fill="#2563EB" font-size="12" font-weight="700">注册</text>
  <rect x="62" y="244" width="226" height="22" rx="5" fill="#EFF6FF" stroke="#93C5FD" stroke-width="0.8"/>
  <text x="175" y="259" text-anchor="middle" fill="#1D4ED8" font-size="10">手机号注册</text>
  <rect x="62" y="272" width="226" height="22" rx="5" fill="#EFF6FF" stroke="#93C5FD" stroke-width="0.8"/>
  <text x="175" y="287" text-anchor="middle" fill="#1D4ED8" font-size="10">邮箱注册</text>
  <rect x="62" y="300" width="226" height="22" rx="5" fill="#EFF6FF" stroke="#93C5FD" stroke-width="0.8"/>
  <text x="175" y="315" text-anchor="middle" fill="#1D4ED8" font-size="10">Google 快捷注册</text>
  <rect x="62" y="328" width="226" height="22" rx="5" fill="#EFF6FF" stroke="#93C5FD" stroke-width="0.8"/>
  <text x="175" y="343" text-anchor="middle" fill="#1D4ED8" font-size="10">Apple 快捷注册</text>
  <rect x="62" y="356" width="226" height="22" rx="5" fill="#EFF6FF" stroke="#93C5FD" stroke-width="0.8"/>
  <text x="175" y="371" text-anchor="middle" fill="#1D4ED8" font-size="10">Facebook 快捷注册</text>

  <!-- 登录 高度172 -->
  <rect x="316" y="210" width="250" height="172" rx="10" fill="#fff" stroke="#60A5FA" stroke-width="1.5" filter="url(#s)"/>
  <rect x="316" y="210" width="250" height="26" rx="10" fill="#DBEAFE"/>
  <rect x="316" y="230" width="250" height="6" fill="#DBEAFE"/>
  <text x="441" y="229" text-anchor="middle" fill="#2563EB" font-size="12" font-weight="700">登录</text>
  <rect x="328" y="244" width="226" height="22" rx="5" fill="#EFF6FF" stroke="#93C5FD" stroke-width="0.8"/>
  <text x="441" y="259" text-anchor="middle" fill="#1D4ED8" font-size="10">账号密码登录（邮箱/手机号）</text>
  <rect x="328" y="272" width="226" height="22" rx="5" fill="#EFF6FF" stroke="#93C5FD" stroke-width="0.8"/>
  <text x="441" y="287" text-anchor="middle" fill="#1D4ED8" font-size="10">验证码登录（手机号/邮箱）</text>
  <rect x="328" y="300" width="226" height="22" rx="5" fill="#EFF6FF" stroke="#93C5FD" stroke-width="0.8"/>
  <text x="441" y="315" text-anchor="middle" fill="#1D4ED8" font-size="10">三方账号登录（OAuth）</text>
  <rect x="328" y="328" width="226" height="22" rx="5" fill="#EFF6FF" stroke="#93C5FD" stroke-width="0.8"/>
  <text x="441" y="343" text-anchor="middle" fill="#1D4ED8" font-size="10">Passkey 登录（生物识别）</text>
  <rect x="328" y="356" width="226" height="22" rx="5" fill="#EFF6FF" stroke="#93C5FD" stroke-width="0.8"/>
  <text x="441" y="371" text-anchor="middle" fill="#1D4ED8" font-size="10">找回密码（邮箱/手机重置）</text>

  <!-- 账号安全与合规 高度统一172 -->
  <rect x="582" y="210" width="260" height="172" rx="10" fill="#fff" stroke="#60A5FA" stroke-width="1.5" filter="url(#s)"/>
  <rect x="582" y="210" width="260" height="26" rx="10" fill="#DBEAFE"/>
  <rect x="582" y="230" width="260" height="6" fill="#DBEAFE"/>
  <text x="712" y="229" text-anchor="middle" fill="#2563EB" font-size="12" font-weight="700">账号安全与合规</text>
  <rect x="594" y="244" width="236" height="22" rx="5" fill="#EFF6FF" stroke="#93C5FD" stroke-width="0.8"/>
  <text x="712" y="259" text-anchor="middle" fill="#1D4ED8" font-size="10">风险认证 MFA</text>
  <rect x="594" y="272" width="236" height="22" rx="5" fill="#EFF6FF" stroke="#93C5FD" stroke-width="0.8"/>
  <text x="712" y="287" text-anchor="middle" fill="#1D4ED8" font-size="10">密码修改</text>
  <rect x="594" y="300" width="236" height="22" rx="5" fill="#EFF6FF" stroke="#93C5FD" stroke-width="0.8"/>
  <text x="712" y="315" text-anchor="middle" fill="#1D4ED8" font-size="10">隐私协议与 Cookie 授权</text>
  <rect x="594" y="328" width="236" height="22" rx="5" fill="#EFF6FF" stroke="#93C5FD" stroke-width="0.8"/>
  <text x="712" y="343" text-anchor="middle" fill="#1D4ED8" font-size="10">数据合规（GDPR）</text>

  <!-- 账号管理 高度统一172 -->
  <rect x="858" y="210" width="232" height="172" rx="10" fill="#fff" stroke="#60A5FA" stroke-width="1.5" filter="url(#s)"/>
  <rect x="858" y="210" width="232" height="26" rx="10" fill="#DBEAFE"/>
  <rect x="858" y="230" width="232" height="6" fill="#DBEAFE"/>
  <text x="974" y="229" text-anchor="middle" fill="#2563EB" font-size="12" font-weight="700">账号管理</text>
  <rect x="870" y="244" width="208" height="22" rx="5" fill="#EFF6FF" stroke="#93C5FD" stroke-width="0.8"/>
  <text x="974" y="259" text-anchor="middle" fill="#1D4ED8" font-size="10">用户信息管理</text>
  <rect x="870" y="272" width="208" height="22" rx="5" fill="#EFF6FF" stroke="#93C5FD" stroke-width="0.8"/>
  <text x="974" y="287" text-anchor="middle" fill="#1D4ED8" font-size="10">三方账号绑定/解绑</text>
  <rect x="870" y="300" width="208" height="22" rx="5" fill="#EFF6FF" stroke="#93C5FD" stroke-width="0.8"/>
  <text x="974" y="315" text-anchor="middle" fill="#1D4ED8" font-size="10">设备管理与远程下线</text>
  <rect x="870" y="328" width="208" height="22" rx="5" fill="#EFF6FF" stroke="#93C5FD" stroke-width="0.8"/>
  <text x="974" y="343" text-anchor="middle" fill="#1D4ED8" font-size="10">账号注销</text>

  <!-- 虚线分隔 -->
  <line x1="50" y1="396" x2="1090" y2="396" stroke="#D1D5DB" stroke-width="1" stroke-dasharray="5,3"/>

  <!-- 技术能力 子层标签 -->
  <rect x="50" y="406" width="72" height="20" rx="4" fill="#DBEAFE"/>
  <text x="86" y="420" text-anchor="middle" fill="#2563EB" font-size="10" font-weight="600">技术能力</text>

  <!-- 身份认证 -->
  <rect x="50" y="432" width="640" height="90" rx="10" fill="#fff" stroke="#60A5FA" stroke-width="1.5" filter="url(#s)"/>
  <rect x="50" y="432" width="640" height="26" rx="10" fill="#DBEAFE"/>
  <rect x="50" y="452" width="640" height="6" fill="#DBEAFE"/>
  <text x="370" y="451" text-anchor="middle" fill="#2563EB" font-size="11" font-weight="700">身份认证</text>
  <rect x="62" y="466" width="148" height="22" rx="5" fill="#EFF6FF" stroke="#93C5FD" stroke-width="0.8"/>
  <text x="136" y="481" text-anchor="middle" fill="#1D4ED8" font-size="10">会话与 Token 管理</text>
  <rect x="218" y="466" width="148" height="22" rx="5" fill="#EFF6FF" stroke="#93C5FD" stroke-width="0.8"/>
  <text x="292" y="481" text-anchor="middle" fill="#1D4ED8" font-size="10">多端登录策略</text>
  <rect x="374" y="466" width="148" height="22" rx="5" fill="#EFF6FF" stroke="#93C5FD" stroke-width="0.8"/>
  <text x="448" y="481" text-anchor="middle" fill="#1D4ED8" font-size="9">用户数据分区（按国家/地区）</text>
  <rect x="530" y="466" width="148" height="22" rx="5" fill="#EFF6FF" stroke="#93C5FD" stroke-width="0.8"/>
  <text x="604" y="481" text-anchor="middle" fill="#1D4ED8" font-size="10">密码加密存储</text>
  <rect x="62" y="494" width="148" height="22" rx="5" fill="#EFF6FF" stroke="#93C5FD" stroke-width="0.8"/>
  <text x="136" y="509" text-anchor="middle" fill="#1D4ED8" font-size="10">OAuth 协议对接</text>
  <rect x="218" y="494" width="148" height="22" rx="5" fill="#EFF6FF" stroke="#93C5FD" stroke-width="0.8"/>
  <text x="292" y="509" text-anchor="middle" fill="#1D4ED8" font-size="10">Passkey/FIDO2 对接</text>
  <rect x="374" y="494" width="148" height="22" rx="5" fill="#EFF6FF" stroke="#93C5FD" stroke-width="0.8"/>
  <text x="448" y="509" text-anchor="middle" fill="#1D4ED8" font-size="10">多国手机号（区号适配）</text>

  <!-- 安全风控 -->
  <rect x="706" y="432" width="384" height="90" rx="10" fill="#fff" stroke="#60A5FA" stroke-width="1.5" filter="url(#s)"/>
  <rect x="706" y="432" width="384" height="26" rx="10" fill="#DBEAFE"/>
  <rect x="706" y="452" width="384" height="6" fill="#DBEAFE"/>
  <text x="898" y="451" text-anchor="middle" fill="#2563EB" font-size="11" font-weight="700">安全风控</text>
  <rect x="718" y="466" width="176" height="22" rx="5" fill="#EFF6FF" stroke="#93C5FD" stroke-width="0.8"/>
  <text x="806" y="481" text-anchor="middle" fill="#1D4ED8" font-size="10">异常登录检测</text>
  <rect x="902" y="466" width="176" height="22" rx="5" fill="#EFF6FF" stroke="#93C5FD" stroke-width="0.8"/>
  <text x="990" y="481" text-anchor="middle" fill="#1D4ED8" font-size="10">暴力破解拦截</text>
  <rect x="718" y="494" width="176" height="22" rx="5" fill="#EFF6FF" stroke="#93C5FD" stroke-width="0.8"/>
  <text x="806" y="509" text-anchor="middle" fill="#1D4ED8" font-size="10">设备指纹</text>
  <rect x="902" y="494" width="176" height="22" rx="5" fill="#EFF6FF" stroke="#93C5FD" stroke-width="0.8"/>
  <text x="990" y="509" text-anchor="middle" fill="#1D4ED8" font-size="10">人机验证 · IP 风控</text>

  <!-- ==================== 第三层：外围系统 ==================== -->
  <rect x="30" y="540" width="1080" height="98" rx="10" fill="#fff" stroke="#E5E7EB" stroke-width="1.2"/>
  <rect x="30" y="540" width="6" height="98" rx="3" fill="#F59E0B"/>
  <text x="50" y="562" fill="#B45309" font-size="13" font-weight="700" letter-spacing="2">外围系统</text>
  <line x1="140" y1="557" x2="1090" y2="557" stroke="#E5E7EB" stroke-width="1"/>

  <!-- 依赖的平台能力 -->
  <rect x="50" y="570" width="100" height="20" rx="4" fill="#FEF3C7"/>
  <text x="100" y="584" text-anchor="middle" fill="#B45309" font-size="10" font-weight="600">依赖的平台能力</text>

  <rect x="50" y="596" width="160" height="32" rx="8" fill="#FFFBEB" stroke="#F59E0B" stroke-width="1.2" filter="url(#s)"/>
  <text x="130" y="617" text-anchor="middle" fill="#92400E" font-size="10" font-weight="600">验证码服务</text>

  <rect x="218" y="596" width="160" height="32" rx="8" fill="#FFFBEB" stroke="#F59E0B" stroke-width="1.2" filter="url(#s)"/>
  <text x="298" y="617" text-anchor="middle" fill="#92400E" font-size="9" font-weight="600">消息推送（SMS / 邮件）</text>

  <rect x="386" y="596" width="160" height="32" rx="8" fill="#FFFBEB" stroke="#F59E0B" stroke-width="1.2" filter="url(#s)"/>
  <text x="466" y="617" text-anchor="middle" fill="#92400E" font-size="10" font-weight="600">多语言 · 多时区</text>

  <!-- 三方外部系统 -->
  <rect x="582" y="570" width="100" height="20" rx="4" fill="#FEF3C7"/>
  <text x="632" y="584" text-anchor="middle" fill="#B45309" font-size="10" font-weight="600">三方外部系统</text>

  <rect x="582" y="596" width="160" height="32" rx="8" fill="#FFFBEB" stroke="#F59E0B" stroke-width="1.2" filter="url(#s)"/>
  <text x="662" y="617" text-anchor="middle" fill="#92400E" font-size="10" font-weight="600">OAuth</text>

  <rect x="750" y="596" width="160" height="32" rx="8" fill="#FFFBEB" stroke="#F59E0B" stroke-width="1.2" filter="url(#s)"/>
  <text x="830" y="617" text-anchor="middle" fill="#92400E" font-size="10" font-weight="600">SMS 服务商</text>

  <rect x="918" y="596" width="160" height="32" rx="8" fill="#FFFBEB" stroke="#F59E0B" stroke-width="1.2" filter="url(#s)"/>
  <text x="998" y="617" text-anchor="middle" fill="#92400E" font-size="10" font-weight="600">邮件服务商</text>

  <!-- ==================== 底部说明 ==================== -->
  <rect x="30" y="668" width="1080" height="26" rx="6" fill="#fff" stroke="#E5E7EB" stroke-width="0.8"/>
  <text x="570" y="686" text-anchor="middle" fill="#9CA3AF" font-size="9">用户层 → 核心能力（业务能力 + 技术能力）→ 外围系统（平台能力 + 三方依赖）  |  范围：外部用户（C端 + B端商家）</text>
</svg>