<svg xmlns="http://www.w3.org/2000/svg" width="1000" height="3988" viewBox="0 0 1000 3988" font-family="'PingFang SC','Microsoft YaHei','Helvetica Neue',Arial,sans-serif">
<metadata>
<![CDATA[
# looply 交易链路与国内二奢系统衔接 — 系统流程图 V3.0
# 研发编码参考数据，从 SVG <metadata> 提取

swimlanes:
  - key: "A"
    name: "looply 订单系统"
  - key: "T"
    name: "looply TMS 物流系统"
  - key: "C"
    name: "国内二奢业务系统"

sections:
  - name: "① 下单采购"
    steps:
      - type: start_end
        text: "开始：用户下单"
      - type: process
        lane: "A"
        text: "用户完成支付"
      - type: process
        lane: "A"
        text: "创建订单(status=paid)"
      - type: process
        lane: "A"
        text: "锁定商品库存(allocation=LOCKED)"
      - type: cross_lane
        from: "A"
        to: "C"
        text: "调用创建采购订单API(商品ID+上海仓地址)"
      - type: process
        lane: "C"
        text: "接收采购订单"
      - type: decision
        lane: "C"
        text: "库存可用?"
        on_no: "返回缺货(→⑥)"
        yes_label: "是"
        no_label: "否"
      - type: process
        lane: "C"
        text: "确认接单"
      - type: cross_lane
        from: "C"
        to: "A"
        text: "回传接单确认"
      - type: process
        lane: "A"
        text: "记录采购订单号"
      - type: start_end
        text: "采购完成"
  - name: "② 国内发货"
    steps:
      - type: start_end
        text: "开始：国内发货"
      - type: process
        lane: "C"
        text: "完成拣货打包"
      - type: process
        lane: "C"
        text: "更新状态=已发货"
      - type: cross_lane
        from: "C"
        to: "A"
        text: "发货通知+国内物流单号"
      - type: process
        lane: "A"
        text: "记录国内物流信息(北京→上海)"
      - type: cross_lane
        from: "A"
        to: "T"
        text: "订阅国内物流单号"
      - type: start_end
        text: "国内发货完成"
      - type: note
        title: "说明"
        lines:
          - "本段核心：监听国内发货通知，拿到物流单号"
          - "订单状态不做联动（domestic_shipped 不面向用户）"
          - "物流单号订阅后由 TMS 跟踪轨迹"
  - name: "③ 报关发货给用户"
    steps:
      - type: start_end
        text: "开始：报关发货"
      - type: process
        lane: "A"
        text: "运营确认：上海收货验货通过"
      - type: process
        lane: "A"
        text: "运营确认：报关完成出关"
      - type: process
        lane: "A"
        text: "运营录入：国际物流单号"
      - type: cross_lane
        from: "A"
        to: "T"
        text: "订阅国际物流单号"
      - type: process
        lane: "A"
        text: "更新订单状态(shipped/已发货)"
      - type: process
        lane: "T"
        text: "接收物流商签收消息"
      - type: cross_lane
        from: "T"
        to: "A"
        text: "通知订单系统：用户签收"
      - type: process
        lane: "A"
        text: "更新订单状态(received/已收货)"
      - type: process
        lane: "A"
        text: "开始售后保障期倒计时"
      - type: start_end
        text: "履约完成"
      - type: note
        title: "说明"
        lines:
          - "本段与国内二奢系统无系统对接"
          - "上海收货/验货、报关均为线下人工操作"
          - "状态更新由运营在订单系统后台手动录入"
          - "报关完成+录入国际物流单号后 → 订单流转到"已发货""
          - "用户签收 → 订单流转到"已收货""
  - name: "④ 取消（未发货）"
    steps:
      - type: start_end
        text: "开始：取消（未发货）"
      - type: process
        lane: "A"
        text: "运营在后台点击"取消""
      - type: cross_lane
        from: "A"
        to: "C"
        text: "调用取消采购订单API"
      - type: decision
        lane: "C"
        text: "取消成功?"
        on_no: "返回取消失败"
        yes_label: "是"
        no_label: "否"
      - type: cross_lane
        from: "C"
        to: "A"
        text: "返回取消确认"
      - type: process
        lane: "A"
        text: "更新订单状态(cancelled)"
      - type: process
        lane: "A"
        text: "触发全额退款"
      - type: start_end
        text: "取消完成"
      - type: note
        title: "取消窗口"
        lines:
          - "时间窗口：下单后~国内发货前（通常数小时）"
          - "操作方式：系统自动调用国内取消API"
          - "成功率：高（取决于国内仓库响应速度）"
  - name: "⑤ 取消（已发货）"
    steps:
      - type: start_end
        text: "开始：取消（已发货）"
      - type: process
        lane: "A"
        text: "运营在后台点击"拦截""
      - type: cross_lane
        from: "A"
        to: "C"
        text: "调用物流拦截API(如支持)"
      - type: decision
        lane: "C"
        text: "API拦截成功?"
        on_no: "返回拦截失败"
        yes_label: "是"
        no_label: "否"
      - type: cross_lane
        from: "C"
        to: "A"
        text: "返回拦截结果"
      - type: process
        lane: "A"
        text: "运营人工协调(快递拦截/上海拒收)"
      - type: decision
        lane: "A"
        text: "最终拦截成功?"
        on_no: "标记不可拦截"
        yes_label: "是"
        no_label: "否"
      - type: process
        lane: "A"
        text: "更新订单状态(cancelled)"
      - type: process
        lane: "A"
        text: "触发退款(可能扣除运费)"
      - type: start_end
        text: "取消完成"
      - type: note
        title: "拦截说明"
        lines:
          - "时间窗口：国内发货后~上海报关前"
          - "操作方式：API拦截+人工协调，尽力而为"
          - "拦截失败：通知用户收货后走售后退货流程"
          - "报关后/出关后：商品无法退回国内二奢系统"
  - name: "⑥ 异常处理"
    steps:
      - type: start_end
        text: "开始：异常处理"
      - type: cross_lane
        from: "C"
        to: "A"
        text: "国内系统报告异常"
      - type: decision
        lane: "A"
        text: "异常类型?"
        on_no: "验货不通过"
        yes_label: "缺货"
        no_label: "验货"
      - type: process
        lane: "A"
        text: "国内确认库存不可用(缺货)"
      - type: process
        lane: "A"
        text: "更新订单状态(cancelled)"
      - type: process
        lane: "A"
        text: "触发全额退款"
      - type: process
        lane: "A"
        text: "释放库存锁定(allocation=RELEASED)"
      - type: start_end
        text: "异常处理完成"
      - type: note
        title: "异常场景补充"
        lines:
          - "缺货：国内实物不在库，全额退款"
          - "验货不通过：上海验货发现品质/真伪问题"
          - "  → 退回国内 + 全额退款 + 下架商品"
          - "报关被拒：海关不予放行，退回+退款"
]]>
</metadata>
<defs>
<marker id="arr" viewBox="0 0 10 10" refX="10" refY="5" markerWidth="7" markerHeight="7" orient="auto-start-reverse"><path d="M0 0L10 5L0 10z" fill="#475569"/></marker>
<marker id="arr-r" viewBox="0 0 10 10" refX="10" refY="5" markerWidth="7" markerHeight="7" orient="auto-start-reverse"><path d="M0 0L10 5L0 10z" fill="#DC2626"/></marker>
</defs>
<rect width="1000" height="3988" fill="#F8FAFC"/>
<rect width="1000" height="46" fill="#1E1F2E"/>
<text x="500" y="30" text-anchor="middle" fill="#fff" font-size="17" font-weight="600">looply 交易链路与国内二奢系统衔接 — 系统流程图</text>
<text x="970" y="30" text-anchor="end" fill="rgba(255,255,255,0.5)" font-size="10">V3.0</text>
<rect x="40" y="46" width="320" height="24" fill="#4A6CF7" opacity="0.85"/>
<text x="200" y="63" text-anchor="middle" fill="#fff" font-size="11" font-weight="600">looply 订单系统</text>
<rect x="360" y="46" width="320" height="24" fill="#10B981" opacity="0.85"/>
<text x="520" y="63" text-anchor="middle" fill="#fff" font-size="11" font-weight="600">looply TMS 物流系统</text>
<rect x="680" y="46" width="320" height="24" fill="#F59E0B" opacity="0.85"/>
<text x="840" y="63" text-anchor="middle" fill="#fff" font-size="11" font-weight="600">国内二奢业务系统</text>
<rect x="40" y="46" width="320" height="592" fill="rgba(74,108,247,0.04)"/>
<rect x="360" y="46" width="320" height="592" fill="rgba(16,185,129,0.04)"/>
<line x1="360" y1="46" x2="360" y2="638" stroke="#E2E8F0" stroke-width="0.7"/>
<rect x="680" y="46" width="320" height="592" fill="rgba(245,158,11,0.04)"/>
<line x1="680" y1="46" x2="680" y2="638" stroke="#E2E8F0" stroke-width="0.7"/>
<line x1="0" y1="638" x2="1000" y2="638" stroke="#E2E8F0" stroke-width="0.8"/>
<rect x="0" y="46" width="40" height="592" fill="#DBEAFE" rx="0"/>
<text x="20" y="311" text-anchor="middle" fill="#1E40AF" font-size="13" font-weight="700">①</text>
<text x="20" y="329" text-anchor="middle" fill="#1E40AF" font-size="13" font-weight="700">下</text>
<text x="20" y="347" text-anchor="middle" fill="#1E40AF" font-size="13" font-weight="700">单</text>
<text x="20" y="365" text-anchor="middle" fill="#1E40AF" font-size="13" font-weight="700">采</text>
<text x="20" y="383" text-anchor="middle" fill="#1E40AF" font-size="13" font-weight="700">购</text>
<rect x="40" y="646" width="320" height="24" fill="#4A6CF7" opacity="0.85"/>
<text x="200" y="663" text-anchor="middle" fill="#fff" font-size="11" font-weight="600">looply 订单系统</text>
<rect x="360" y="646" width="320" height="24" fill="#10B981" opacity="0.85"/>
<text x="520" y="663" text-anchor="middle" fill="#fff" font-size="11" font-weight="600">looply TMS 物流系统</text>
<rect x="680" y="646" width="320" height="24" fill="#F59E0B" opacity="0.85"/>
<text x="840" y="663" text-anchor="middle" fill="#fff" font-size="11" font-weight="600">国内二奢业务系统</text>
<rect x="40" y="646" width="320" height="532" fill="rgba(74,108,247,0.04)"/>
<rect x="360" y="646" width="320" height="532" fill="rgba(16,185,129,0.04)"/>
<line x1="360" y1="646" x2="360" y2="1178" stroke="#E2E8F0" stroke-width="0.7"/>
<rect x="680" y="646" width="320" height="532" fill="rgba(245,158,11,0.04)"/>
<line x1="680" y1="646" x2="680" y2="1178" stroke="#E2E8F0" stroke-width="0.7"/>
<line x1="0" y1="1178" x2="1000" y2="1178" stroke="#E2E8F0" stroke-width="0.8"/>
<rect x="0" y="646" width="40" height="532" fill="#DBEAFE" rx="0"/>
<text x="20" y="881" text-anchor="middle" fill="#1E40AF" font-size="13" font-weight="700">②</text>
<text x="20" y="899" text-anchor="middle" fill="#1E40AF" font-size="13" font-weight="700">国</text>
<text x="20" y="917" text-anchor="middle" fill="#1E40AF" font-size="13" font-weight="700">内</text>
<text x="20" y="935" text-anchor="middle" fill="#1E40AF" font-size="13" font-weight="700">发</text>
<text x="20" y="953" text-anchor="middle" fill="#1E40AF" font-size="13" font-weight="700">货</text>
<rect x="40" y="1186" width="320" height="24" fill="#4A6CF7" opacity="0.85"/>
<text x="200" y="1203" text-anchor="middle" fill="#fff" font-size="11" font-weight="600">looply 订单系统</text>
<rect x="360" y="1186" width="320" height="24" fill="#10B981" opacity="0.85"/>
<text x="520" y="1203" text-anchor="middle" fill="#fff" font-size="11" font-weight="600">looply TMS 物流系统</text>
<rect x="680" y="1186" width="320" height="24" fill="#F59E0B" opacity="0.85"/>
<text x="840" y="1203" text-anchor="middle" fill="#fff" font-size="11" font-weight="600">国内二奢业务系统</text>
<rect x="40" y="1186" width="320" height="760" fill="rgba(74,108,247,0.04)"/>
<rect x="360" y="1186" width="320" height="760" fill="rgba(16,185,129,0.04)"/>
<line x1="360" y1="1186" x2="360" y2="1946" stroke="#E2E8F0" stroke-width="0.7"/>
<rect x="680" y="1186" width="320" height="760" fill="rgba(245,158,11,0.04)"/>
<line x1="680" y1="1186" x2="680" y2="1946" stroke="#E2E8F0" stroke-width="0.7"/>
<line x1="0" y1="1946" x2="1000" y2="1946" stroke="#E2E8F0" stroke-width="0.8"/>
<rect x="0" y="1186" width="40" height="760" fill="#DBEAFE" rx="0"/>
<text x="20" y="1508" text-anchor="middle" fill="#1E40AF" font-size="13" font-weight="700">③</text>
<text x="20" y="1526" text-anchor="middle" fill="#1E40AF" font-size="13" font-weight="700">报</text>
<text x="20" y="1544" text-anchor="middle" fill="#1E40AF" font-size="13" font-weight="700">关</text>
<text x="20" y="1562" text-anchor="middle" fill="#1E40AF" font-size="13" font-weight="700">发</text>
<text x="20" y="1580" text-anchor="middle" fill="#1E40AF" font-size="13" font-weight="700">货</text>
<text x="20" y="1598" text-anchor="middle" fill="#1E40AF" font-size="13" font-weight="700">给</text>
<text x="20" y="1616" text-anchor="middle" fill="#1E40AF" font-size="13" font-weight="700">用</text>
<text x="20" y="1634" text-anchor="middle" fill="#1E40AF" font-size="13" font-weight="700">户</text>
<rect x="40" y="1954" width="320" height="24" fill="#4A6CF7" opacity="0.85"/>
<text x="200" y="1971" text-anchor="middle" fill="#fff" font-size="11" font-weight="600">looply 订单系统</text>
<rect x="360" y="1954" width="320" height="24" fill="#10B981" opacity="0.85"/>
<text x="520" y="1971" text-anchor="middle" fill="#fff" font-size="11" font-weight="600">looply TMS 物流系统</text>
<rect x="680" y="1954" width="320" height="24" fill="#F59E0B" opacity="0.85"/>
<text x="840" y="1971" text-anchor="middle" fill="#fff" font-size="11" font-weight="600">国内二奢业务系统</text>
<rect x="40" y="1954" width="320" height="598" fill="rgba(74,108,247,0.04)"/>
<rect x="360" y="1954" width="320" height="598" fill="rgba(16,185,129,0.04)"/>
<line x1="360" y1="1954" x2="360" y2="2552" stroke="#E2E8F0" stroke-width="0.7"/>
<rect x="680" y="1954" width="320" height="598" fill="rgba(245,158,11,0.04)"/>
<line x1="680" y1="1954" x2="680" y2="2552" stroke="#E2E8F0" stroke-width="0.7"/>
<line x1="0" y1="2552" x2="1000" y2="2552" stroke="#E2E8F0" stroke-width="0.8"/>
<rect x="0" y="1954" width="40" height="598" fill="#DBEAFE" rx="0"/>
<text x="20" y="2195" text-anchor="middle" fill="#1E40AF" font-size="13" font-weight="700">④</text>
<text x="20" y="2213" text-anchor="middle" fill="#1E40AF" font-size="13" font-weight="700">取</text>
<text x="20" y="2231" text-anchor="middle" fill="#1E40AF" font-size="13" font-weight="700">消</text>
<text x="20" y="2249" text-anchor="middle" fill="#1E40AF" font-size="13" font-weight="700">（</text>
<text x="20" y="2267" text-anchor="middle" fill="#1E40AF" font-size="13" font-weight="700">未</text>
<text x="20" y="2285" text-anchor="middle" fill="#1E40AF" font-size="13" font-weight="700">发</text>
<text x="20" y="2303" text-anchor="middle" fill="#1E40AF" font-size="13" font-weight="700">货</text>
<text x="20" y="2321" text-anchor="middle" fill="#1E40AF" font-size="13" font-weight="700">）</text>
<rect x="40" y="2560" width="320" height="24" fill="#4A6CF7" opacity="0.85"/>
<text x="200" y="2577" text-anchor="middle" fill="#fff" font-size="11" font-weight="600">looply 订单系统</text>
<rect x="360" y="2560" width="320" height="24" fill="#10B981" opacity="0.85"/>
<text x="520" y="2577" text-anchor="middle" fill="#fff" font-size="11" font-weight="600">looply TMS 物流系统</text>
<rect x="680" y="2560" width="320" height="24" fill="#F59E0B" opacity="0.85"/>
<text x="840" y="2577" text-anchor="middle" fill="#fff" font-size="11" font-weight="600">国内二奢业务系统</text>
<rect x="40" y="2560" width="320" height="732" fill="rgba(74,108,247,0.04)"/>
<rect x="360" y="2560" width="320" height="732" fill="rgba(16,185,129,0.04)"/>
<line x1="360" y1="2560" x2="360" y2="3292" stroke="#E2E8F0" stroke-width="0.7"/>
<rect x="680" y="2560" width="320" height="732" fill="rgba(245,158,11,0.04)"/>
<line x1="680" y1="2560" x2="680" y2="3292" stroke="#E2E8F0" stroke-width="0.7"/>
<line x1="0" y1="3292" x2="1000" y2="3292" stroke="#E2E8F0" stroke-width="0.8"/>
<rect x="0" y="2560" width="40" height="732" fill="#DBEAFE" rx="0"/>
<text x="20" y="2868" text-anchor="middle" fill="#1E40AF" font-size="13" font-weight="700">⑤</text>
<text x="20" y="2886" text-anchor="middle" fill="#1E40AF" font-size="13" font-weight="700">取</text>
<text x="20" y="2904" text-anchor="middle" fill="#1E40AF" font-size="13" font-weight="700">消</text>
<text x="20" y="2922" text-anchor="middle" fill="#1E40AF" font-size="13" font-weight="700">（</text>
<text x="20" y="2940" text-anchor="middle" fill="#1E40AF" font-size="13" font-weight="700">已</text>
<text x="20" y="2958" text-anchor="middle" fill="#1E40AF" font-size="13" font-weight="700">发</text>
<text x="20" y="2976" text-anchor="middle" fill="#1E40AF" font-size="13" font-weight="700">货</text>
<text x="20" y="2994" text-anchor="middle" fill="#1E40AF" font-size="13" font-weight="700">）</text>
<rect x="40" y="3300" width="320" height="24" fill="#4A6CF7" opacity="0.85"/>
<text x="200" y="3317" text-anchor="middle" fill="#fff" font-size="11" font-weight="600">looply 订单系统</text>
<rect x="360" y="3300" width="320" height="24" fill="#10B981" opacity="0.85"/>
<text x="520" y="3317" text-anchor="middle" fill="#fff" font-size="11" font-weight="600">looply TMS 物流系统</text>
<rect x="680" y="3300" width="320" height="24" fill="#F59E0B" opacity="0.85"/>
<text x="840" y="3317" text-anchor="middle" fill="#fff" font-size="11" font-weight="600">国内二奢业务系统</text>
<rect x="40" y="3300" width="320" height="610" fill="rgba(74,108,247,0.04)"/>
<rect x="360" y="3300" width="320" height="610" fill="rgba(16,185,129,0.04)"/>
<line x1="360" y1="3300" x2="360" y2="3910" stroke="#E2E8F0" stroke-width="0.7"/>
<rect x="680" y="3300" width="320" height="610" fill="rgba(245,158,11,0.04)"/>
<line x1="680" y1="3300" x2="680" y2="3910" stroke="#E2E8F0" stroke-width="0.7"/>
<line x1="0" y1="3910" x2="1000" y2="3910" stroke="#E2E8F0" stroke-width="0.8"/>
<rect x="0" y="3300" width="40" height="610" fill="#DBEAFE" rx="0"/>
<text x="20" y="3574" text-anchor="middle" fill="#1E40AF" font-size="13" font-weight="700">⑥</text>
<text x="20" y="3592" text-anchor="middle" fill="#1E40AF" font-size="13" font-weight="700">异</text>
<text x="20" y="3610" text-anchor="middle" fill="#1E40AF" font-size="13" font-weight="700">常</text>
<text x="20" y="3628" text-anchor="middle" fill="#1E40AF" font-size="13" font-weight="700">处</text>
<text x="20" y="3646" text-anchor="middle" fill="#1E40AF" font-size="13" font-weight="700">理</text>
<line x1="200" y1="116" x2="200" y2="132" stroke="#475569" stroke-width="1.2" marker-end="url(#arr)"/>
<line x1="200" y1="164" x2="200" y2="180" stroke="#475569" stroke-width="1.2" marker-end="url(#arr)"/>
<line x1="200" y1="212" x2="200" y2="228" stroke="#475569" stroke-width="1.2" marker-end="url(#arr)"/>
<polyline points="200,260 200,296 760,296" fill="none" stroke="#475569" stroke-width="1.2" marker-end="url(#arr)"/>
<line x1="840" y1="312" x2="840" y2="332" stroke="#475569" stroke-width="1.2" marker-end="url(#arr)"/>
<line x1="840" y1="364" x2="840" y2="383" stroke="#475569" stroke-width="1.2" marker-end="url(#arr)"/>
<line x1="905" y1="408" x2="916" y2="408" stroke="#DC2626" stroke-width="1.1" stroke-dasharray="5,3" marker-end="url(#arr-r)"/>
<text x="911" y="401" text-anchor="middle" fill="#DC2626" font-size="8">否</text>
<line x1="840" y1="433" x2="840" y2="450" stroke="#475569" stroke-width="1.2" marker-end="url(#arr)"/>
<text x="852" y="446" text-anchor="middle" fill="#64748B" font-size="8">是</text>
<polyline points="840,482 840,518 280,518" fill="none" stroke="#475569" stroke-width="1.2" marker-end="url(#arr)"/>
<line x1="200" y1="534" x2="200" y2="554" stroke="#475569" stroke-width="1.2" marker-end="url(#arr)"/>
<line x1="200" y1="586" x2="200" y2="605" stroke="#475569" stroke-width="1.2" marker-end="url(#arr)"/>
<polyline points="200,716 200,748 760,748" fill="none" stroke="#475569" stroke-width="1.2" marker-end="url(#arr)"/>
<line x1="840" y1="764" x2="840" y2="780" stroke="#475569" stroke-width="1.2" marker-end="url(#arr)"/>
<polyline points="840,812 840,848 280,848" fill="none" stroke="#475569" stroke-width="1.2" marker-end="url(#arr)"/>
<line x1="200" y1="864" x2="200" y2="884" stroke="#475569" stroke-width="1.2" marker-end="url(#arr)"/>
<polyline points="200,916 200,952 440,952" fill="none" stroke="#475569" stroke-width="1.2" marker-end="url(#arr)"/>
<line x1="520" y1="968" x2="520" y2="987" stroke="#475569" stroke-width="1.2" marker-end="url(#arr)"/>
<line x1="200" y1="1256" x2="200" y2="1272" stroke="#475569" stroke-width="1.2" marker-end="url(#arr)"/>
<line x1="200" y1="1304" x2="200" y2="1320" stroke="#475569" stroke-width="1.2" marker-end="url(#arr)"/>
<line x1="200" y1="1352" x2="200" y2="1368" stroke="#475569" stroke-width="1.2" marker-end="url(#arr)"/>
<polyline points="200,1400 200,1436 440,1436" fill="none" stroke="#475569" stroke-width="1.2" marker-end="url(#arr)"/>
<polyline points="520,1452 520,1488 280,1488" fill="none" stroke="#475569" stroke-width="1.2" marker-end="url(#arr)"/>
<polyline points="200,1504 200,1536 440,1536" fill="none" stroke="#475569" stroke-width="1.2" marker-end="url(#arr)"/>
<polyline points="520,1552 520,1588 280,1588" fill="none" stroke="#475569" stroke-width="1.2" marker-end="url(#arr)"/>
<line x1="200" y1="1604" x2="200" y2="1624" stroke="#475569" stroke-width="1.2" marker-end="url(#arr)"/>
<line x1="200" y1="1656" x2="200" y2="1672" stroke="#475569" stroke-width="1.2" marker-end="url(#arr)"/>
<line x1="200" y1="1704" x2="200" y2="1723" stroke="#475569" stroke-width="1.2" marker-end="url(#arr)"/>
<line x1="200" y1="2024" x2="200" y2="2040" stroke="#475569" stroke-width="1.2" marker-end="url(#arr)"/>
<polyline points="200,2072 200,2108 760,2108" fill="none" stroke="#475569" stroke-width="1.2" marker-end="url(#arr)"/>
<line x1="840" y1="2124" x2="840" y2="2143" stroke="#475569" stroke-width="1.2" marker-end="url(#arr)"/>
<line x1="905" y1="2168" x2="916" y2="2168" stroke="#DC2626" stroke-width="1.1" stroke-dasharray="5,3" marker-end="url(#arr-r)"/>
<text x="911" y="2161" text-anchor="middle" fill="#DC2626" font-size="8">否</text>
<text x="852" y="2206" text-anchor="middle" fill="#64748B" font-size="8">是</text>
<polyline points="840,2193 840,2226 280,2226" fill="none" stroke="#475569" stroke-width="1.2" marker-end="url(#arr)"/>
<line x1="200" y1="2242" x2="200" y2="2262" stroke="#475569" stroke-width="1.2" marker-end="url(#arr)"/>
<line x1="200" y1="2294" x2="200" y2="2310" stroke="#475569" stroke-width="1.2" marker-end="url(#arr)"/>
<line x1="200" y1="2342" x2="200" y2="2361" stroke="#475569" stroke-width="1.2" marker-end="url(#arr)"/>
<line x1="200" y1="2630" x2="200" y2="2646" stroke="#475569" stroke-width="1.2" marker-end="url(#arr)"/>
<polyline points="200,2678 200,2714 760,2714" fill="none" stroke="#475569" stroke-width="1.2" marker-end="url(#arr)"/>
<line x1="840" y1="2730" x2="840" y2="2749" stroke="#475569" stroke-width="1.2" marker-end="url(#arr)"/>
<line x1="905" y1="2774" x2="916" y2="2774" stroke="#DC2626" stroke-width="1.1" stroke-dasharray="5,3" marker-end="url(#arr-r)"/>
<text x="911" y="2767" text-anchor="middle" fill="#DC2626" font-size="8">否</text>
<text x="852" y="2812" text-anchor="middle" fill="#64748B" font-size="8">是</text>
<polyline points="840,2799 840,2832 280,2832" fill="none" stroke="#475569" stroke-width="1.2" marker-end="url(#arr)"/>
<line x1="200" y1="2848" x2="200" y2="2868" stroke="#475569" stroke-width="1.2" marker-end="url(#arr)"/>
<line x1="200" y1="2900" x2="200" y2="2919" stroke="#475569" stroke-width="1.2" marker-end="url(#arr)"/>
<line x1="265" y1="2944" x2="276" y2="2944" stroke="#DC2626" stroke-width="1.1" stroke-dasharray="5,3" marker-end="url(#arr-r)"/>
<text x="271" y="2937" text-anchor="middle" fill="#DC2626" font-size="8">否</text>
<line x1="200" y1="2969" x2="200" y2="2986" stroke="#475569" stroke-width="1.2" marker-end="url(#arr)"/>
<text x="212" y="2982" text-anchor="middle" fill="#64748B" font-size="8">是</text>
<line x1="200" y1="3018" x2="200" y2="3034" stroke="#475569" stroke-width="1.2" marker-end="url(#arr)"/>
<line x1="200" y1="3066" x2="200" y2="3085" stroke="#475569" stroke-width="1.2" marker-end="url(#arr)"/>
<line x1="200" y1="3370" x2="200" y2="3390" stroke="#475569" stroke-width="1.2" marker-end="url(#arr)"/>
<line x1="200" y1="3422" x2="200" y2="3441" stroke="#475569" stroke-width="1.2" marker-end="url(#arr)"/>
<line x1="265" y1="3466" x2="276" y2="3466" stroke="#DC2626" stroke-width="1.1" stroke-dasharray="5,3" marker-end="url(#arr-r)"/>
<text x="271" y="3459" text-anchor="middle" fill="#DC2626" font-size="8">验货</text>
<line x1="200" y1="3491" x2="200" y2="3508" stroke="#475569" stroke-width="1.2" marker-end="url(#arr)"/>
<text x="212" y="3504" text-anchor="middle" fill="#64748B" font-size="8">缺货</text>
<line x1="200" y1="3540" x2="200" y2="3556" stroke="#475569" stroke-width="1.2" marker-end="url(#arr)"/>
<line x1="200" y1="3588" x2="200" y2="3604" stroke="#475569" stroke-width="1.2" marker-end="url(#arr)"/>
<line x1="200" y1="3636" x2="200" y2="3652" stroke="#475569" stroke-width="1.2" marker-end="url(#arr)"/>
<line x1="200" y1="3684" x2="200" y2="3703" stroke="#475569" stroke-width="1.2" marker-end="url(#arr)"/>
<rect x="155" y="87" width="90" height="26" rx="15" fill="#fff" stroke="#4A6CF7" stroke-width="1.5"/><text x="200" y="104" text-anchor="middle" fill="#4A6CF7" font-size="10" font-weight="600">开始：用户下单</text>
<rect x="120" y="132" width="160" height="32" rx="4" fill="#fff" stroke="#475569" stroke-width="1.4"/><text x="200" y="152" text-anchor="middle" fill="#1E293B" font-size="9.5">用户完成支付</text>
<rect x="110" y="180" width="180" height="32" rx="4" fill="#fff" stroke="#475569" stroke-width="1.4"/><text x="200" y="200" text-anchor="middle" fill="#1E293B" font-size="9.5">创建订单(status=paid)</text>
<rect x="90" y="228" width="220" height="32" rx="4" fill="#fff" stroke="#475569" stroke-width="1.4"/><text x="200" y="248" text-anchor="middle" fill="#1E293B" font-size="9.5">锁定商品库存(allocation=LOCKED)</text>
<rect x="720" y="280" width="240" height="32" rx="4" fill="#fff" stroke="#475569" stroke-width="1.4"/><text x="840" y="300" text-anchor="middle" fill="#1E293B" font-size="9.5">调用创建采购订单API(商品ID+上海仓地址)</text>
<rect x="760" y="332" width="160" height="32" rx="4" fill="#fff" stroke="#475569" stroke-width="1.4"/><text x="840" y="352" text-anchor="middle" fill="#1E293B" font-size="9.5">接收采购订单</text>
<polygon points="840,383 905,408 840,433 775,408" fill="#FEF3C7" stroke="#D97706" stroke-width="1.4"/><text x="840" y="412" text-anchor="middle" fill="#92400E" font-size="8.5" font-weight="600">库存可用?</text>
<rect x="917" y="395" width="79" height="26" rx="4" fill="#fff" stroke="#475569" stroke-width="1.4"/><text x="956" y="412" text-anchor="middle" fill="#1E293B" font-size="9.5">返回缺货(→⑥)</text>
<rect x="760" y="450" width="160" height="32" rx="4" fill="#fff" stroke="#475569" stroke-width="1.4"/><text x="840" y="470" text-anchor="middle" fill="#1E293B" font-size="9.5">确认接单</text>
<rect x="120" y="502" width="160" height="32" rx="4" fill="#fff" stroke="#475569" stroke-width="1.4"/><text x="200" y="522" text-anchor="middle" fill="#1E293B" font-size="9.5">回传接单确认</text>
<rect x="120" y="554" width="160" height="32" rx="4" fill="#fff" stroke="#475569" stroke-width="1.4"/><text x="200" y="574" text-anchor="middle" fill="#1E293B" font-size="9.5">记录采购订单号</text>
<rect x="155" y="605" width="90" height="26" rx="15" fill="#fff" stroke="#4A6CF7" stroke-width="1.5"/><text x="200" y="622" text-anchor="middle" fill="#4A6CF7" font-size="10" font-weight="600">采购完成</text>
<rect x="155" y="687" width="90" height="26" rx="15" fill="#fff" stroke="#4A6CF7" stroke-width="1.5"/><text x="200" y="704" text-anchor="middle" fill="#4A6CF7" font-size="10" font-weight="600">开始：国内发货</text>
<rect x="760" y="732" width="160" height="32" rx="4" fill="#fff" stroke="#475569" stroke-width="1.4"/><text x="840" y="752" text-anchor="middle" fill="#1E293B" font-size="9.5">完成拣货打包</text>
<rect x="760" y="780" width="160" height="32" rx="4" fill="#fff" stroke="#475569" stroke-width="1.4"/><text x="840" y="800" text-anchor="middle" fill="#1E293B" font-size="9.5">更新状态=已发货</text>
<rect x="110" y="832" width="180" height="32" rx="4" fill="#fff" stroke="#475569" stroke-width="1.4"/><text x="200" y="852" text-anchor="middle" fill="#1E293B" font-size="9.5">发货通知+国内物流单号</text>
<rect x="100" y="884" width="200" height="32" rx="4" fill="#fff" stroke="#475569" stroke-width="1.4"/><text x="200" y="904" text-anchor="middle" fill="#1E293B" font-size="9.5">记录国内物流信息(北京→上海)</text>
<rect x="440" y="936" width="160" height="32" rx="4" fill="#fff" stroke="#475569" stroke-width="1.4"/><text x="520" y="956" text-anchor="middle" fill="#1E293B" font-size="9.5">订阅国内物流单号</text>
<rect x="475" y="987" width="90" height="26" rx="15" fill="#fff" stroke="#4A6CF7" stroke-width="1.5"/><text x="520" y="1004" text-anchor="middle" fill="#4A6CF7" font-size="10" font-weight="600">国内发货完成</text>
<rect x="155" y="1227" width="90" height="26" rx="15" fill="#fff" stroke="#4A6CF7" stroke-width="1.5"/><text x="200" y="1244" text-anchor="middle" fill="#4A6CF7" font-size="10" font-weight="600">开始：报关发货</text>
<rect x="100" y="1272" width="200" height="32" rx="4" fill="#fff" stroke="#475569" stroke-width="1.4"/><text x="200" y="1292" text-anchor="middle" fill="#1E293B" font-size="9.5">运营确认：上海收货验货通过</text>
<rect x="100" y="1320" width="200" height="32" rx="4" fill="#fff" stroke="#475569" stroke-width="1.4"/><text x="200" y="1340" text-anchor="middle" fill="#1E293B" font-size="9.5">运营确认：报关完成出关</text>
<rect x="100" y="1368" width="200" height="32" rx="4" fill="#fff" stroke="#475569" stroke-width="1.4"/><text x="200" y="1388" text-anchor="middle" fill="#1E293B" font-size="9.5">运营录入：国际物流单号</text>
<rect x="440" y="1420" width="160" height="32" rx="4" fill="#fff" stroke="#475569" stroke-width="1.4"/><text x="520" y="1440" text-anchor="middle" fill="#1E293B" font-size="9.5">订阅国际物流单号</text>
<rect x="90" y="1472" width="220" height="32" rx="4" fill="#fff" stroke="#475569" stroke-width="1.4"/><text x="200" y="1492" text-anchor="middle" fill="#1E293B" font-size="9.5">更新订单状态(shipped/已发货)</text>
<rect x="430" y="1520" width="180" height="32" rx="4" fill="#fff" stroke="#475569" stroke-width="1.4"/><text x="520" y="1540" text-anchor="middle" fill="#1E293B" font-size="9.5">接收物流商签收消息</text>
<rect x="120" y="1572" width="160" height="32" rx="4" fill="#fff" stroke="#475569" stroke-width="1.4"/><text x="200" y="1592" text-anchor="middle" fill="#1E293B" font-size="9.5">通知订单系统：用户签收</text>
<rect x="90" y="1624" width="220" height="32" rx="4" fill="#fff" stroke="#475569" stroke-width="1.4"/><text x="200" y="1644" text-anchor="middle" fill="#1E293B" font-size="9.5">更新订单状态(received/已收货)</text>
<rect x="110" y="1672" width="180" height="32" rx="4" fill="#fff" stroke="#475569" stroke-width="1.4"/><text x="200" y="1692" text-anchor="middle" fill="#1E293B" font-size="9.5">开始售后保障期倒计时</text>
<rect x="155" y="1723" width="90" height="26" rx="15" fill="#fff" stroke="#4A6CF7" stroke-width="1.5"/><text x="200" y="1740" text-anchor="middle" fill="#4A6CF7" font-size="10" font-weight="600">履约完成</text>
<rect x="155" y="1995" width="90" height="26" rx="15" fill="#fff" stroke="#4A6CF7" stroke-width="1.5"/><text x="200" y="2012" text-anchor="middle" fill="#4A6CF7" font-size="10" font-weight="600">开始：取消（未发货）</text>
<rect x="110" y="2040" width="180" height="32" rx="4" fill="#fff" stroke="#475569" stroke-width="1.4"/><text x="200" y="2060" text-anchor="middle" fill="#1E293B" font-size="9.5">运营在后台点击"取消"</text>
<rect x="760" y="2092" width="160" height="32" rx="4" fill="#fff" stroke="#475569" stroke-width="1.4"/><text x="840" y="2112" text-anchor="middle" fill="#1E293B" font-size="9.5">调用取消采购订单API</text>
<polygon points="840,2143 905,2168 840,2193 775,2168" fill="#FEF3C7" stroke="#D97706" stroke-width="1.4"/><text x="840" y="2172" text-anchor="middle" fill="#92400E" font-size="8.5" font-weight="600">取消成功?</text>
<rect x="917" y="2155" width="79" height="26" rx="4" fill="#fff" stroke="#475569" stroke-width="1.4"/><text x="956" y="2172" text-anchor="middle" fill="#1E293B" font-size="9.5">返回取消失败</text>
<rect x="120" y="2210" width="160" height="32" rx="4" fill="#fff" stroke="#475569" stroke-width="1.4"/><text x="200" y="2230" text-anchor="middle" fill="#1E293B" font-size="9.5">返回取消确认</text>
<rect x="100" y="2262" width="200" height="32" rx="4" fill="#fff" stroke="#475569" stroke-width="1.4"/><text x="200" y="2282" text-anchor="middle" fill="#1E293B" font-size="9.5">更新订单状态(cancelled)</text>
<rect x="120" y="2310" width="160" height="32" rx="4" fill="#fff" stroke="#475569" stroke-width="1.4"/><text x="200" y="2330" text-anchor="middle" fill="#1E293B" font-size="9.5">触发全额退款</text>
<rect x="155" y="2361" width="90" height="26" rx="15" fill="#fff" stroke="#4A6CF7" stroke-width="1.5"/><text x="200" y="2378" text-anchor="middle" fill="#4A6CF7" font-size="10" font-weight="600">取消完成</text>
<rect x="155" y="2601" width="90" height="26" rx="15" fill="#fff" stroke="#4A6CF7" stroke-width="1.5"/><text x="200" y="2618" text-anchor="middle" fill="#4A6CF7" font-size="10" font-weight="600">开始：取消（已发货）</text>
<rect x="110" y="2646" width="180" height="32" rx="4" fill="#fff" stroke="#475569" stroke-width="1.4"/><text x="200" y="2666" text-anchor="middle" fill="#1E293B" font-size="9.5">运营在后台点击"拦截"</text>
<rect x="760" y="2698" width="160" height="32" rx="4" fill="#fff" stroke="#475569" stroke-width="1.4"/><text x="840" y="2718" text-anchor="middle" fill="#1E293B" font-size="9.5">调用物流拦截API(如支持)</text>
<polygon points="840,2749 905,2774 840,2799 775,2774" fill="#FEF3C7" stroke="#D97706" stroke-width="1.4"/><text x="840" y="2778" text-anchor="middle" fill="#92400E" font-size="8.5" font-weight="600">API拦截成功?</text>
<rect x="917" y="2761" width="79" height="26" rx="4" fill="#fff" stroke="#475569" stroke-width="1.4"/><text x="956" y="2778" text-anchor="middle" fill="#1E293B" font-size="9.5">返回拦截失败</text>
<rect x="120" y="2816" width="160" height="32" rx="4" fill="#fff" stroke="#475569" stroke-width="1.4"/><text x="200" y="2836" text-anchor="middle" fill="#1E293B" font-size="9.5">返回拦截结果</text>
<rect x="80" y="2868" width="240" height="32" rx="4" fill="#fff" stroke="#475569" stroke-width="1.4"/><text x="200" y="2888" text-anchor="middle" fill="#1E293B" font-size="9.5">运营人工协调(快递拦截/上海拒收)</text>
<polygon points="200,2919 265,2944 200,2969 135,2944" fill="#FEF3C7" stroke="#D97706" stroke-width="1.4"/><text x="200" y="2948" text-anchor="middle" fill="#92400E" font-size="8.5" font-weight="600">最终拦截成功?</text>
<rect x="277" y="2931" width="79" height="26" rx="4" fill="#fff" stroke="#475569" stroke-width="1.4"/><text x="316" y="2948" text-anchor="middle" fill="#1E293B" font-size="9.5">标记不可拦截</text>
<rect x="100" y="2986" width="200" height="32" rx="4" fill="#fff" stroke="#475569" stroke-width="1.4"/><text x="200" y="3006" text-anchor="middle" fill="#1E293B" font-size="9.5">更新订单状态(cancelled)</text>
<rect x="100" y="3034" width="200" height="32" rx="4" fill="#fff" stroke="#475569" stroke-width="1.4"/><text x="200" y="3054" text-anchor="middle" fill="#1E293B" font-size="9.5">触发退款(可能扣除运费)</text>
<rect x="155" y="3085" width="90" height="26" rx="15" fill="#fff" stroke="#4A6CF7" stroke-width="1.5"/><text x="200" y="3102" text-anchor="middle" fill="#4A6CF7" font-size="10" font-weight="600">取消完成</text>
<rect x="155" y="3341" width="90" height="26" rx="15" fill="#fff" stroke="#4A6CF7" stroke-width="1.5"/><text x="200" y="3358" text-anchor="middle" fill="#4A6CF7" font-size="10" font-weight="600">开始：异常处理</text>
<rect x="120" y="3390" width="160" height="32" rx="4" fill="#fff" stroke="#475569" stroke-width="1.4"/><text x="200" y="3410" text-anchor="middle" fill="#1E293B" font-size="9.5">国内系统报告异常</text>
<polygon points="200,3441 265,3466 200,3491 135,3466" fill="#FEF3C7" stroke="#D97706" stroke-width="1.4"/><text x="200" y="3470" text-anchor="middle" fill="#92400E" font-size="8.5" font-weight="600">异常类型?</text>
<rect x="277" y="3453" width="79" height="26" rx="4" fill="#fff" stroke="#475569" stroke-width="1.4"/><text x="316" y="3470" text-anchor="middle" fill="#1E293B" font-size="9.5">验货不通过</text>
<rect x="90" y="3508" width="220" height="32" rx="4" fill="#fff" stroke="#475569" stroke-width="1.4"/><text x="200" y="3528" text-anchor="middle" fill="#1E293B" font-size="9.5">国内确认库存不可用(缺货)</text>
<rect x="100" y="3556" width="200" height="32" rx="4" fill="#fff" stroke="#475569" stroke-width="1.4"/><text x="200" y="3576" text-anchor="middle" fill="#1E293B" font-size="9.5">更新订单状态(cancelled)</text>
<rect x="120" y="3604" width="160" height="32" rx="4" fill="#fff" stroke="#475569" stroke-width="1.4"/><text x="200" y="3624" text-anchor="middle" fill="#1E293B" font-size="9.5">触发全额退款</text>
<rect x="80" y="3652" width="240" height="32" rx="4" fill="#fff" stroke="#475569" stroke-width="1.4"/><text x="200" y="3672" text-anchor="middle" fill="#1E293B" font-size="9.5">释放库存锁定(allocation=RELEASED)</text>
<rect x="155" y="3703" width="90" height="26" rx="15" fill="#fff" stroke="#4A6CF7" stroke-width="1.5"/><text x="200" y="3720" text-anchor="middle" fill="#4A6CF7" font-size="10" font-weight="600">异常处理完成</text>
<rect x="100" y="1030" width="360" height="108" rx="8" fill="#FEF2F2" stroke="#FECACA" stroke-width="1" opacity="0.7"/><text x="280" y="1052" text-anchor="middle" fill="#991B1B" font-size="11" font-weight="600">说明</text><text x="280" y="1070" text-anchor="middle" fill="#7F1D1D" font-size="9">本段核心：监听国内发货通知，拿到物流单号</text><text x="280" y="1086" text-anchor="middle" fill="#7F1D1D" font-size="9">订单状态不做联动（domestic_shipped 不面向用户）</text><text x="280" y="1102" text-anchor="middle" fill="#7F1D1D" font-size="9">物流单号订阅后由 TMS 跟踪轨迹</text>
<rect x="100" y="1766" width="360" height="140" rx="8" fill="#FEF2F2" stroke="#FECACA" stroke-width="1" opacity="0.7"/><text x="280" y="1788" text-anchor="middle" fill="#991B1B" font-size="11" font-weight="600">说明</text><text x="280" y="1806" text-anchor="middle" fill="#7F1D1D" font-size="9">本段与国内二奢系统无系统对接</text><text x="280" y="1822" text-anchor="middle" fill="#7F1D1D" font-size="9">上海收货/验货、报关均为线下人工操作</text><text x="280" y="1838" text-anchor="middle" fill="#7F1D1D" font-size="9">状态更新由运营在订单系统后台手动录入</text><text x="280" y="1854" text-anchor="middle" fill="#7F1D1D" font-size="9">报关完成+录入国际物流单号后 → 订单流转到"已发货"</text><text x="280" y="1870" text-anchor="middle" fill="#7F1D1D" font-size="9">用户签收 → 订单流转到"已收货"</text>
<rect x="100" y="2404" width="360" height="108" rx="8" fill="#FEF2F2" stroke="#FECACA" stroke-width="1" opacity="0.7"/><text x="280" y="2426" text-anchor="middle" fill="#991B1B" font-size="11" font-weight="600">取消窗口</text><text x="280" y="2444" text-anchor="middle" fill="#7F1D1D" font-size="9">时间窗口：下单后~国内发货前（通常数小时）</text><text x="280" y="2460" text-anchor="middle" fill="#7F1D1D" font-size="9">操作方式：系统自动调用国内取消API</text><text x="280" y="2476" text-anchor="middle" fill="#7F1D1D" font-size="9">成功率：高（取决于国内仓库响应速度）</text>
<rect x="100" y="3128" width="360" height="124" rx="8" fill="#FEF2F2" stroke="#FECACA" stroke-width="1" opacity="0.7"/><text x="280" y="3150" text-anchor="middle" fill="#991B1B" font-size="11" font-weight="600">拦截说明</text><text x="280" y="3168" text-anchor="middle" fill="#7F1D1D" font-size="9">时间窗口：国内发货后~上海报关前</text><text x="280" y="3184" text-anchor="middle" fill="#7F1D1D" font-size="9">操作方式：API拦截+人工协调，尽力而为</text><text x="280" y="3200" text-anchor="middle" fill="#7F1D1D" font-size="9">拦截失败：通知用户收货后走售后退货流程</text><text x="280" y="3216" text-anchor="middle" fill="#7F1D1D" font-size="9">报关后/出关后：商品无法退回国内二奢系统</text>
<rect x="100" y="3746" width="360" height="124" rx="8" fill="#FEF2F2" stroke="#FECACA" stroke-width="1" opacity="0.7"/><text x="280" y="3768" text-anchor="middle" fill="#991B1B" font-size="11" font-weight="600">异常场景补充</text><text x="280" y="3786" text-anchor="middle" fill="#7F1D1D" font-size="9">缺货：国内实物不在库，全额退款</text><text x="280" y="3802" text-anchor="middle" fill="#7F1D1D" font-size="9">验货不通过：上海验货发现品质/真伪问题</text><text x="280" y="3818" text-anchor="middle" fill="#7F1D1D" font-size="9">  → 退回国内 + 全额退款 + 下架商品</text><text x="280" y="3834" text-anchor="middle" fill="#7F1D1D" font-size="9">报关被拒：海关不予放行，退回+退款</text>
<rect x="0" y="3928" width="1000" height="60" fill="#fff" stroke="#E2E8F0" stroke-width="1"/>
<text x="20" y="3953" fill="#1E293B" font-size="12" font-weight="600">图例：</text>
<rect x="75" y="3941" width="50" height="20" rx="10" fill="#fff" stroke="#64748B" stroke-width="1.2"/>
<text x="100" y="3955" text-anchor="middle" fill="#64748B" font-size="8">开始/结束</text>
<rect x="140" y="3941" width="50" height="20" rx="3" fill="#fff" stroke="#475569" stroke-width="1.2"/>
<text x="165" y="3955" text-anchor="middle" fill="#475569" font-size="8">操作步骤</text>
<polygon points="225,3941 240,3951 225,3961 210,3951" fill="#FEF3C7" stroke="#D97706" stroke-width="1.2"/>
<text x="225" y="3955" text-anchor="middle" fill="#92400E" font-size="7">判断</text>
<line x1="260" y1="3951" x2="310" y2="3951" stroke="#475569" stroke-width="1.3" marker-end="url(#arr)"/>
<text x="285" y="3946" text-anchor="middle" fill="#475569" font-size="8">正常流向</text>
<line x1="330" y1="3951" x2="380" y2="3951" stroke="#DC2626" stroke-width="1.2" stroke-dasharray="5,3" marker-end="url(#arr-r)"/>
<text x="355" y="3946" text-anchor="middle" fill="#DC2626" font-size="8">异常/回退</text>
<rect x="420" y="3943" width="12" height="12" rx="2" fill="#4A6CF7" opacity="0.3"/>
<text x="438" y="3954" fill="#4A6CF7" font-size="9">looply 订单系统</text>
<rect x="520" y="3943" width="12" height="12" rx="2" fill="#10B981" opacity="0.3"/>
<text x="538" y="3954" fill="#10B981" font-size="9">looply TMS 物流系统</text>
<rect x="620" y="3943" width="12" height="12" rx="2" fill="#F59E0B" opacity="0.3"/>
<text x="638" y="3954" fill="#F59E0B" font-size="9">国内二奢业务系统</text>
</svg>